<svg xmlns="http://www.w3.org/2000/svg" width="50" height="50" viewBox="0 0 50 50"><defs><style>.cls-1{fill:#fff;}.cls-2{fill:#fb0;}.cls-3{fill:none;}.cls-4{fill:#444445;}.cls-5{fill:#444;}</style></defs><title>2pt_icons_36x36px</title><g id="Layer_17" data-name="Layer 17"><path class="cls-1" d="M20.34,32c-1.3-1-1.79-2.78-2.08-4.31-.17-.89-.38-2.37-1.34-2.73a3.25,3.25,0,0,0-1.2-.15c-2.06,0-4.11-.06-6.17-.09-.54,0-.75,1-.62,1.36,0,.53-.09,1.07-.15,1.61s0,.8,0,1.2c0,.56,0,1.11,0,1.66,0,.71-.32,1.67.69,1.31a4.43,4.43,0,0,1,2.77-1.16,6.36,6.36,0,0,1,2.87.73,7.77,7.77,0,0,0,2.68.67c.56,0,2.25.3,2.65-.07Z"/><path class="cls-1" d="M34.08,30.76a6.3,6.3,0,0,0,1.73-.68,3.1,3.1,0,0,0,.9-.82l.09-.17A9.81,9.81,0,0,0,37.45,27a11.76,11.76,0,0,0,.07-2.78c0-.75-.88-1-1.42-1a3.47,3.47,0,0,0-3,1.33,2.36,2.36,0,0,0-.26,1.05c0,.62,0,1.23-.07,1.85a7.42,7.42,0,0,1-.6,2.67c-.08.17-.17.33-.26.49a5.21,5.21,0,0,1-.41.52A14.48,14.48,0,0,0,34.08,30.76Z"/><path class="cls-2" d="M7.71,28.76v-.87a.51.51,0,0,0-1,0V28c0,.21,0,.43,0,.64,0,0,0,.08,0,.13v.67a.51.51,0,0,0,1,0c0-.21,0-.41,0-.62A.07.07,0,0,0,7.71,28.76Z"/><path class="cls-2" d="M33.56,15.37a6.1,6.1,0,0,0-4.08-1c-2,.11-4,.06-6,.06h-.57c-2,0-4,0-6,0l-2.43.06-1.14.05a4.34,4.34,0,0,0-2.21.62,3.73,3.73,0,0,0-1.24,1.4,8,8,0,0,0-.61,1.51,13.3,13.3,0,0,0-.39,2.81,18.53,18.53,0,0,1-.5,2.87c0,.14-.1.74-.13.89L17,24.23a10.65,10.65,0,0,1,0-1.13c0-.51.08-1,.08-1.51,0-1,0-1.91,0-2.86a.42.42,0,0,1,.36-.48,5.85,5.85,0,0,1,1.38-.16L20.31,18c1,0,1.61.09,2.61.07.36,0,1,0,1.38,0l1.53-.06A50.15,50.15,0,0,1,30.88,18a4.89,4.89,0,0,0,2.92-.8,1.38,1.38,0,0,0,.37-.35.75.75,0,0,0,0-.85,1.94,1.94,0,0,0-.51-.52Z"/><path class="cls-2" d="M39.85,25a.9.9,0,0,0-.08-.21,1.26,1.26,0,0,0-.19-.28,1.1,1.1,0,0,0-.15-.16A.59.59,0,0,0,39,24.2a.69.69,0,0,0-.2,0,.66.66,0,0,0-.19.09l-.16.13a1,1,0,0,0-.2.37h0a.93.93,0,0,0-.1.2.84.84,0,0,0,0,.27.89.89,0,0,0,.22.6.39.39,0,0,0,.1.08.5.5,0,0,0,.12.08.62.62,0,0,0,.19.07.76.76,0,0,0,.21,0,1,1,0,0,0,.64-.28.87.87,0,0,0,.25-.43s0,0,0,0a1.1,1.1,0,0,0,0-.18A.83.83,0,0,0,39.85,25Z"/><rect class="cls-3" x="0.11" y="0.11" width="49.78" height="49.78"/><path class="cls-4" d="M34.54,16.4c-.64-.73-1.69.34-1.07,1.07a16.31,16.31,0,0,1,3.18,4.81,14.45,14.45,0,0,0-1.45.13,7.33,7.33,0,0,0-1.53.33,3.94,3.94,0,0,0-.55.26,37.45,37.45,0,0,0-.69-4.83c-.2-.94-1.65-.54-1.45.4a32.15,32.15,0,0,1,.73,7.25A10.74,10.74,0,0,1,31.26,29a3.83,3.83,0,0,1-.7,1.36c-.69.74-1.73.54-2.63.53l-1.82,0-.06-3.32c1.18,0,2.37,0,3.56,0a.75.75,0,0,0,0-1.5c-1.2,0-2.4,0-3.59,0-.05-2.49-.11-5-.22-7.46,0-1-1.54-1-1.5,0,.18,4.08.22,8.17.31,12.26H22.72a3.77,3.77,0,0,1-1.67-.24,1.92,1.92,0,0,1-.79-1.26c-.22-.74-.4-1.49-.61-2.23a4.3,4.3,0,0,0-2.14-3.07,10.55,10.55,0,0,0-4.11-.55,17,17,0,0,0-4.49.43,1,1,0,0,0-.65.82c0,1.69,0,3.38,0,5.06,0,.84-.26,2.67,1.13,2.44.59-.1,1-.61,1.61-.8a3.49,3.49,0,0,1,2.12,0,16.92,16.92,0,0,0,4,1.09c1.55.07,3.11-.14,4.66-.18s3.26,0,4.9,0l1.57,0c1.12,0,2.22,0,3.34-.08a10.12,10.12,0,0,0,3.25-.42,5.24,5.24,0,0,0,2.8-2.19,6.1,6.1,0,0,0,.67-2.09,14.61,14.61,0,0,0,.34-2.55C38.73,21.68,36.65,18.85,34.54,16.4ZM17.27,31.05a8.33,8.33,0,0,1-3-.78,5.45,5.45,0,0,0-2.7-.44,4.62,4.62,0,0,0-1.28.32,3.51,3.51,0,0,0-.56.31c0-.81.07-1.68.07-2.44s0-1.82,0-2.73A17.93,17.93,0,0,1,13.63,25a16.3,16.3,0,0,1,2.21.15,2.46,2.46,0,0,1,1.67.72,5,5,0,0,1,.72,1.76c.2.7.37,1.42.58,2.12A4.94,4.94,0,0,0,19.36,31,20.84,20.84,0,0,1,17.27,31.05Zm19.35-2.87a4.43,4.43,0,0,1-.28.68,3.7,3.7,0,0,1-1.42,1.41,4.64,4.64,0,0,1-2,.52,5.14,5.14,0,0,0-.92.07,5,5,0,0,0,.37-.73,10.43,10.43,0,0,0,.77-3.62c0-.46,0-.92,0-1.39v-.06s0,0,0,0a1.56,1.56,0,0,1,1.23-.94,9.49,9.49,0,0,1,2.6-.31,8.45,8.45,0,0,1-.11,3.09A10.11,10.11,0,0,1,36.62,28.18Z"/></g><g id="Layer_18" data-name="Layer 18"><path class="cls-5" d="M37.35,28.67a4.49,4.49,0,0,1-.55,1.12l0,.05.19.35a1.2,1.2,0,0,1,.2,0A1.85,1.85,0,1,1,35.37,32a1.71,1.71,0,0,1,.09-.51l-.06-.2c0-.05-.06-.09-.08-.14a5.6,5.6,0,0,1-1.43.59c0,.09,0,.17,0,.26a3.35,3.35,0,1,0,3.48-3.34Z"/><path class="cls-5" d="M15.43,31.44l-.58-.21A1.76,1.76,0,0,1,15,32a1.85,1.85,0,1,1-3.7,0,1.8,1.8,0,0,1,.56-1.3,5,5,0,0,0-1.4.18h-.15L10,31.1a3.11,3.11,0,0,0-.15.92,3.35,3.35,0,1,0,6.7,0c0-.05,0-.09,0-.13C16.16,31.74,15.8,31.58,15.43,31.44Z"/></g></svg>