<?xml version="1.0" encoding="utf-8"?>
<!-- Generator: Adobe Illustrator 24.3.0, SVG Export Plug-In . SVG Version: 6.00 Build 0)  -->
<svg version="1.1" id="Layer_1" xmlns="http://www.w3.org/2000/svg" xmlns:xlink="http://www.w3.org/1999/xlink" x="0px" y="0px"
	 viewBox="0 0 19.5 17.2" style="enable-background:new 0 0 19.5 17.2;" xml:space="preserve">
<style type="text/css">
	.st0{fill:none;stroke:#000000;stroke-width:2;stroke-linecap:round;stroke-linejoin:round;}
	.st1{stroke:#000000;stroke-miterlimit:10;}
</style>
<path class="st1" d="M18.4,11.7l-3.1-2.4c-0.7-0.6-1.7-0.4-2.3,0.3c0,0,0,0,0,0l-1.4,1.8c-0.1,0.1-0.3,0.2-0.4,0.1
	c-0.9-0.5-1.8-1.1-2.6-1.7C7.9,9.1,7.2,8.4,6.5,7.8c-0.1-0.1-0.1-0.3,0-0.4l1.4-1.8c0.5-0.7,0.4-1.7-0.3-2.3L4.6,0.8
	C3.9,0.3,2.9,0.4,2.3,1.1l-0.8,1C0.4,3.5,0.2,5.5,1,7.2c0.6,1.2,1.3,2.4,2.2,3.4c0.8,0.9,1.7,1.8,2.7,2.6c1.1,0.8,2.2,1.6,3.4,2.2
	c1.3,0.7,2.8,1.1,4.3,1.3c0.4,0,0.8,0,1.1,0c1.3-0.2,2.5-0.8,3.3-1.9l0.7-0.8C19.2,13.3,19.1,12.2,18.4,11.7z M17.9,13.4
	C17.9,13.4,17.9,13.4,17.9,13.4L17.9,13.4l-0.7,0.8c-0.8,1.1-2.2,1.7-3.6,1.5c-1.4-0.2-2.7-0.6-4-1.2c-1.2-0.6-2.2-1.2-3.3-2
	c-0.9-0.7-1.8-1.5-2.5-2.4c-0.8-1-1.5-2-2.1-3.2C1.2,5.4,1.4,3.8,2.4,2.7l0.8-1C3.3,1.4,3.7,1.4,4,1.6c0,0,0,0,0,0L7.1,4
	c0.3,0.2,0.3,0.6,0.1,0.9c0,0,0,0,0,0L5.8,6.7C5.3,7.2,5.4,7.9,5.8,8.4c0.7,0.7,1.4,1.4,2.2,2c0.9,0.7,1.8,1.3,2.8,1.8
	c0.6,0.3,1.3,0.2,1.7-0.3l1.4-1.8c0.2-0.3,0.6-0.3,0.9-0.1c0,0,0,0,0,0l3.1,2.4C18.1,12.7,18.1,13.1,17.9,13.4z"/>
</svg>
