<svg xmlns="http://www.w3.org/2000/svg" width="50" height="50" viewBox="0 0 50 50"><defs><style>.cls-1,.cls-4{fill:none;}.cls-2{fill:#fff;}.cls-3{fill:#fb0;}.cls-4{stroke:#444445;stroke-miterlimit:10;stroke-width:1.5px;}.cls-5{fill:#444445;}</style></defs><title>2pt_icons_36x36px</title><g id="Layer_17" data-name="Layer 17"><rect class="cls-1" x="0.11" y="0.11" width="49.78" height="49.78"/></g><g id="Layer_18" data-name="Layer 18"><path class="cls-2" d="M45.85,30.76c0-.12,0-.25,0-.37a2,2,0,0,0,0-.24.68.68,0,0,1,0-.25c.09-.53.42-2,.1-2.44l-.16-.21a4.66,4.66,0,0,0-2.9-1.4c-1.33-.25-2.67-.41-4-.55A89.92,89.92,0,0,0,29.27,25c-3,.08-6,.05-9,0-1.63,0-3.26,0-4.89-.12a2.87,2.87,0,0,1-1.88-.59,1.29,1.29,0,0,1-.43-1.1,4.3,4.3,0,0,1-.1-.72c0-.46-.18-.6-.61-.32a13.53,13.53,0,0,1-3.93,1.74A24.06,24.06,0,0,0,6,24.53a1.2,1.2,0,0,0-.58.35,1.27,1.27,0,0,0-.22.66,18.73,18.73,0,0,0-.54,4.19,3.12,3.12,0,0,0,2.3,1.51,2.11,2.11,0,0,0,1.79-.14,9.17,9.17,0,0,0,1.17-1.38,2.9,2.9,0,0,1,2.49-.92,3,3,0,0,1,2.18,1.58,5.31,5.31,0,0,0,.54,1c.52.66,1.54.53,2.27.59,1,.07,6.21.26,7.21.3,4.68.2,5.12-.35,9.8-.35a4.49,4.49,0,0,0,1.1-.06c.73-.16.84-.84,1.22-1.43a6.78,6.78,0,0,1,3-2A2.91,2.91,0,0,1,43.42,31c.11.75.69,1.4,1.18,1.28A1.49,1.49,0,0,0,45.85,30.76Z"/><path class="cls-3" d="M28.44,26.61a3.64,3.64,0,0,0-.93-.17c-.65-.08-1.31-.08-2-.1-1.24-.06-2.48-.09-3.73-.09A159.16,159.16,0,0,1,5.49,25.2c-.12-.13-.3.27-.44.7a5.12,5.12,0,0,1,.1.54,10.56,10.56,0,0,1,.11,1.49l4.12.22h5l8.17,0c.76,0,1.53,0,2.29,0A22.43,22.43,0,0,0,27.3,28a4.23,4.23,0,0,0,1.25-.26C29.18,27.51,29,26.84,28.44,26.61Z"/><circle class="cls-4" cx="11.73" cy="31.75" r="3.29"/><circle class="cls-4" cx="40.13" cy="31.75" r="3.29"/><path class="cls-5" d="M46.63,29.36c0-.41.12-.82.11-1.23a3,3,0,0,0-.85-1.88,6.59,6.59,0,0,0-4.14-1.67c-1.47-.2-3-.35-4.43-.41a.42.42,0,0,0-.12,0,7,7,0,0,1-4.05-1.35,21.43,21.43,0,0,0-3.46-2.18,19.51,19.51,0,0,0-7.94-1.87,22.18,22.18,0,0,0-8.48,1.56c-2,.81-3.87,2.17-6,2.79a4,4,0,0,1-1.09.19,3.28,3.28,0,0,0-1,.13.87.87,0,0,0-.24.1,1.41,1.41,0,0,0-.82,1.17c0,.5.2.95.2,1.44a14,14,0,0,1-.22,1.69A5.38,5.38,0,0,0,4.5,31c.55,1,2,1.18,3,1.34a1,1,0,0,0,.3,0l.09-.14,0-.1A2.25,2.25,0,0,0,8,31.87a.29.29,0,0,1,0-.09v-.11a2.81,2.81,0,0,0,0-.41v0a1.74,1.74,0,0,0,0-.22.08.08,0,0,0,0,0,.13.13,0,0,0,0-.05h0a10.58,10.58,0,0,1-1.24-.28c-.26-.07-.68-.13-.83-.37a2.27,2.27,0,0,1-.25-1,5.83,5.83,0,0,1,0-1.32,7.87,7.87,0,0,0,.14-2.56l-.12-.46a.13.13,0,0,1,0-.06c2.33-.07,4.3-1.31,6.34-2.33a3,3,0,0,0,1.93,2.7,8.74,8.74,0,0,0,2.79.37c1.18,0,2.36.06,3.55.07,2.5,0,5,.07,7.51.07,1.58,0,3.15.05,4.72,0a54.46,54.46,0,0,1,8.18.22,8.92,8.92,0,0,1,3.6.88,2.1,2.1,0,0,1,.94,1c.23.56-.06,1.17,0,1.75s.28,1,0,1.47a1.48,1.48,0,0,1-1.45.56c-.86-.08-.86,1.42,0,1.5a2.83,2.83,0,0,0,3.15-2.62C46.79,30.08,46.65,29.73,46.63,29.36ZM17,24.11c-1.15,0-3.81,0-3.6-1.8.11-.88,1.37-1,2-1.17s1.05-.29,1.58-.41a19.65,19.65,0,0,1,4.19-.48l.06.19c0,.16.07.32.1.48,0,0,0,.14,0,.15l0,.26c0,.18,0,.36.05.54l.2,2.32C20.11,24.17,18.55,24.16,17,24.11Zm6.16.1c-.07-.84-.14-1.68-.22-2.51a10.88,10.88,0,0,0-.2-1.41,17.39,17.39,0,0,1,7.18,2.13,28,28,0,0,1,2.55,1.75C29.37,24.25,26.26,24.24,23.16,24.21Z"/><path class="cls-5" d="M36.47,31.35q-10.65-.11-21.29-.07c-.89,0-.9,1.51,0,1.5q10.63,0,21.29.07C37.36,32.86,37.36,31.36,36.47,31.35Z"/></g></svg>