<svg id="Layer_1" data-name="Layer 1" xmlns="http://www.w3.org/2000/svg" viewBox="0 0 300 220"><defs><style>.cls-1{fill:#f5f5f5;}.cls-2{fill:#fff;}.cls-3{fill:none;}.cls-4{fill:#444;}.cls-5{fill:#fdfdfd;}.cls-6{fill:#f3f3f3;}.cls-7{fill:#fcfcfc;}.cls-8{fill:#f9f9f9;}.cls-9{fill:#eee;}.cls-10{fill:#e8e8e8;}.cls-11{fill:#ececec;}.cls-12{fill:#eaeaea;}.cls-13{fill:#efefef;}.cls-14{fill:#d4d4d4;}.cls-15{fill:#4b4b4b;}.cls-16{fill:#f2f2f2;}.cls-17{fill:#fafafa;}.cls-18{fill:#feb900;}.cls-19{fill:#bbb;}.cls-20{fill:#4c4c4c;}.cls-21{fill:#484848;}.cls-22{fill:#f0f0f0;}.cls-23{fill:#b2b2b2;}.cls-24{fill:#dcdcdc;}.cls-25{fill:#ddd;}.cls-26{fill:#999;}</style></defs><g id="Amber"><path class="cls-1" d="M253.35,113.05a57.18,57.18,0,0,0-24-43.49c-13.61-9.54-31.48-13.35-47.56-8.9-10,2.8-18.7,8.71-27.54,14a220.3,220.3,0,0,1-30.07,14.94C105.58,97.35,85,102.37,68,113.37c-14,9-24.6,23.46-23.4,40.82A33.13,33.13,0,0,0,48,166.78,71,71,0,0,0,53.25,173a39.88,39.88,0,0,0,6.55,5.66,27.49,27.49,0,0,0,7.89,3.88c.7.19,1.33.45,2,.64a283.57,283.57,0,0,0,53.73,7.5c21.17.95,43-.13,63.71-4.71,17.55-3.87,35.1-11.06,48-24A63.61,63.61,0,0,0,253.35,113.05Z"/><path class="cls-2" d="M233.77,108.73a14.21,14.21,0,0,0-5.28-6A65.43,65.43,0,0,0,220.73,98c-5.34-2.86-10.87-5.85-16.21-8.58a69.79,69.79,0,0,1-7.88-4.71,57.44,57.44,0,0,0-7.89-4.7c-2.73-1.34-5.66-2.23-8.33-3.63A79.85,79.85,0,0,1,173.3,72c-4.64-3.05-9.16-6.29-14.31-8.46a33.34,33.34,0,0,0-7.82-2.16,8.49,8.49,0,0,1-3.88-1.27,4.22,4.22,0,0,1-1.14-1.21c-.06-.32-.06-.63-.13-.89s-.06-.19-.06-.25a7.68,7.68,0,0,0,0-1.66c-.06-.63-.26-1.27-.32-1.9a8.14,8.14,0,0,1,.06-1.78,7.32,7.32,0,0,0-.06-1.15,8.59,8.59,0,0,1,1.15-1.91c.5-.76.89-1.52,1.33-2.35.83-1.65,1.59-3.37,2.23-5,1.14-2.93,1.78-6.3.44-9.22v-.19c-.83-3.5-1.65-7.12-3.88-10-2-2.54-5-4.39-8.26-4.07a.5.5,0,0,0-.32.13,8,8,0,0,0-4.13,1.46,43.55,43.55,0,0,0-4,2.74A13.51,13.51,0,0,0,125,29.57c-.38,1.27-.06,3.62-1.4,4.38-.57.32-1.21.13-1.72.58a2.34,2.34,0,0,0-.63,1.39,7.76,7.76,0,0,0,1.33,4.2A41.88,41.88,0,0,0,125,44.06a37.88,37.88,0,0,0,3.18,3.31c.7,1.53,1.46,3.05,2.22,4.58a25.76,25.76,0,0,0-.31,3.81v2.16a3.14,3.14,0,0,1-.51,2,9.91,9.91,0,0,1-3.12,2.16,22.78,22.78,0,0,1-3.88,1.59.66.66,0,0,0-.44.63.67.67,0,0,0-.07.51,38.84,38.84,0,0,0,5.79,11.13c-1.4,0-2.8-.06-4.26-.06-1.21,0-2.92-.26-3.62,1s-.13,3,.06,4.2a17.88,17.88,0,0,1,.32,5.15c-.51,3-2.42,5.66-4.33,8s-3.87,4.9-6.55,6.42a8.79,8.79,0,0,1-4.57,1.27,23.82,23.82,0,0,1-4.26-.57,2.75,2.75,0,0,0-2.86,1.08,4.68,4.68,0,0,0-.39,1.85l-.19,2.86c-.51,7.25-.82,14.5-.89,21.81a60.65,60.65,0,0,0,.26,10.17,11.16,11.16,0,0,0,3.81,7.44,10.09,10.09,0,0,0,14.31-1.78c3.69-5,1.91-11.89,2.1-17.61a45.8,45.8,0,0,1,1.59-10.68c.51-1.78,2.29-5.79,4.77-4.52,2.22,1.15,1,4.71.44,6.49-.57,2.1-1,4.89,1,6.42a6.19,6.19,0,0,0,4.13.76c1.78,0,3.56,0,5.34-.06,3.69,0,7.31-.07,11-.07h4.39c-.32.7-.64,1.4-.89,2.1a.65.65,0,0,0,.38,1,52,52,0,0,1,11.7,5.08c.45.26.89-.06.95-.57q.59-6.39.77-12.78a24.77,24.77,0,0,0-.26-5.72,19.26,19.26,0,0,0-.95-2.74,13.11,13.11,0,0,1-.7-3.11c-.19-1.91-.13-3.75-.38-5.66a13.49,13.49,0,0,0-1.59-5.15,80.77,80.77,0,0,0-5.91-9.35,36.07,36.07,0,0,0-7.38-7.82c.38-.19.7-.32,1.08-.51l.06.07a63.06,63.06,0,0,1,8.65,4.83,45.88,45.88,0,0,1,4,3,20,20,0,0,1,3.62,3.37,3.86,3.86,0,0,1,.89,2c.07.89-.51,1.46-.95,2.16a3.72,3.72,0,0,0-.32,3.37,3.58,3.58,0,0,0,5.66,1.4A3.82,3.82,0,0,0,169,98.87c.13-.25.25-.7.45-.82.38-.32.95.12,1.27.38l5.15,3.43a.65.65,0,0,0,.89-.25c1.78-2.61,5.4-1.72,7.82-.7,1.4.63,2.8,1.27,4.26,1.84s3,1,4.45,1.34c3,.76,6,1.46,8.84,2.48a29.19,29.19,0,0,1,8.2,4.77c4.58,3.62,9.86,8.26,16.21,7.43C231.42,118.46,235.74,113.75,233.77,108.73Z"/><path class="cls-3" d="M59.87,154.32v-.13H59.8A.21.21,0,0,0,59.87,154.32Z"/><path class="cls-4" d="M128,97c.07,0,.07-.07.13-.07S128,96.9,128,97Z"/><path class="cls-4" d="M155.43,32.49c-.25-.06-.51-.06-.63-.25s0-.45,0-.64a6.54,6.54,0,0,0-.26-2.92,35,35,0,0,0-1.08-5.22,18.76,18.76,0,0,0-1.46-3A13.71,13.71,0,0,0,150.35,18a10.12,10.12,0,0,0-2.1-1.46A15.81,15.81,0,0,0,146,15.2c-1.08-.45-2.22-.7-3.3-1.09a7.66,7.66,0,0,0-2.36-.31h-1.2c-.77,0-1.59-.07-2.36,0a24,24,0,0,0-4.32.7,9.55,9.55,0,0,0-3.63,1.78,26.54,26.54,0,0,0-4.13,3.88,8.68,8.68,0,0,0-.83,1.27,16,16,0,0,0-.69,1.46,13.5,13.5,0,0,0-.51,1.72,29.93,29.93,0,0,0-.64,4.07,11.35,11.35,0,0,0,0,2.54,7.37,7.37,0,0,1,.13,1.14,4.39,4.39,0,0,0,.06.89,3.33,3.33,0,0,1,.26.77,2.61,2.61,0,0,0-1.72.38,4.33,4.33,0,0,0-.38,2.67v.63c0,.2.06.32.06.51s.19.64.26,1A2,2,0,0,1,121,40c.13.39.38.64.51,1a2.85,2.85,0,0,0,.38.76,5.87,5.87,0,0,1,.51.7c.06.19.25.32.38.51A7.7,7.7,0,0,0,126,45.59h.26c.06,0,.12.06.19.06a.58.58,0,0,1,.19.45,2.74,2.74,0,0,0,.51.95,6.36,6.36,0,0,1,.63,1.08c.13.26.32.51.45.77a.21.21,0,0,0,.06.12c.26.38.57.77.83,1.21.06.06.06.13.13.19s.19.26.25.38v.07a21.64,21.64,0,0,1,1.59,1.84c4.83,3.75,9.6,4.9,14.56.13h0a5.15,5.15,0,0,1,.57-.7l.58-.57c0-.19.12-.26.31-.45a13.26,13.26,0,0,0,1.21-1.91,12.11,12.11,0,0,0,1.53-3.05c.12-.32.19-.63.32-.95.06-.07.06-.13.12-.19s.07-.13.13-.19a.62.62,0,0,1,.25-.32c.39-.32,1-.45,1.28-.83s.57-.44.76-.7a4.23,4.23,0,0,1,.76-.82,10.67,10.67,0,0,0,1.59-2.42,11.86,11.86,0,0,0,1.34-2.86,15.06,15.06,0,0,0,.19-1.59C156.51,34.33,156.45,32.87,155.43,32.49Zm-10.81-9.35a5.73,5.73,0,0,1,1.47,2.17,3.8,3.8,0,0,1,.31.76c.26.32.45.63.7.95a.89.89,0,0,1-.7-.7h0c-.19-.19-.31-.44-.5-.63a13.84,13.84,0,0,1-1.53-2.29h0c-.26-.45-.57-1-.83-1.4A2.31,2.31,0,0,1,144.62,23.14ZM127,30.71a.61.61,0,0,1,.25-.32c1.15-1,1.59-2.6,2.42-3.88a11.58,11.58,0,0,1,3.62-3.81c.51-.32,1-.64,1.4-1a1.19,1.19,0,0,1,.83-.57c-.07.38-.13.64-.45.77a55.41,55.41,0,0,1-4.83,6.16,15.39,15.39,0,0,1-2.61,2.42.82.82,0,0,0-.32.32c-.06.06-.19.25-.25.25S127,30.77,127,30.71Zm-1.4,13.16a6.75,6.75,0,0,0-.7-.57A9.09,9.09,0,0,1,121.48,36c0-.32-.06-.89.44-.83s1.28-.25,1.53.51c.06.25.13.44.19.7s.19.64-.38.51a.54.54,0,0,0-.7.38c-.13.38.13.57.44.7a1.3,1.3,0,0,1,.64.89c.51,1.4,1.08,2.8,1.65,4.2A.63.63,0,0,1,125.55,43.87Zm25.5-6.74a15.76,15.76,0,0,1-.32,1.66c-.13.5-.19,1-.32,1.52s-.19,1-.32,1.4c-.25.89-.51,1.84-.82,2.73A24.72,24.72,0,0,1,148,47.37a18.64,18.64,0,0,1-2.29,3.56,12.45,12.45,0,0,1-2.41,2.1,7.81,7.81,0,0,1-3.18,1.46A10,10,0,0,1,132.29,52a14.71,14.71,0,0,1-2-2.36A46.67,46.67,0,0,1,126,41.52l-.06-.06a6,6,0,0,1-.83-2.74,5.54,5.54,0,0,1,.38-2.67l.2-.38c0-.13,0-.25.12-.25.83-1.34,2.29-2.17,3.5-3.18h0a9.11,9.11,0,0,0,2-1.85c.32-.32.57-.63.89-.95a17.86,17.86,0,0,0,1.34-1.65,21.53,21.53,0,0,1,1.65-1.91c1.4-1.66,2.35-3.5,3.62-5.34a24,24,0,0,1,2.36,3.37c1,1.52,2,2.86,3.05,4.26a8.48,8.48,0,0,0,.76.63c-.06,0,.19.13.13.13.25.25.51.44.76.7a3.29,3.29,0,0,0,.83.44,5.55,5.55,0,0,1,.82.32,5.83,5.83,0,0,1,1.47.32,2.54,2.54,0,0,1,1.33,1.59,3.08,3.08,0,0,0,.26.64,12.08,12.08,0,0,1,.51,1.33c.12.57.19,1.15.25,1.65A2.34,2.34,0,0,0,151.05,37.13Zm3.24,1.46a14.3,14.3,0,0,1-2.54,3.63c-.2.13-.32.38-.64.32a6.23,6.23,0,0,1,2.48-4.71,3.78,3.78,0,0,0,.51-.32.58.58,0,0,0,.12-.82.49.49,0,0,0-.69-.13,5.12,5.12,0,0,0-1.47.89c0-.51-.38-1,.58-1.27a2.75,2.75,0,0,0,1.71-1.91c.07-.25,0-.63.38-.57s.51.32.58.7A6.26,6.26,0,0,1,154.29,38.59Z"/><path class="cls-4" d="M140,99.32a9.51,9.51,0,0,0-3.3-.32,34.05,34.05,0,0,0-3.5,0c-.45,0-.64-.13-.57-.64a1.88,1.88,0,0,0-1.15-1.78,18.12,18.12,0,0,0-4.07-1.46c-.44-.13-.76-.19-.89-.57-.13,0-.32-.06-.44-.06a1.52,1.52,0,0,1-.77-.39.44.44,0,0,1-.19.45c-.06.06-.31,0-.31-.06a.64.64,0,0,1,.25-.64c-.06-.06-.13-.13-.13-.19s-.12-.32-.19-.51-.06-.13-.06-.19V92.9h-.26a2.6,2.6,0,0,0-.44.7c-.76,1.46-.26,2.41,1.4,2.54a11.31,11.31,0,0,1,3.24.7l.83.19v.13h-1.34a1.54,1.54,0,0,0-1.14,1.9c.06.39-.13.45-.45.45a5.08,5.08,0,0,1-3-.51c-.76-.51-1.78-.45-2.48-1.21a3.06,3.06,0,0,1-.89-1.65c-.06-.64-.45-.38-.76-.38-.51,0-.45.32-.38.63a3.67,3.67,0,0,0,2.54,3.12,4.28,4.28,0,0,1,.83.32,7.66,7.66,0,0,0,4.45.82,10.93,10.93,0,0,1,2,.13,4.24,4.24,0,0,0,2.16-.38,3.32,3.32,0,0,1,2.22-.06,28.93,28.93,0,0,0,3.95,0,2.94,2.94,0,0,1,.7.12,1.51,1.51,0,0,0,.51-.06,1,1,0,0,1,1.08.06,1.1,1.1,0,0,1,.89.89,10.43,10.43,0,0,0-.89-.7h-.77l-.7.26a2.3,2.3,0,0,0-.76,2.22c.19.64-.19.58-.51.58a68.83,68.83,0,0,1-9.41.38,17.43,17.43,0,0,1-4.45-.45,21.69,21.69,0,0,1-2.8-1.21c-.38-.19-.82-.44-1.08.07s.26.82.64,1a12.76,12.76,0,0,0,6.1,1.72c3-.06,6,0,9,0a2.26,2.26,0,0,0-.25,1.65c.19.7-.19.77-.7.83a25.12,25.12,0,0,1-3.12.19,71.08,71.08,0,0,1-7.44-.19,15,15,0,0,1-5-1.52c-.38-.13-.82-.58-1.08,0s.19.82.64,1.08a15.87,15.87,0,0,0,6.74,1.71,4.33,4.33,0,0,1,1.27.19c-2.67,1-5.47.51-8.2.58-.51.44-.7.89.12,1.14.13.06.19.06.26.13h1.46c.13-.13.45-.13,1-.13a17.44,17.44,0,0,0,5.08-.38l.07-.06a20.47,20.47,0,0,1,2.73-1.15c.77-.19,1.59-.25,2.35-.38a10.18,10.18,0,0,1,2.48-.19,4.42,4.42,0,0,0,2.8-.7c.07-.06.19-.06.32-.13,1.59-.51,1.91-1,1.46-2.67-.12-.51,0-.63.45-.76a9.77,9.77,0,0,1,1.4-.32,1.92,1.92,0,0,0,1.9-1.72C141.57,100.84,141,99.76,140,99.32Zm-10.93,0c-.64.06-1.09-.13-1.09-.77,0-.44.39-.44.64-.44.64-.06.83.51,1,1S129.17,99.32,129.05,99.32Zm2.28-.7c-.19.19-.44.06-.63-.13a12.27,12.27,0,0,1-.83-1.21,1.51,1.51,0,0,1,1.4.64C131.46,98.17,131.53,98.49,131.33,98.62Zm4.52,8.07c-.38.07-.38-.19-.38-.38s.06-.57.51-.57.44.13.5.45C136.55,106.69,136,106.5,135.85,106.69Zm3.05-3.75c-.38.07-.63-.06-.63-.51s.12-.89.57-.82.38.57.44.82C139.47,102.94,139.16,102.94,138.9,102.94Z"/><path class="cls-4" d="M146.53,9.79a6.7,6.7,0,0,0-1.14-4.51,5.16,5.16,0,0,0-1.72-1.4c-.57-.38-1-.89-1.65-1.27-2.1-1.34-4.65-1.09-6.93-.32a8.6,8.6,0,0,0-2.48,1.14,12.4,12.4,0,0,0-1.78,1.91,3.74,3.74,0,0,0-1,1.78,9.05,9.05,0,0,0-.19,2.29c.13,1.59.51,4,2.61,3.56.19-.06.32-.06.51-.13a24.33,24.33,0,0,1,5.21-.63,11.65,11.65,0,0,1,5,.51c.45.12.95.44,1.34.19a5,5,0,0,0,2.09-3C146.53,9.85,146.53,9.85,146.53,9.79Z"/><path class="cls-4" d="M162.62,148.79c-.26-.45-.45-.89-.7-1.27-.51-.9-1-1.79-1.46-2.68a5.21,5.21,0,0,0-1.47-2,2.65,2.65,0,0,0-2.73.26c-.95.51-1.84,1-2.8,1.46a.68.68,0,0,0-.76.95c.44.89.83,1.78,1.27,2.67.19.45.38.83.57,1.28a5,5,0,0,0,.64,1.2c.63.77,1.52.58,2.35.45,1-.13,2-.32,3-.45l1.4-.19c.44-.06.83-.19,1-.63A1.31,1.31,0,0,0,162.62,148.79Zm-2.1.63a10.28,10.28,0,0,0-1.46.26,9.38,9.38,0,0,0-1.47.25,3.17,3.17,0,0,1-1.33.13c-.25-.13-.45-.7-.57-1l-.64-1.33c-.32-.64-.63-1.34-1-2,.82-.44,1.65-.89,2.54-1.33a3.1,3.1,0,0,1,1.34-.51c.38,0,.63.32.82.64.51.82,1,1.71,1.47,2.6.25.45.5.89.76,1.4a8,8,0,0,1,.44.83.25.25,0,0,0-.19.06A3.17,3.17,0,0,0,160.52,149.42Z"/><path class="cls-5" d="M165,93.15h0c-.38.57,0,.76.45.76a2.75,2.75,0,0,0,2-.7c1.27-1.08,2.54-2.16,3.88-3.11A3.94,3.94,0,0,1,174,89a.87.87,0,0,0,.57-1.4c-1-.51-2.22-.32-3.24-.76-1.46.25-2.42,1.46-3.5,2.28-.25.2-.19.51-.06.77a1.38,1.38,0,0,1-.45,1.71,8.36,8.36,0,0,1-1.65,1.28c-.13.19-.45.19-.7.25Z"/><path class="cls-5" d="M175.84,90.92a1.25,1.25,0,0,0-1.2-.82,3.93,3.93,0,0,0-3.31,1.52,8.31,8.31,0,0,1-2,1.66c-.7.38-1.46.89-.83,1.9.19.39-.13.7-.32,1a14.06,14.06,0,0,0-.7,1.4c-.12.19-.19.38.07.51,1.33-.89,2.35-2.17,3.62-3.18A25.39,25.39,0,0,1,175,91.75C175.4,91.56,175.91,91.43,175.84,90.92Z"/><path class="cls-6" d="M136.8,33.25v-.12c-.12-.7.19-1.59-.57-2.17-.64-.76-.76-.44-1.4-.69a3.56,3.56,0,0,0-2.16-.45c-.51,0-1.21.51-1.72.51-.57.57-1.78,1.14-2.16,2,.57-.06,2.1-.06,2.42-.06a5.54,5.54,0,0,1,4.51,2.35c.45.57.76.63,1.08.63Z"/><path class="cls-5" d="M127.33,30.77a16,16,0,0,0,2.86-2.67,76.63,76.63,0,0,0,5.6-7.12c-.07-.19-.83.38-1,.38a15,15,0,0,1-1.59,1.27,11.64,11.64,0,0,0-3.63,3.82c-.82,1.27-1.2,2.8-2.41,3.88h0A.92.92,0,0,1,127.33,30.77Z"/><path class="cls-7" d="M151.81,42.16a16.21,16.21,0,0,0,2.54-3.63,6.4,6.4,0,0,0,1-4.32c-.07-.38-.19-.7-.58-.7s-.31.32-.38.57A2.64,2.64,0,0,1,152.64,36c-1,.25-.58.76-.58,1.27a5.12,5.12,0,0,1,1.47-.89c.25-.13.57-.13.69.13a.59.59,0,0,1-.12.82,4.36,4.36,0,0,1-.51.32,6.23,6.23,0,0,0-2.48,4.71C151.49,42.6,151.62,42.35,151.81,42.16Z"/><path class="cls-7" d="M125.74,43.94c-.57-1.4-1.59-3.63-2.1-5A1.3,1.3,0,0,0,123,38c-.25-.12-.57-.32-.44-.7a.59.59,0,0,1,.7-.38c.57.13.44-.19.38-.51s-.13-.44-.19-.7c-.32-.82-1-.44-1.53-.51s-.44.45-.44.83a9.2,9.2,0,0,0,3.37,7.31C125,43.43,125.68,44.06,125.74,43.94Z"/><path class="cls-5" d="M147.48,86.28h0a8,8,0,0,0-2-.7c.38,1.66.7,3.31,1.08,4.9a5.35,5.35,0,0,0,1.59.57c0-.25-.06-.51-.06-.76C147.93,89,147.48,87.62,147.48,86.28Z"/><path class="cls-8" d="M176.23,87.62c.57.7.31,1.59.69,2.35.07.19,0,.45.32.45a1.17,1.17,0,0,0,1-1.78c-.06-.13-.19-.32-.25-.45a2.88,2.88,0,0,1-1.21-.51C176.67,87.55,176.42,87.3,176.23,87.62Z"/><path class="cls-9" d="M139,36.18c.57,0,.76.19.63.76a3.65,3.65,0,0,0,2.1,3.82,12.53,12.53,0,0,1-1.27-2.8c-.13-.57.45-1.72-.25-2.1s-1.53-.06-2.17-.13c-.12,0-.25.26-.38.26C138.14,36.37,138.58,36.18,139,36.18Z"/><path class="cls-10" d="M136.48,38.72c.07-.13.2-.19.2-.32a5.21,5.21,0,0,0,.25-2.41c-.32-.07-.7-.26-.76.32-.07.89-.13,1.84-.19,2.73l.38-.19C136.29,38.85,136.36,38.79,136.48,38.72Z"/><path class="cls-11" d="M128.6,98.11c-.25,0-.64,0-.64.44.07.64.45.83,1.09.77.12-.07.57.13.44-.26S129.24,98.11,128.6,98.11Z"/><path class="cls-11" d="M138.84,101.61c-.45,0-.57.44-.57.82s.19.58.63.51c.26-.06.57,0,.38-.57C139.22,102.18,139.28,101.61,138.84,101.61Z"/><path class="cls-12" d="M131.33,98.62a.42.42,0,0,0,0-.64,1.47,1.47,0,0,0-1.39-.63c.31.44.5.82.82,1.2C130.83,98.75,131.08,98.81,131.33,98.62Z"/><path class="cls-13" d="M135.47,106.25c0,.19,0,.44.38.38.19-.19.63,0,.63-.51,0-.32-.19-.51-.5-.44S135.47,105.93,135.47,106.25Z"/><path class="cls-14" d="M125.23,93.53c-.32.32-.51.51-.44.83,0,.06.25.06.31.06C125.42,94.23,125.17,94,125.23,93.53Z"/><path class="cls-12" d="M165,93.15h0c.25-.13.57-.06.76-.32C165.48,93,165,92.51,165,93.15Z"/><path class="cls-15" d="M154.61,149.74a1.71,1.71,0,0,0,2,1.21,15.13,15.13,0,0,1,1.65,0h0a16.45,16.45,0,0,1,1.72,0c1.14.19,1.78-.64,2.54-1.27a.67.67,0,0,0,.13-.89,36.67,36.67,0,0,0-3.37-6c-.32-.38-.64-.64-1.15-.45a18.37,18.37,0,0,0-4.57,2c-.89.5-1,.95-.51,1.9C153.46,147.39,154,148.53,154.61,149.74Zm-.26-4.64c1.08-.45,2.16-.95,3.24-1.46a.62.62,0,0,1,.83.25,20.41,20.41,0,0,1,2.74,4.83c.19.38-.07.58-.39.7a6.49,6.49,0,0,1-3.18.26c-1.58.63-2.16-.51-2.67-1.85A10,10,0,0,0,154,146C153.84,145.61,153.91,145.35,154.35,145.1Z"/><path class="cls-16" d="M160.71,130.28c.25,1-.13,1.53-1,1.66,0,.06,0,.06.07.12a2.3,2.3,0,0,0,1.2,1.09.21.21,0,0,1,.13.06c.57.13,1.21.51,1.21.06,0-1.84-.06-5.28,0-7.12.13-3.37-.06-9.09-.13-12.46a.82.82,0,0,0-.06-.38.65.65,0,0,0-.51,0h-.13a.21.21,0,0,0-.12.06h0s-.07,0-.07.06l-.12.13-.2.19c-.06.13-.12.19-.19.32a2,2,0,0,0-.25.64c-.06.12-.06.25-.13.38v13.79C160.58,129.39,160.58,129.84,160.71,130.28Z"/><path class="cls-4" d="M129.3,30.9c.19.51,2.29-.25,2.61-.38a5.67,5.67,0,0,1,2.92,0c.7.13,1-.06.7-.95-.13-.32-.76-.45-.95-.51a5.7,5.7,0,0,0-1.47-.19,2.45,2.45,0,0,0-1.2.25C131.46,29.25,129.17,30.39,129.3,30.9Z"/><path class="cls-17" d="M158.23,84.44A9.72,9.72,0,0,0,156.51,82h0c-.06-.06-.06-.12-.12-.12a2.47,2.47,0,0,0,1.2,2.67,1.11,1.11,0,0,1,.58.63A.58.58,0,0,0,158.23,84.44Z"/><path class="cls-6" d="M180,125.32c-.13-.06-.19-.19-.32-.31a43.23,43.23,0,0,0-3.69-3,1.49,1.49,0,0,0-.06.44,42.55,42.55,0,0,1,.76,5.66c.06.7.45.38.7.19a13.09,13.09,0,0,1,2.48-1.59C181,126.21,181,126.15,180,125.32Z"/><path class="cls-4" d="M156.13,33.51a1.72,1.72,0,0,0-2.41-1.08c-.7.38-.07,1.46.63,1.08s.77,1.4.77,1.71a5.44,5.44,0,0,1-.77,2.8,35.79,35.79,0,0,1-3.3,4.83c-.51.64.63,1.28,1.08.64.76-1,1.52-2.1,2.22-3.18a11.63,11.63,0,0,0,1.72-3.43A4.72,4.72,0,0,0,156.13,33.51Z"/><path class="cls-4" d="M127.14,44.76a9.48,9.48,0,0,1-4.58-4.64,8.57,8.57,0,0,1-.89-3.11,3.24,3.24,0,0,1,.06-1.72.88.88,0,0,1,1.08-.19c.7.44,1.34-.7.64-1.08a2,2,0,0,0-3,1.2,5.87,5.87,0,0,0,.06,2.36,11,11,0,0,0,.51,2,11.58,11.58,0,0,0,5.53,6.23C127.26,46.22,127.9,45.14,127.14,44.76Z"/><path class="cls-4" d="M143,48.64c.38-.44.57-1,.95-1.53a10,10,0,0,0,.7-1.14.06.06,0,0,1,.07-.06,2.18,2.18,0,0,0,.19-.89c-.07-.07-.07-.19-.13-.26a.34.34,0,0,0-.19-.12h-.32a2.9,2.9,0,0,0-1,.82A5.47,5.47,0,0,1,139.41,47c-1.46.06-3.88.06-4.77-1.27a.64.64,0,0,0-1.08,0c-.25.31-.06.7.13,1s.31.7.51,1.08a5.24,5.24,0,0,0,1.59,2.1,5.75,5.75,0,0,0,4.13.64,4.74,4.74,0,0,0,2.35-1.08A6.43,6.43,0,0,0,143,48.64Zm-6.29.19a2.56,2.56,0,0,1-.89-1,11.56,11.56,0,0,0,3.94.32,7.46,7.46,0,0,0,2.67-.63,4.85,4.85,0,0,1-5.72,1.33Z"/><path class="cls-4" d="M144.56,35.67a.64.64,0,0,0,0,1.27A.64.64,0,0,0,144.56,35.67Z"/><path class="cls-4" d="M130.83,36.56a.64.64,0,0,0,0,1.27A.64.64,0,0,0,130.83,36.56Z"/><path class="cls-1" d="M173.75,149.36a98,98,0,0,0-7.57-10.81c-.7-.83-1.91-4.77-3.05-5.79H163a2.4,2.4,0,0,1-.13.7c0,.07-.06.07-.06.13v.06h0v.19h0a.21.21,0,0,1-.06.13h0a.14.14,0,0,1-.13.13l-.13.13c-.06.06-.13.06-.25.06a61.68,61.68,0,0,0,3.18,6.36,30.56,30.56,0,0,1,3.05,4.32,35.37,35.37,0,0,1,2.35,4.33,5.82,5.82,0,0,1,1,3,13.35,13.35,0,0,0,1.78-2A.6.6,0,0,0,173.75,149.36Z"/><path class="cls-2" d="M167.48,156.77c-.3-1.68-.69-3.35-1.13-5-.74-2.78-1.55-5.56-2.54-8.26-1.67-4.6-4.2-9.56-8.86-11.71a.56.56,0,0,1-.26-.24c-2.06.1-3.94.18-6.06.18-4.52,0-7.12.57-11.64.57-4.32,0-3.75.13-8.07.13-.34,0-4.36.14-5.5,0-.18.32-.29.72-.44,1a16.07,16.07,0,0,1-1.68,2.5c-.53.74-1,1.51-1.55,2.24a8.49,8.49,0,0,1-.5,1c-.76.95-2,1.91-2.54,3.05-.83,1.78-.95,2.74-2.48,3.94-.19.13-1,.83-.89,1.21s-.19,1.08-.51,1.46c-1.14,1.53-1.27,3.31-2,5a53,53,0,0,0-2.22,8.15h15.61c7.19,0,14.38,0,21.57-.15,3.6-.07,7.19-.16,10.78-.3l3.66-.16,1.73-.08c1.53-.08,3.42.18,4.72-.75a4.31,4.31,0,0,0,.9-1.13C168.06,158.71,167.63,157.61,167.48,156.77Z"/><path class="cls-2" d="M182.07,125.2a4.12,4.12,0,0,0-.89-.64c-.38-.25-.76-.51-1.08-.76a41.69,41.69,0,0,1-4.45-3.69.72.72,0,0,0-.32-.19c-.44-.25-1.14.13-.89.7a23.65,23.65,0,0,1,1.21,5.15,18.37,18.37,0,0,1,.13,2.67c0,.38-.06.83.25,1.08a1,1,0,0,0,1,.19,5.72,5.72,0,0,0,1.15-.63c.38-.26.82-.45,1.2-.7a26.27,26.27,0,0,0,2.23-1.4C182.33,126.6,182.71,125.83,182.07,125.2Z"/><path class="cls-18" d="M156.9,45.21a7,7,0,0,0-2.8-3.88c-.7-.45-1.34.63-.64,1.08a4.9,4.9,0,0,1,2,2.42,3.68,3.68,0,0,1,0,3.37,1.83,1.83,0,0,1-2.6.44,3.61,3.61,0,0,1-1.34-3,11.4,11.4,0,0,1,.13-2.1,2,2,0,0,1,.7-1.4.79.79,0,0,0,.25-.89.71.71,0,0,0-.89-.25c-1.27.89-1.4,2.54-1.4,3.94a5.37,5.37,0,0,0,1.59,4.39,3.21,3.21,0,0,0,4.14.19C157.15,48.51,157.28,46.67,156.9,45.21Z"/><path class="cls-18" d="M126.57,46.67a10.73,10.73,0,0,0-1.66-4.13c-.44-.7-1.52-.07-1.08.63a10.2,10.2,0,0,1,1.46,3.56c.19.89.51,2.67-.82,2.8a2.51,2.51,0,0,1-2.42-2,2.59,2.59,0,0,1,.13-1.72,7.69,7.69,0,0,1,1.14-1.65.67.67,0,0,0,0-.89.68.68,0,0,0-.89,0A10.58,10.58,0,0,0,121.22,45a4,4,0,0,0-.5,1.91,3.83,3.83,0,0,0,1.59,3.24,2.86,2.86,0,0,0,3.56.13C127,49.4,126.69,47.88,126.57,46.67Z"/><path class="cls-19" d="M121.54,80.81a12,12,0,0,0-.57-2.16c-.32-1.65-.32-2.29,1.21-2h.19a18.94,18.94,0,0,0,4.58.64,7.87,7.87,0,0,0,2.73-.07,23.44,23.44,0,0,1-2.1-2.16A25.75,25.75,0,0,1,125,70.45c-.76-1.84-1.53-3.75-2.23-5.59-.19-.45-.31-.7-.76-.58-1.33.32-2.54.83-3.88,1.27-1.71.58-3.56,1-5.21,1.59a44.15,44.15,0,0,0-5.6,2.48,8.78,8.78,0,0,0-1.52.83c-1.27,1.08-2.23,1.91-3.37,3a9.63,9.63,0,0,0-1.66,2.67c-.25.45-.5,1.27-.89,2,0,0-2.79,6.24-3.3,8.78a10.67,10.67,0,0,0-.77,2.42c-1.33,3.75-2.35,7.63-3.49,11.44-.13.38-.45,1.21-.58,1.65.64,0,1.66-.25,2.23-.25a34.64,34.64,0,0,1,4.45.06c2.23.26,4.9.58,7.44.7,1.21.07,3-.25,4.26-.25,2.23,0,2.73-.07,3.43-2,.07-.12.51-.76.58-.89,1.08-1.84,2.29-3.49,3.49-5.27a10.14,10.14,0,0,1,6.11-4.77c.25-.07.38-.07.32-.45-.51-1.72-.89-3.43-1.4-5.15"/><path class="cls-19" d="M163.06,122c-.06,2.92,0,5.91.07,8.84v.63c0,.13.06.26.06.38a.62.62,0,0,0,.13.38,2.56,2.56,0,0,0,.32.64,2.31,2.31,0,0,0,.19-.7c.19-.89.19-1.91.31-2.8.26-1.9.58-3.75.83-5.66.38-2.54.76-5,1.21-7.56v-.64a9.82,9.82,0,0,1,.25-1.27c.07-.25.07-.51.13-.76.13-2,.32-4,.45-6l1.2-8c-.06-.76-1.2.19-1.2.19a3.07,3.07,0,0,1-3.31-1.08,1.35,1.35,0,0,1-.19-1.72A22.75,22.75,0,0,1,166.18,94c-.76-.83-2.54-1.33-3.31-2.1-.32-.32-1.84.32-2.29.32a31.9,31.9,0,0,1-6,.32c-.19,0-1.59-.19-1.78-.19-.63,0-.95.32-.57,1,.89,1.47,1.34,3.44,2.61,4.52,1.59,1.33,2.86,2.42,3.11,4.45.45,3.56,1.34,7.31,1.27,10.87,0,.19.26,1.47.26,1.72,1.33-1.08.95-3.31,3.11-3.37-.25.89.32.76.32,1.72C162.87,116.36,163.06,119.16,163.06,122Z"/><path class="cls-19" d="M154.73,130.92a23.65,23.65,0,0,0-3.94-1.65c-1.33-.51-2-.77-1.08-1.85a12.16,12.16,0,0,0,1.84-2.29,2.6,2.6,0,0,0-2.16-.06c-.51.19-1.65-.13-2.16-.06-3.5.44-5.91,0-9.41.12-2.16.07-4.51-.19-6.68-.12-1.84.06-3.94.31-5.78.25-1-.06-1.47-.57-1.47-1.4s.07-1.08.2-2c.12-1.4.31-2.8.5-4.2a34.22,34.22,0,0,1,.77-4.32c.25-1,.57-2,.76-3.24a17.85,17.85,0,0,1-5.72.57c-1.15,0-1.85-.19-1.78,1,0,2.42-.07,4.84-.07,7.25a23.44,23.44,0,0,0,1.08,5.09v.06a12.42,12.42,0,0,1,.7,1.27,42,42,0,0,1,1.4,4.14,21.5,21.5,0,0,1,1.15,4l.19-.19c1.08-1.08,2.67-.7,4-.7,4.2.13,8.46,0,12.66-.12,3.94-.13,7.88-.39,11.76-.64,1.21-.06,4.45-.06,5.72,0C156.83,131.68,155.05,131.11,154.73,130.92Z"/><path class="cls-19" d="M151.81,74.52c-.32.45-.38.57.13.83a16.79,16.79,0,0,1,4.7,3.11c3.24,3.12,5.85,6.81,8.78,10.3.31.38.82.83,1.39.38,1.34-1.14,1.91-2.09,3.63-2.67.76-.25,2,.39,2.35-.7a6.84,6.84,0,0,1,1-.76c1.46-.44,2.48-.7,3.49.38a8,8,0,0,0,3.12,1.78c.95.38,1.14,1,2,.19,2.8-2.67,6.23-5.78,9.16-8.33a1.17,1.17,0,0,1,.32-.25c-.07-.32-.32-.32-.45-.44-1.84-1.28-3.88-2.29-5.78-3.5a36.63,36.63,0,0,0-4.9-2.8c-1.53-.7-3.12-1.72-4.58-2.54a41.25,41.25,0,0,0-4-2.17c-1.34-.57-2.74-1.08-4.14-1.65-3.3-1.27-7.25-2-10.62-3-.5-.12-.57.51-.7,1a32.34,32.34,0,0,1-1.84,5A22.49,22.49,0,0,1,151.81,74.52Z"/><path class="cls-1" d="M232.56,113.82c-1.46.5-3.05.25-4.58.38-3.94.25-7.37-1.34-10.74-3-2.86-1.4-5.66-3-8.46-4.64a95.15,95.15,0,0,1-8.39-5,5.11,5.11,0,0,0-2.23-1.08c-1.71-.19-3.43-.64-5.21-.83-2.61-.25-5.15-.89-7.76-.76a12.74,12.74,0,0,1-3.43-.13,6.29,6.29,0,0,0,1.71,1c2,1.15,3.88,2.67,5.92,3.82a7.21,7.21,0,0,0,6.55.38,1.06,1.06,0,0,1,.89,0c1.2.76,2.48,1.53,3.62,2.29,3.63,2.35,6.8,5.34,10.56,7.5,3.43,2,6.42,4.83,10.3,6.17,1.33.44,2.54,1.08,3.94,1,1.72-.19,3.56-.06,5-1.27a11.34,11.34,0,0,0,3.11-3.81,5.63,5.63,0,0,0,.7-4.07h0C234.09,113.5,234.34,113.24,232.56,113.82Z"/><path class="cls-1" d="M117.47,109.49c-.38-.13-.76.13-1.14.13a4.06,4.06,0,0,0-3.18,3.94c.13,1.72.19,3.37.44,5.09.45,2.67.7,5.4,1.21,8.07s.57,5.28,1,7.89c.25,1.46,0,2.92.44,4.38.2.58.89.83.77,1.53a9.75,9.75,0,0,0,.7-3.75c.12-3.43.06-6.87.12-10.24,0-3.11,0-6.29-.06-9.41-.06-1.91.13-3.81.19-5.72,0-.32.13-.64-.38-.76C116.77,110.38,117,109.94,117.47,109.49Z"/><path class="cls-1" d="M110.67,103a64,64,0,0,1-7.06.12V105c0,1.08.13,2.16.13,3.3.06,1.53.13,3.12.06,4.65a23.69,23.69,0,0,0,.32,5.59,25.5,25.5,0,0,0,1.53-3c1.14-2.54,2.29-5.08,3.43-7.63a32.12,32.12,0,0,1,2.48-4.89Z"/><path class="cls-19" d="M143.16,79.86a4.06,4.06,0,0,0-1.65.19c.38.26.57.45.82.64,1.78,1.33,3.37,2.8,5.15,4.13a4.19,4.19,0,0,0,1.66.64c3.69,1.14,8.58,2.86,12.27,4,.25,0,.32-.12.19-.38-.76-.51-2.73-1.72-3.43-2.22-3.5-2.55-6.93-5.22-10.37-7.83a.57.57,0,0,0-.7-.06A7.07,7.07,0,0,1,143.16,79.86Z"/><path class="cls-1" d="M145.51,55.32l.19-.19V52.58c-5,4.84-9.79,3.63-14.68-.19,0,2.36-.45,4.26-.45,6.49,0,.51-.19,1.52-.76,1.84a15.09,15.09,0,0,0,5.59-.57,32.38,32.38,0,0,0,5.92-2c2-1.08,1.33-.89,4-2.74C145.39,55.44,145.45,55.38,145.51,55.32Z"/><path class="cls-1" d="M161.41,89.65c-2.54-.38-5.09-1.4-7.57-2-2.09-.57-4.07-1.34-6.16-1.78h-.39l.13-.13a35.53,35.53,0,0,0,.76,4.52,2.76,2.76,0,0,1,.07.76,15.92,15.92,0,0,0,5.72.76,38.31,38.31,0,0,0,7.19-.51c.25-.06.76.32.76-.25C161.92,90.67,161.86,89.78,161.41,89.65Z"/><path class="cls-1" d="M165.16,88.83c-.06-.07-1.21-1-1.27-1-1.59-2-3.18-3.88-4.77-5.85a21.07,21.07,0,0,0-5.79-5.09c.13,1.21.45,2.42.58,3.63a16.43,16.43,0,0,1,.12,1.78,20.35,20.35,0,0,0,3.25,2.86l.76.63a16.56,16.56,0,0,0,2.1,1.59c1.14.83,1,1.66,2.1,2.93a5.46,5.46,0,0,1,.63,1.08c.19.44.89.89,1.34.51C165.42,90.67,166.43,90,165.16,88.83Z"/><path class="cls-1" d="M138.71,83.55c.57.83,1.14,1.27,1.53,1.91a12.37,12.37,0,0,0,6.29,5.08c-.38-1.65-.7-3.3-1.08-4.89C143.29,85,141.13,84.25,138.71,83.55Z"/><path class="cls-1" d="M147.55,30.46c.25.06.44.06.63.12a5.29,5.29,0,0,1,1.09.38l.19.2h0c.12.19.25.44.38.69h0c.06.2.19.39.25.58a1.68,1.68,0,0,1,.13.57c-.06,0-.13-.06-.19-.06a3.81,3.81,0,0,0-1.53-1.09,4.38,4.38,0,0,0-2.22-.12,8.65,8.65,0,0,0-2.23.44,5.62,5.62,0,0,0-2,1.15h0a4.81,4.81,0,0,0-1.4,1.59c-.06.06-.44-.07-.51-.07h-.06c-.13-.06-.26,0-.38-.06a1.49,1.49,0,0,0-.51-.06,10.14,10.14,0,0,0-.13-2,3.38,3.38,0,0,1,1.15-2.35,11.82,11.82,0,0,1,4.38-1.65,10,10,0,0,0,2.8,1.65"/><path class="cls-1" d="M155.05,147.9c.51,1.33,1.08,2.48,2.67,1.84a7.55,7.55,0,0,0,3.18-.25c.32-.07.51-.26.38-.7a17.23,17.23,0,0,0-2.73-4.84.65.65,0,0,0-.83-.25c-1.08.51-2.16,1-3.24,1.46-.51.19-.51.45-.26.89S154.8,147.26,155.05,147.9Z"/><path class="cls-18" d="M150.47,33.25c-1.59-2.41-4.83-2-7.12-.89a6.52,6.52,0,0,0-1.52,1c-.13.13-1.34,1.46-1.21,1.53a7.49,7.49,0,0,0-2.42-.19c-.7.06-1.52.12-2.22.25a5,5,0,0,0-3.56-2.61,11.63,11.63,0,0,0-4.2.07,5.11,5.11,0,0,0-3,1.78c-.07.06-.19.12-.26.19a2.43,2.43,0,0,0-.25,1.65,11.84,11.84,0,0,0,.25,2,8.11,8.11,0,0,0,1.4,3.3,7.46,7.46,0,0,0,2.74,2.16,4.7,4.7,0,0,0,3.68-.5,10.71,10.71,0,0,0,1.53-1,3.43,3.43,0,0,0,1-1.46,10.29,10.29,0,0,0,1.08-3.5v-.89a9.45,9.45,0,0,1,1.91-.19,7.19,7.19,0,0,1,2,.13,4.54,4.54,0,0,0,.25,1.84,10,10,0,0,0,.45,1.46c0,.07.06.13.06.2s.07.19.19.25a7,7,0,0,0,1.15,1.53c1.84,1.78,5.15,2.35,6.74-.07a14.47,14.47,0,0,0,1.78-3.75A5.8,5.8,0,0,0,150.47,33.25Z"/><path class="cls-20" d="M145.58,36.24c0-.06-.07-.19-.07-.25l-.19-.19h0l-.06-.07-.13-.12h0c-.06,0-.12-.07-.19-.07h-.25a.37.37,0,0,0-.26.07h0a.13.13,0,0,0-.12.12h0a.14.14,0,0,1-.13.13h0l-.07.06h0a.21.21,0,0,1-.06.13h0v.64a.21.21,0,0,0,.06.12.51.51,0,0,0,.26.26,1,1,0,0,0,.44.13h.13a.21.21,0,0,0,.19-.07.21.21,0,0,0,.13-.06h0c.06-.06.13-.06.19-.13s.13-.13.13-.19.06-.13.06-.19h0v-.25h0C145.64,36.43,145.64,36.31,145.58,36.24Z"/><path class="cls-21" d="M131.65,37.26v-.13a.39.39,0,0,0-.06-.25l-.06-.07h0c-.07-.12-.2-.25-.26-.25a.26.26,0,0,1-.13-.06h-.25a.24.24,0,0,0-.19.06h0c-.07,0-.19.06-.26.06a.53.53,0,0,0-.25.26c0,.06,0,.06-.06.13h0c0,.06-.07.12-.07.19v.25h0v.13c0,.06.07.12.07.19h0v.13c.06.06.06.12.12.19l.13.12c.06.07.13.07.25.07h.2a.35.35,0,0,0,.25-.07h.06c.07-.06.13-.06.19-.12s.07-.13.13-.19h0a1.35,1.35,0,0,0,.19-.32Z"/><path class="cls-4" d="M147.87,84.76a28.48,28.48,0,0,1-5.34-4.64c-.77-.83-1.34-1.85-2.1-2.68s-2-.57-2.93-.57c-5.21.07-10.55.89-15.64-.38h-.06a.56.56,0,0,0-.89.19c-.58,1.21.12,2.74.44,4,.38,1.59.83,3.24,1.27,4.83.64,2.29,1.27,4.51,2,6.74a.06.06,0,0,0-.06.06,4.18,4.18,0,0,0-.83,1.47,1.81,1.81,0,0,0,.19,1.78.63.63,0,0,0,.9,0,.61.61,0,0,0,.06-.83h0v-.19h0v-.13c0-.06.06-.19.06-.25s0-.07.07-.13h0A.06.06,0,0,1,125,94c.13.44.25.89.38,1.27.26.76,1.46.44,1.21-.32-.89-2.86-1.78-5.72-2.61-8.65l-1.14-4.19c-.19-.7-.38-1.4-.51-2.1a7.55,7.55,0,0,1-.45-1.91c4.84,1.15,9.8.51,14.76.38h1.78a4.41,4.41,0,0,1,.89,0,2,2,0,0,1,.7.7,25.1,25.1,0,0,0,2,2.48A27,27,0,0,0,147.29,86,.71.71,0,0,0,147.87,84.76Z"/><path class="cls-18" d="M89.3,165.06c1.85-1,3.57-2,5.41-3.05.38-.19.25-.44.19-.76-.38-1.15-.76-2.29-1.08-3.43a.66.66,0,0,0-.64-.51,29.25,29.25,0,0,0-4.77-.13c-.63,0-1,.32-.76,1.08C88.22,160.55,88.73,162.78,89.3,165.06Z"/><path class="cls-18" d="M196.51,145a1.1,1.1,0,0,0,.76.31,7,7,0,0,0,3-1.08c.51-.19.45-.44.32-.82-.57-1.66-1.15-3.25-1.59-4.9a1,1,0,0,0-1.34-.89,41,41,0,0,0-5.59,1.65c-.77.26-.7.57-.26,1.08C193.27,142.05,195,143.51,196.51,145Z"/><ellipse class="cls-2" cx="148.38" cy="190.43" rx="126.47" ry="25.88"/><path class="cls-7" d="M160.9,218a1,1,0,0,0-.38.13,15.24,15.24,0,0,0,3.81-.19h0A20.7,20.7,0,0,0,160.9,218Z"/><path class="cls-7" d="M135.53,218a.75.75,0,0,0,.32.06,21.38,21.38,0,0,0,3.5.07C138.07,217.7,136.8,218,135.53,218Z"/><path class="cls-7" d="M129.55,217.77c.26.32.58.13.89.19h1.66A6.8,6.8,0,0,0,129.55,217.77Z"/><path class="cls-7" d="M167.77,217.9a6.84,6.84,0,0,0,2.54-.2h0A11.14,11.14,0,0,0,167.77,217.9Z"/><path class="cls-7" d="M173,217.77c.57-.07,1.21.19,1.85-.19h0C174.19,217.64,173.55,217.39,173,217.77Z"/><path class="cls-7" d="M180.42,217.39c.57-.07,1.15.19,1.65-.19h0C181.5,217.26,180.93,217,180.42,217.39Z"/><path class="cls-7" d="M177,217.58c.57-.07,1.14.19,1.65-.19h0C178.07,217.45,177.5,217.2,177,217.58Z"/><path class="cls-7" d="M183.66,217.2c.45-.07.89.19,1.28-.19h0C184.49,217.07,184.05,216.88,183.66,217.2Z"/><path class="cls-7" d="M189.07,216.81c.44-.06.89.2,1.27-.19h0C190,216.69,189.45,216.5,189.07,216.81Z"/><path class="cls-7" d="M191.61,216.62c.38-.06.77.13,1.08-.19h0C192.31,216.5,191.93,216.37,191.61,216.62Z"/><path class="cls-7" d="M193.77,216.5c.39-.07.77.12,1.09-.19h0C194.54,216.37,194.09,216.18,193.77,216.5Z"/><path class="cls-7" d="M195.94,216.31c.38-.07.76.12,1.08-.2h0C196.7,216.18,196.25,216,195.94,216.31Z"/><path class="cls-7" d="M186.53,217c.38-.07.76.12,1.08-.2h0C187.29,216.88,186.91,216.69,186.53,217Z"/><path class="cls-7" d="M198.16,216.11c.32-.06.64.13.89-.19h0C198.73,216,198.42,215.8,198.16,216.11Z"/><path class="cls-7" d="M125,217.58h0c.57.38,1.21.12,1.84.19h0C126.31,217.39,125.68,217.64,125,217.58Z"/><path class="cls-7" d="M117.79,217.2c.51.31,1.08.12,1.65.19h0C118.94,217,118.36,217.26,117.79,217.2Z"/><path class="cls-7" d="M121.22,217.39c.51.31,1.09.12,1.66.19h0C122.37,217.2,121.8,217.45,121.22,217.39Z"/><path class="cls-7" d="M114.93,217c.38.31.83.12,1.27.19h0C115.82,216.88,115.37,217.07,114.93,217Z"/><path class="cls-7" d="M109.52,216.69c.39.32.83.12,1.28.19h0C110.35,216.5,109.91,216.69,109.52,216.69Z"/><path class="cls-7" d="M107.17,216.5c.32.31.7.12,1.08.19h0C107.94,216.37,107.49,216.5,107.17,216.5Z"/><path class="cls-7" d="M105,216.31c.31.31.7.12,1.08.19h0C105.71,216.18,105.33,216.37,105,216.31Z"/><path class="cls-7" d="M102.78,216.11c.32.32.7.13,1.09.2h0C103.55,216,103.17,216.18,102.78,216.11Z"/><path class="cls-7" d="M112.2,216.81c.31.32.69.13,1.08.2h0C113,216.69,112.58,216.88,112.2,216.81Z"/><path class="cls-7" d="M95.22,215.42c.25.31.57.12.89.19h0C95.85,215.29,95.54,215.42,95.22,215.42Z"/><path class="cls-7" d="M97,215.61c.25.31.57.12.89.19h0C97.63,215.48,97.32,215.61,97,215.61Z"/><path class="cls-7" d="M98.84,215.73c.26.32.57.13.89.19h0C99.48,215.67,99.16,215.8,98.84,215.73Z"/><path class="cls-7" d="M100.81,215.92c.26.32.58.13.89.19h0C101.45,215.8,101.13,216,100.81,215.92Z"/><path class="cls-22" d="M221.69,212.05a1.65,1.65,0,0,0-1.08.57C221.18,212.68,221.43,212.3,221.69,212.05Z"/><path class="cls-23" d="M169.68,197.87c-.19,0-.26.12-.26.31s.13.26.32.26.25-.13.25-.32A.32.32,0,0,0,169.68,197.87Z"/><path class="cls-24" d="M135.91,218c-.12,0-.25-.06-.32-.06S135.79,218,135.91,218Z"/><path class="cls-3" d="M57.37,166.39a.6.6,0,0,0,.28-.06A.6.6,0,0,1,57.37,166.39Z"/><path class="cls-3" d="M62.57,195.07c0,.89.42,1.27,1.34,1.33s2.11.13,3.16.13a12.22,12.22,0,0,0,3-.32c-2.39-3.11-4.71-6.16-7-9.22A80,80,0,0,0,62.57,195.07Z"/><path class="cls-3" d="M138.92,175.36c.28-.26.64-.38.78-.77l-24.12,1.15a19.84,19.84,0,0,1,1.48,1.65c1.12,1.59,2.11,3.24,3.23,4.9a39.86,39.86,0,0,0,3.87,5,2.36,2.36,0,0,0,3.51.06,36.59,36.59,0,0,0,2.75-3A76.56,76.56,0,0,1,138.92,175.36Z"/><path class="cls-3" d="M128.1,200.92a50,50,0,0,1-4.43-4.07,73.19,73.19,0,0,1-6.26-6.68c-3.8-4.51-7.38-9.22-10.76-14a4.92,4.92,0,0,0-4.36-2.16c-6.32.07-12.65,0-18.91.57-3.37.32-6.75.58-10,1-4.5.51-9.07,1.14-13.57,1.78-1.06.13-2,.44-3.24.63a8.43,8.43,0,0,0,2,1c4.57,2,9.07,4.07,13.64,6a8.39,8.39,0,0,0,2.39.83c-.21.25-1,.06-.7.63s.7.32,1.12.26a7.46,7.46,0,0,0,1.2-.32h0c-.28.51.28.44.49.57,1.62.76,3.31,1.46,4.92,2.16,4.92,2.16,9.92,4.33,14.84,6.55a4.58,4.58,0,0,1,1.47.76c-.21.07-.28.19-.42.19a94,94,0,0,0-11.74,4.71c-.56.25-.84.44-.28.95,1.27,1.08,2.32,2.36,3.59,3.56,2.39,2.29,4.92,4.52,7.38,6.74a1.41,1.41,0,0,0,1.05.45c1.41.06,2.74.25,4.15.32,1.62.12,3.23.32,4.85.32,2,0,3.87.38,5.84-.2,4.29-1.14,8.57-2,12.93-2.86.28-.06.78.13.85-.31.07-.26-.42-.39-.64-.51-4.5-2.74-9.07-5.34-13.42-8.27a5.54,5.54,0,0,1-1.9-1.65c.91.19,1.69.32,2.46.44,2,.32,3.79,1,5.83.89a38.56,38.56,0,0,1,6.61.13,21.43,21.43,0,0,0,2.89,0c.14,0,.35.06.42-.13S128.17,201.05,128.1,200.92Z"/><path class="cls-3" d="M49.63,168c.57-.19,1.06-.38,1.62-.51A12.79,12.79,0,0,0,49.63,168Z"/><path class="cls-3" d="M41.06,195.64a19.18,19.18,0,0,0-3.1-3.56,2.53,2.53,0,0,0-2-.64,7.91,7.91,0,0,0-4.28,2c-.78.57-1.76,1-2.18,1.84-.57-.13-.92,0-1,.57-1.4,1.27-2.81,2.48-4.22,3.75a2.76,2.76,0,0,0-.7,1.34c-.14.44.07.51.49.57,3.66.19,7.31.38,10.9.51,1.76.06,3.59.13,5.34.25a32.4,32.4,0,0,1,4.29.26c.35.06.85.25,1.06-.19s-.21-.64-.35-.89C43.87,199.52,42.46,197.55,41.06,195.64Z"/><path class="cls-3" d="M147.85,177.07a19.24,19.24,0,0,0,1.34,5.28.24.24,0,0,1,.14.07c2.39-.39,4.78-.83,7.17-1.21,3.09-.45,6.19-.89,9.35-1.15,1.76-.12,3.59-.32,5.34-.57.64-.06,1.27-.13.64-1a12.86,12.86,0,0,1-2.25-7.63,32.87,32.87,0,0,0-.21-3.75c-.07-.51-.07-1.21-.85-1.27a18.54,18.54,0,0,0-3.16.06c-2.11.26-4.22.58-6.26.83-3.87.51-7.73,1.14-11.6,1.84-.77.13-1,.45-.84,1.15C147.08,172.18,147.36,174.59,147.85,177.07Z"/><path class="cls-3" d="M143.14,190.81a.57.57,0,0,0-.84-.26l-8,3.44a1.32,1.32,0,0,0-.91,1.33c.07,1,0,1.91,0,2.86h.07v2.74c0,1.33.07,1.46,1.62,1.4,4.92-.19,9.84-.38,14.76-.51.63,0,.63-.19.35-.64C147.85,197.74,145.53,194.31,143.14,190.81Z"/><path class="cls-3" d="M54.7,166.77h0c.7-.06,1.4-.12,2.11-.25C56.1,166.58,55.4,166.65,54.7,166.77Z"/><path class="cls-3" d="M253.73,196.09c-2.95-.58-5.76-1.4-8.65-2.1-2.67-.64-5.34-1.53-7.8-1.21-1.26,0-2.18-.06-3.09,0-2.39.19-3.24.64-3.45,2.42q-.31,2.19-.42,4.38c-.21,3.75.35,7.57-.42,11.32a.45.45,0,0,0,.14.57c.21.13.42-.06.63-.12a171,171,0,0,0,20.11-11.58,22.82,22.82,0,0,0,3.52-2.67C254.79,196.47,254.44,196.21,253.73,196.09Z"/><path class="cls-3" d="M255.28,189c-1.06.57-2.11,1.21-3.23,1.78-.71.38-.64.76.14,1,.49.19,1,.38,1.54.57a45.08,45.08,0,0,0,8.23,1.4c-1.48-1.47-2.95-2.93-4.43-4.45A1.69,1.69,0,0,0,255.28,189Z"/><path class="cls-3" d="M229.27,212.05a1.88,1.88,0,0,0-1.2.57A1.45,1.45,0,0,0,229.27,212.05Z"/><path class="cls-3" d="M187.79,206.7a56.14,56.14,0,0,1-6.33-1.9c-.35-.13-.56-.13-.56.31a2.55,2.55,0,0,0,.07.7c0,1.34.7,2.67.84,4.07.07.7.49.89,1.12.83a31.48,31.48,0,0,0,4.93-1,1.12,1.12,0,0,0,.91-1.33C188.7,207.72,188.7,207,187.79,206.7Z"/><path class="cls-3" d="M195,179.68a27.78,27.78,0,0,1,3.09,1.4c.7.38,1,.19,1.41-.25.84-1.09,1.61-2.1,2.46-3.18.28-.32.14-.51-.21-.64l-7.1-2.92a13.72,13.72,0,0,1-.5,3.87A1.29,1.29,0,0,0,195,179.68Z"/><path class="cls-3" d="M231.59,179.87c.42-.38.49-.76-.21-1a23,23,0,0,1-2.25-1c-5.7-2.48-11.32-5-17-7.37-.49-.19-1.05-.83-1.48-.45s.08,1,.29,1.53c1.75,3.5,2.88,7.18,4.36,10.75a40.18,40.18,0,0,0,1.68,3.94,3.29,3.29,0,0,0,3.31,1.78,4.74,4.74,0,0,0,2-.45c2.88-1.21,4.78-3.49,7-5.47C230,181.4,230.74,180.63,231.59,179.87Z"/><path class="cls-3" d="M181.18,175.36c-2.75,1.52-5.56,3.11-8.3,4.64-.28.19-.7.38,0,.63-.42,0-.84,0-.77.58-.28-.51-.64-.38-1.06-.13-6.32,3.56-12.65,7.06-18.84,10.81-.63.38-.63.64-.21,1.08,1.12,1.14,2.18,2.35,3.37,3.43,2.11,1.91,4.15,3.82,6.33,5.6,3.52,2.92,7.1,5.72,10.69,8.52.42.32.56.25.77-.19.35-.83.7-1.65,1.06-2.54,4.64-11.13,9.21-22.2,13.85-33.32.42-1,.77-2,1.19-3.12a5.15,5.15,0,0,0-2,.64C185.18,173.2,183.15,174.21,181.18,175.36Z"/><path class="cls-3" d="M211.62,200.41a14.09,14.09,0,0,0-1.83-3.12h0a8.73,8.73,0,0,0-2.32-3.81,1.83,1.83,0,0,0-1.55-.51c-.7.06-1.47.13-2.17.25-2.68.45-5.35.7-7.95,1.4a15.14,15.14,0,0,1-2.46.19c-.56.07-.91.19-.63.89a123.38,123.38,0,0,1,4.22,11.83c.21.76.56.89,1.26.64,1.69-.45,3.45-.89,5.2-1.27a78.77,78.77,0,0,1,10.2-1.85c.42-.06.7-.19.42-.63A30.08,30.08,0,0,1,211.62,200.41Z"/><path class="cls-25" d="M292.68,185.47a15.82,15.82,0,0,0-5.55-5.41,53.13,53.13,0,0,0-8.51-4.32,124.71,124.71,0,0,0-15.47-5C257.46,169.25,251.76,168,246,167a.29.29,0,0,1-.21-.06c-4.78-.89-9.56-1.59-14.34-2.29-1.69-.25-3.31-.44-5-.63-3.93-.45-7.87-1-11.81-1.4-2.95-.32-5.9-.51-8.93-.77-4.07-.38-8.08-.7-12.16-.89-2.74-.12-5.48-.38-8.23-.51a1,1,0,0,1-.91-.57c0,.26,0,.57-.49.51-2-.32-4.08.13-6.12-.32-4.71-.12-9.35-.31-14.06-.38-1.83-.06-3.73-.13-5.55-.13-6.61,0-13.22-.06-19.76,0-2.74.07-5.48.07-8.15.2-3.38.12-6.68.19-10.06.38-4.5.19-9,.44-13.5.7-1.33.06-2.67.25-4.07.38h-.05c-.83.12-1.67.21-2.51.28a5.55,5.55,0,0,1-.82.06l-1.13.07h0c-2.49.31-5,.5-7.54.69-2.18.13-4.29.38-6.4.57-2.46.26-4.85.51-7.24.83L68,164.8c-1.89.26-3.79.57-5.76.89a.26.26,0,0,1-.21.07c-6.26,1.27-12.8,2.16-19,3.56h-.29A138.67,138.67,0,0,0,21,175.87c-4.43,1.84-8.65,3.94-12,7.24C6.68,185.4,5.76,188,6.68,191c.7,2.42,2.74,4.13,4.78,5.66a52,52,0,0,0,12.93,6.48c4.22,1.53,8.51,2.8,12.8,4C43,208.61,49,209.88,55,210.9c4,.7,8,1.34,12.09,2,2.88.45,5.84.77,8.72,1.15,2.18.25,4.36.57,6.61.76,2.46.25,4.85.57,7.31.7.35,0,.7-.13,1,.19h1c.35,0,.7-.13,1,.19h1c.35,0,.7-.13,1,.19h1.2c.35,0,.7-.13,1,.19H98c.43.07.85-.13,1.2.19h1.2c.42.07.84-.12,1.19.19h1.2c.42.07.84-.12,1.19.19h1.41c.49.07,1-.12,1.4.2h1.62c.42.06.84-.13,1.2.19h1.82c.5.06,1-.13,1.41.19h1.83c.63.06,1.26-.19,1.83.19h2c.64.06,1.27-.19,1.83.19h2.39c.63.06,1.34-.19,2,.19h3a8.4,8.4,0,0,1,2.82.19h3.79a18.64,18.64,0,0,1,4.22.19H162c.14-.06.28-.06.43-.13a35.82,35.82,0,0,1,3.72-.06h3.8a8.34,8.34,0,0,1,2.81-.19h3a5.34,5.34,0,0,1,2-.19h2.39c.56-.32,1.2-.13,1.83-.19h2c.56-.32,1.19-.13,1.83-.19h1.82c.43-.32.92-.13,1.41-.19h1.83c.35-.32.77-.13,1.19-.2h1.62c.42-.31.92-.12,1.41-.19h1.4c.36-.31.78-.12,1.2-.19h1.19c.36-.31.78-.12,1.2-.19h1.19c.36-.32.78-.12,1.2-.19h1.19c.29-.25.64-.13,1-.19h1.19c.29-.25.64-.13,1-.19h1c.28-.25.64-.13,1-.19h1c.28-.25.63-.13,1-.19H212c3.87-.45,7.73-.76,11.6-1.27,4.29-.57,8.58-1.15,12.8-1.78s8.72-1.4,13.07-2.23c5.35-1.08,10.69-2.22,15.89-3.69,6.89-1.9,13.64-4.07,19.83-7.5,2.88-1.59,5.55-3.37,7.38-6C293.88,190.49,294.16,188,292.68,185.47Zm-247,16.85c-.28.38-.71.25-1.06.19a31.69,31.69,0,0,0-4.29-.26c-1.75-.12-3.58-.19-5.34-.25-3.66-.13-7.31-.32-10.9-.51-.42,0-.63-.13-.49-.57a2.53,2.53,0,0,1,.7-1.34c.92-.76,1.83-1.59,2.75-2.41,2.32-2,5.48-5.41,9-5.66a2.49,2.49,0,0,1,2,.63,19.86,19.86,0,0,1,3.1,3.56c1.4,1.91,2.81,3.88,4.22,5.79C45.42,201.68,45.84,201.94,45.63,202.32Zm101.8-33.77c3.87-.7,7.73-1.33,11.6-1.84,2.11-.25,4.15-.64,6.26-.83a18.54,18.54,0,0,1,3.16-.06c.77.06.77.76.85,1.27a22.47,22.47,0,0,1,.21,3.75,12.39,12.39,0,0,0,2.25,7.63c.63.89-.07,1-.64,1l-5.34.57c-3.16.26-6.26.7-9.35,1.15-2.39.38-4.78.76-7.17,1.21a.24.24,0,0,1-.14-.07,19.24,19.24,0,0,1-1.34-5.28c-.49-2.41-.77-4.89-1.19-7.37C146.52,169,146.73,168.68,147.43,168.55Zm-80.29,28c-1-.06-2.11-.06-3.16-.13s-1.34-.44-1.34-1.33a77.62,77.62,0,0,1,.42-8c2.32,3.05,4.64,6,7,9.22A18,18,0,0,1,67.14,196.53Zm61.17,4.77c-.07.19-.28.13-.43.13a23.06,23.06,0,0,1-2.88,0,45.4,45.4,0,0,0-6.61-.13,29.29,29.29,0,0,1-5.83-.89c-.78-.13-1.55-.25-2.46-.45a6.31,6.31,0,0,0,1.9,1.66c4.35,2.92,8.92,5.53,13.42,8.26.22.13.71.19.64.51s-.57.26-.85.32c-4.36.83-8.71,1.65-12.93,2.86-2,.51-3.87.19-5.84.19-1.62,0-3.23-.19-4.85-.32-1.41-.12-2.74-.25-4.15-.31a1.53,1.53,0,0,1-1-.45c-2.46-2.22-5-4.45-7.38-6.74-1.2-1.14-2.25-2.41-3.59-3.56-.56-.51-.28-.7.28-.95a107.66,107.66,0,0,1,11.74-4.71,2.43,2.43,0,0,1,.42-.19,3.64,3.64,0,0,0-1.47-.76c-4.92-2.16-9.85-4.39-14.84-6.55-1.61-.7-3.3-1.4-4.92-2.16-.56-.26-1.12-.58-1.69-.89a2.64,2.64,0,0,0-.49-.19c-.77-.32-1.61-.58-2.39-.89-4.57-2-9.07-4-13.64-6a6.89,6.89,0,0,1-2-1,31.79,31.79,0,0,1,3.24-.63c4.5-.64,9-1.28,13.57-1.78,3.37-.39,6.75-.64,10-1,6.33-.57,12.59-.51,18.91-.57a4.77,4.77,0,0,1,4.36,2.16c3.38,4.83,6.89,9.48,10.76,14a83.65,83.65,0,0,0,6.26,6.68,51.59,51.59,0,0,0,4.43,4.07C128.17,201.05,128.38,201.11,128.31,201.3Zm2-17.1a29.84,29.84,0,0,1-2.68,3.05,2.27,2.27,0,0,1-3.51-.07,38.44,38.44,0,0,1-3.87-5c-1.12-1.59-2.11-3.24-3.23-4.89a12.68,12.68,0,0,0-1.48-1.65l24.12-1.15c-.14.38-.57.57-.78.76A82.74,82.74,0,0,0,130.35,184.2ZM188,174.53c-4.57,11.13-9.21,22.19-13.85,33.32-.36.83-.71,1.65-1.06,2.54-.14.38-.35.51-.77.19-3.59-2.79-7.17-5.59-10.69-8.52-2.18-1.84-4.29-3.75-6.33-5.59-1.19-1.08-2.25-2.29-3.37-3.44-.42-.44-.42-.7.21-1.08,6.19-3.75,12.59-7.25,18.84-10.81.42-.25.78-.38,1.06.13-.07-.57.42-.51.77-.57-.7-.26-.28-.45,0-.64,2.74-1.59,5.55-3.11,8.3-4.64,2-1.14,4.07-2.16,6-3.31a7.81,7.81,0,0,1,2-.63C188.77,172.5,188.42,173.51,188,174.53Zm25.59,30.52a69.75,69.75,0,0,0-10.2,1.85c-1.75.38-3.44.82-5.2,1.27-.77.19-1.05.12-1.26-.64a123.38,123.38,0,0,0-4.22-11.83c-.28-.7.07-.82.63-.89a9.94,9.94,0,0,0,2.46-.19c2.6-.7,5.27-1,7.95-1.4.7-.12,1.47-.19,2.17-.25a2,2,0,0,1,1.55.51,8.73,8.73,0,0,1,2.32,3.81,18.08,18.08,0,0,1,1.83,3.12,30.08,30.08,0,0,0,2.39,4C214.36,204.92,214,205.05,213.59,205.05Zm14.48,7.57a2.05,2.05,0,0,1,1.2-.57A1.45,1.45,0,0,1,228.07,212.62Zm1.06-30.52c-2.11,2-4,4.32-6.89,5.53a4.33,4.33,0,0,1-2,.44,3.26,3.26,0,0,1-3.31-1.78,29,29,0,0,1-1.69-3.94c-1.47-3.56-2.67-7.25-4.35-10.74-.21-.45-.64-1.15-.29-1.53s1,.19,1.48.44l17,7.38c.77.32,1.47.64,2.24.95s.64.58.22,1C230.74,180.57,230,181.4,229.13,182.1Zm25,15a17.29,17.29,0,0,1-3.51,2.67,165.54,165.54,0,0,1-20.11,11.58c-.21.12-.35.31-.63.12s-.14-.38-.14-.57c.77-3.75.21-7.57.42-11.32q.1-2.19.42-4.38c.28-1.78,1.13-2.17,3.45-2.42.91-.06,1.82,0,3.09,0,2.46-.32,5.13.51,7.8,1.21,2.89.7,5.7,1.52,8.65,2.1C254.44,196.21,254.79,196.47,254.15,197.1Zm-.35-4.64c-.56-.19-1.05-.38-1.54-.57-.78-.26-.85-.64-.14-1,1-.63,2.1-1.21,3.23-1.78a1.81,1.81,0,0,1,2.32.32c1.48,1.53,2.95,3,4.43,4.45A42.17,42.17,0,0,1,253.8,192.46Z"/><path class="cls-18" d="M143.8,190.81c-.19-.32-.38-.45-.77-.26L135.79,194a1.31,1.31,0,0,0-.83,1.33c.06,1,0,1.91,0,2.86H135v2.74c0,1.33.07,1.46,1.46,1.4,4.46-.19,8.91-.38,13.36-.51.57,0,.57-.19.32-.64C148.06,197.74,146,194.31,143.8,190.81Z"/><path class="cls-18" d="M70.93,195.07c0,.89.38,1.27,1.21,1.33s1.9.13,2.86.13a10,10,0,0,0,2.67-.32c-2.16-3.11-4.26-6.16-6.36-9.22C71.12,189.79,70.87,192.4,70.93,195.07Z"/><path class="cls-18" d="M193.06,179.68a23.59,23.59,0,0,1,2.8,1.4c.64.38.89.19,1.27-.25.76-1.09,1.46-2.1,2.23-3.18.25-.32.12-.51-.19-.64l-6.43-2.92a15,15,0,0,1-.44,3.87A1.32,1.32,0,0,0,193.06,179.68Z"/><path class="cls-18" d="M186.68,206.7a46.75,46.75,0,0,1-5.72-1.9c-.32-.13-.51-.13-.51.31a3,3,0,0,0,.06.7c0,1.34.64,2.67.77,4.07a.8.8,0,0,0,1,.83,25.87,25.87,0,0,0,4.45-1,1.12,1.12,0,0,0,.83-1.33C187.51,207.72,187.51,207,186.68,206.7Z"/><path class="cls-25" d="M104.5,180.76c-7.12,1.46-14.18,2.86-21.3,4.33-.83.19-.44,1.39.32,1.2,7.12-1.46,14.18-2.86,21.3-4.32A.63.63,0,1,0,104.5,180.76Z"/><path class="cls-25" d="M108.57,187.76c-2,.44-4,.82-6,1.27a24.9,24.9,0,0,0-5.72,1.46c-.77.32-.13,1.4.63,1.08a14.75,14.75,0,0,1,2.74-.76c.95-.19,2-.38,2.92-.64,2-.38,3.88-.82,5.85-1.21C109.72,188.77,109.33,187.57,108.57,187.76Z"/><path class="cls-25" d="M128.54,180.38c-.13-.13-.19-.25-.32-.32s-.06-.12-.13-.19v-.06l-.06-.07a5,5,0,0,1-.51-.76c-.13-.25-.32-.51-.45-.76l-.19-.38h0c0-.07,0-.07-.06-.13s-.06-.13-.06-.25c-.13-.32-.45-.58-.77-.45s-.57.45-.44.76a11.12,11.12,0,0,0,2.1,3.44.62.62,0,0,0,.89,0A.55.55,0,0,0,128.54,180.38Z"/><path class="cls-25" d="M39.13,198c-1.27-.7-2.48-1.33-3.75-2a.65.65,0,1,0-.64,1.14l3.76,2a.66.66,0,0,0,.63-1.15Z"/><path class="cls-25" d="M50.2,195.58a16,16,0,0,0-3.05-1.4.6.6,0,0,0-.76.44.62.62,0,0,0,.44.77c.25.06.51.19.76.25s.19.06.32.13a.26.26,0,0,1,.13.06c.06,0,.13.07.19.07.44.19,1,.44,1.4.69a.63.63,0,0,0,.89-.25A.7.7,0,0,0,50.2,195.58Z"/><path class="cls-25" d="M118.36,207.47c-2.22,0-4.51,0-6.74.06h-.44a2.81,2.81,0,0,1-.13-.57,13.43,13.43,0,0,1-.25-1.65c-.19-1.09-.26-2.23-.38-3.31-.07-.83-1.34-.83-1.28,0,.07,1.27.26,2.54.45,3.81a15.44,15.44,0,0,0,.32,1.78c.12.51.25,1,.82,1.15a8.15,8.15,0,0,0,1.78,0h5.92C119.19,208.74,119.19,207.47,118.36,207.47Z"/><path class="cls-18" d="M160,172.56a3.88,3.88,0,0,0-.38-1.53c-.32-.51-.89-.38-1.4-.31l-7.38.95c-.06,0-.06,0-.12.06a.66.66,0,0,0-.77.77c.39,1.78.83,3.56,1.28,5.34a.59.59,0,0,0,.76.44c2.67-.44,5.4-.89,8.07-1.21a.69.69,0,0,0,.64-.82C160.52,175,160.27,173.77,160,172.56Zm-8.71.25,6.17-.76c.25-.06.51-.06.76-.13h.32a3.41,3.41,0,0,1,.13.51c.06.26.12.57.19.83.19.89.31,1.72.51,2.61-2.36.31-4.71.63-7.06,1C151.94,175.55,151.62,174.21,151.3,172.81Z"/><path class="cls-25" d="M167.83,196.66c-3.18-2.42-6.42-4.83-9.6-7.25-.64-.51-1.27.64-.64,1.08,3.18,2.42,6.43,4.83,9.61,7.25C167.83,198.25,168.47,197.17,167.83,196.66Z"/><path class="cls-25" d="M172,192.91a56.78,56.78,0,0,1-9.72-5.6c-.64-.51-1.28.64-.64,1.08a61.59,61.59,0,0,0,9.73,5.6C172.09,194.37,172.73,193.29,172,192.91Z"/><path class="cls-25" d="M169.8,187.5c-1.33-.82-2.67-1.65-4-2.54a.65.65,0,0,0-.89.25.64.64,0,0,0,.25.89c1.34.83,2.67,1.66,4,2.55a.66.66,0,0,0,.89-.26A.71.71,0,0,0,169.8,187.5Z"/><path class="cls-25" d="M176.1,187.31a21,21,0,0,0-3.88-2c-1.27-.7-2.16-1.91-3.63-2.29-.76-.26-1.14,1-.31,1.21,1.27.38,2.16,1.52,3.3,2.16a21,21,0,0,1,3.63,1.84C175.84,188.77,176.73,187.88,176.1,187.31Z"/><path class="cls-25" d="M171,198.76c-.19-.13-.32-.26-.51-.39s-.38-.19-.57-.31h-.26a.39.39,0,0,0-.25.06c-.07.06-.13.06-.19.19s-.07.13-.13.19a.76.76,0,0,0,.06.51l.13.13c.06.06.13.06.19.12a3.27,3.27,0,0,1,.57.32l.07.07a.58.58,0,0,0,.44.19.37.37,0,0,0,.26-.07c.06,0,.12-.06.19-.12a.62.62,0,0,0,.19-.45A.5.5,0,0,0,171,198.76Z"/><path class="cls-25" d="M178.9,178.35c-.58-.32-1.21-.7-1.78-1s-1.34.7-.64,1.08c.44.25,1,.57,1.4.83l.7.44c.06.06.19.06.25.13-.13.19-.32.44-.44.63l-.77,1-.7,1c-.12.19-.25.31-.38.5s-.12.13-.12.19-.13-.12-.19-.12-.32-.19-.51-.26l-1-.57a12.49,12.49,0,0,1-1.78-1.33.66.66,0,0,0-.89,0,.62.62,0,0,0,0,.89,20.33,20.33,0,0,0,3,2.09c.51.26,1.28.83,1.85.58a2,2,0,0,0,.57-.64,7.05,7.05,0,0,1,.64-.89,16.57,16.57,0,0,1,1.2-1.65,8,8,0,0,0,.58-.83,1.15,1.15,0,0,0,.31-.89C180.23,178.92,179.4,178.66,178.9,178.35Z"/><path class="cls-25" d="M205.3,195.18c-3.24.63-6.55,1.27-9.79,2-.83.19-.45,1.4.32,1.21,3.24-.76,6.48-1.4,9.79-2C206.45,196.26,206.13,195.05,205.3,195.18Z"/><path class="cls-25" d="M225.74,178.44a.64.64,0,0,0-.89.25,2.79,2.79,0,0,1-1.08,1c-.51.32-1.08.44-1.53.7a4.6,4.6,0,0,0-1.27,1.21,2.86,2.86,0,0,1-1.34.76c-.82.19-.44,1.4.32,1.21a3.79,3.79,0,0,0,1.72-.89c.44-.38.7-.89,1.27-1.21a16.25,16.25,0,0,0,1.65-.76,4.79,4.79,0,0,0,1.4-1.4A.69.69,0,0,0,225.74,178.44Z"/><path class="cls-25" d="M242.43,195.18c-1.34,0-2.61,0-3.94.07h-2a7.54,7.54,0,0,0-1.71.06,1.48,1.48,0,0,0-.89,1.21l-.38,1.91c-.26,1.27-.58,2.54-.83,3.88-.19.82,1.08,1.14,1.21.31.25-1.14.51-2.29.7-3.43.12-.57.25-1.08.38-1.65.06-.32.13-.58.19-.89s0-.19.25-.19c2.29-.07,4.65-.07,7-.07C243.25,196.46,243.25,195.18,242.43,195.18Z"/><path class="cls-3" d="M160.27,147.13a20.17,20.17,0,0,0-1.47-2.6c-.19-.32-.44-.64-.82-.64a3,3,0,0,0-1.34.51c-.83.44-1.65.89-2.54,1.33.32.64.63,1.34,1,2l.64,1.33c.12.26.25.83.57,1s1-.07,1.33-.13a10.71,10.71,0,0,0,1.47-.25,10.54,10.54,0,0,0,1.46-.26c.25-.06.51-.06.76-.12a.21.21,0,0,0,.19-.07c-.12-.25-.31-.57-.44-.82S160.52,147.58,160.27,147.13Z"/><path class="cls-3" d="M176.42,88.51a.68.68,0,0,1,.38.89,14.41,14.41,0,0,1,.32,1.59c.19-.13.44-.26.63-.38.64-.32,1.15-.58,1.21-1.4.19-1.91-2.86-4.77-4.71-3.63.07.07.07.13.13.19A7.84,7.84,0,0,1,176.42,88.51Z"/><path class="cls-3" d="M166.18,95.57c-.51.51-1.08,1-1.59,1.52-.26.32-.57.51-.32,1a.74.74,0,0,0,.32.31l.06-.06c.32-.25.64-.51,1-.83.13-.12.32-.25.45-.38l.19-.19.06-.06h0c.06-.07.06-.13.13-.19s.06-.07.06-.13h0c0-.06,0-.06.06-.13v-.25h0V96h0l-.06-.06h0l-.06-.07h0c-.07,0-.07-.06-.13-.06A.77.77,0,0,0,166.18,95.57Z"/><path class="cls-3" d="M195,93a27.44,27.44,0,0,0,5.92,1.84H201c1.66.38,3.31.7,4.9,1.08,5,1.15,9.85,2.36,14.81,3.5a3.86,3.86,0,0,0,1.72.32h.06C212,93.53,201,88.13,190.85,81.32c-2.54,2.29-5.15,4.52-7.69,6.81,3.81,1.59,7.69,3.18,11.5,4.83C194.73,92.9,194.86,93,195,93Z"/><path class="cls-3" d="M167.64,91.75a3,3,0,0,1-.38,1c.64-.32,1.21-.83,1.65-1.09,1.91-1.33,3.82-2.73,6.11-3.05a6.35,6.35,0,0,0-1.59-1.84,8.74,8.74,0,0,0-4,1.08,2.87,2.87,0,0,0-.83.64,3.86,3.86,0,0,1-.63.76L167,90A1.88,1.88,0,0,1,167.64,91.75Z"/><path class="cls-3" d="M170.5,162.27a24.51,24.51,0,0,1,5.47-2.42,19.75,19.75,0,0,1,3.24-.7,16.68,16.68,0,0,0,2.42-.38c-1.46-1.72-3-3.5-4.45-5.21-.76-.89-1.59-1.78-2.29-2.67-2.42,3-4.83,5.91-7.25,8.9A9.45,9.45,0,0,1,170.5,162.27Z"/><path class="cls-3" d="M165.54,92.83l.13-.12h0l.06-.07.13-.13.06-.06h0l.07-.06.06-.07.19-.38h0v-.06c0-.07.07-.13.07-.19v-.13h0v-.13h0v-.12h0v-.07a.06.06,0,0,0-.07-.06h0c-.06,0-.06-.06-.12-.13h0s-.07,0-.07-.06a.06.06,0,0,1-.06-.07h0c-.07,0-.13-.06-.19-.12a3.74,3.74,0,0,0-.45.57C165.16,91.81,165,92.51,165.54,92.83Z"/><path class="cls-3" d="M121.16,129.33l-1.27-3.05L118.55,123c-.06,3.75-.12,7.5-.31,11.25a32.08,32.08,0,0,1-.64,6c.7-1,1.46-1.84,2.16-2.8,1.08-1.4,2.55-3.05,2.35-5A8.79,8.79,0,0,0,121.16,129.33Z"/><path class="cls-3" d="M175.84,91.69v-.13a5.5,5.5,0,0,0-.31-1.78,8.7,8.7,0,0,0-4,1.59,38.31,38.31,0,0,1-3.69,2.48.53.53,0,0,1-.19.38c-.19.19-.38.32-.57.51a1.78,1.78,0,0,1,.76,1,2,2,0,0,1-.25,1.46,4,4,0,0,1-1,1.08c-.19.13-.31.25-.5.38a1.05,1.05,0,0,0,.5-.13,6,6,0,0,0,2-1.27l.06-.06a5,5,0,0,0,.83-.83,37.57,37.57,0,0,1,2.92-2.48C173.68,93.15,174.76,92.39,175.84,91.69Z"/><path class="cls-3" d="M226,101.8c-.13,0-.19.06-.32.06a10.63,10.63,0,0,0-1.39-.44c-2.1-.58-4.2-1.08-6.3-1.53-2.8-.64-5.6-1.27-8.33-1.91s-5.28-1.21-7.88-1.9h-.07a.6.6,0,0,1-.57.12,33.62,33.62,0,0,1-6.1-1.78.73.73,0,0,1-.32-.06L180.1,88.25a3.86,3.86,0,0,1-.06,1.91c-.44,1.27-1.84,1.72-2.92,2.29a40.61,40.61,0,0,0-5.66,4.13h0c-.19.39-.51.89-.39,1.34a2.36,2.36,0,0,0,.83,1c.83.58,1.65-.25,2.23-.82a23.68,23.68,0,0,1,4.64-3.69c.7-.45,1.33.7.63,1.08a22,22,0,0,0-3.05,2.22,21.27,21.27,0,0,1-2.54,2.29,2.09,2.09,0,0,0,1.72,1.78,2.69,2.69,0,0,0,1.59-.19c.12-.06,1.46-.89,1-1.08s-.7-.89-.12-1.14c2.92-1.27,5.65.38,7.94,2.1a16.68,16.68,0,0,0,4.07,2.41,11.18,11.18,0,0,0,4.07.7l1.34-.38a3.29,3.29,0,0,1,.82-.19,1.88,1.88,0,0,1,.83.25c.83.39,1.65.77,2.54,1.15a.41.41,0,0,1,.45.13c3.18,2.22,7.63,5.65,10.87,7.75,3.05,2,6.11,4.2,9.29,5.92,2.54,1.4,5.34,2,8.13.89a8.58,8.58,0,0,0,5.15-5.92,9.16,9.16,0,0,0-1.9-7.94A19.89,19.89,0,0,0,226,101.8Z"/><path class="cls-3" d="M162.81,90.23a9.35,9.35,0,0,0,1.08,1.52,3.93,3.93,0,0,1,1.4-2.22c-3.24-2.67-5.28-6.43-8.2-9.41A19.31,19.31,0,0,0,151,76a14.5,14.5,0,0,0-6.36-.89q5.25,3.91,10.5,8c2,1.53,3.94,3,5.84,4.58A7,7,0,0,1,162.81,90.23Z"/><path class="cls-3" d="M163.76,99.32a1.89,1.89,0,0,1-.32-2.86,25.46,25.46,0,0,1,2.29-2.23,2.17,2.17,0,0,1-.89-.32.49.49,0,0,1-.57-.12,18.45,18.45,0,0,1-1.59-1.47h-.06a43.44,43.44,0,0,1-8.2.45,15.06,15.06,0,0,1-1.78-.13,8.19,8.19,0,0,0,2.48,4.83c.69.64,1.52,1,2.22,1.66a3.31,3.31,0,0,1,1,2.22c.57,4.33,1,8.71,1.46,13,.7-1,1.34-2,2-3a.65.65,0,0,1,1.2.31c.19,3.82.32,7.57.38,11.39,0,1.65.07,3.24,0,4.89v.83c.51-3.5,1.4-6.93,1.85-10.49.89-6.43,1.27-12.91,2.92-19.21C166.81,100,165.16,100.4,163.76,99.32Z"/><path class="cls-3" d="M161.79,113.69c-1,1.52-2,3-3.11,4.64a36.93,36.93,0,0,1-3.69,5.21,5.72,5.72,0,0,1-1,.83.43.43,0,0,1-.13.25l-1.71,1.72-.77.76c-.12.13-.63.51-.7.7-.12.58,2.8,1.47,3.31,1.66a37.46,37.46,0,0,1,6.23,2.67c.51.32,1,.63,1.4,1,.25.19.32.26.45,0a2.15,2.15,0,0,0,.06-.89c0-1.33.06-2.61.06-3.94C162.17,123.35,162.05,118.52,161.79,113.69Z"/><path class="cls-3" d="M161.86,91.18c-.2-.38-.39-.76-.58-1.08-7.37-2.1-14.75-4.2-22.12-6.23a17,17,0,0,0,8.32,6.67,24.51,24.51,0,0,0,7.19,1A45.23,45.23,0,0,0,161.86,91.18Z"/><path class="cls-4" d="M161.92,147.45c-.51-.89-1-1.78-1.46-2.67a5.06,5.06,0,0,0-1.47-2,2.67,2.67,0,0,0-2.73.25c-.95.51-1.84,1-2.8,1.47a.68.68,0,0,0-.76.95c.44.89.83,1.78,1.27,2.67.19.45.38.83.57,1.27a5.1,5.1,0,0,0,.64,1.21c.63.76,1.52.57,2.35.45,1-.13,2-.32,3-.45l1.4-.19c.44-.06.83-.19,1-.64a1.51,1.51,0,0,0-.25-1.14A8.82,8.82,0,0,1,161.92,147.45Zm-.57,1.91c-.26.06-.51.06-.77.13a9.25,9.25,0,0,0-1.46.25,10.31,10.31,0,0,0-1.46.25,3.07,3.07,0,0,1-1.34.13c-.25-.13-.44-.7-.57-1l-.63-1.33c-.32-.64-.64-1.34-1-2,.83-.45,1.65-.89,2.54-1.34A3.15,3.15,0,0,1,158,144a1.06,1.06,0,0,1,.83.64c.51.83.95,1.72,1.46,2.61.25.44.51.89.76,1.4a8.65,8.65,0,0,1,.45.82C161.41,149.3,161.41,149.3,161.35,149.36Z"/><path class="cls-26" d="M168.34,99.13a5.31,5.31,0,0,1-2.73.76c-.07.06-.07.19-.07.32-.57,2-1.27,8.07-2.6,12.14-1.4,4.39.19,10.3-.07,14.88,0,.51.26,1.65.64,1.53.25-1.27.7-3.44,1-4.71.89-7.82,2.1-15.64,3.63-23.4.06-.19.12-.31.19-.51s.06-.57.12-.89A.19.19,0,0,0,168.34,99.13Z"/><path class="cls-26" d="M115,92.32a2.77,2.77,0,0,0-.89-2.09l-.38-.2-.13.13a4,4,0,0,0-.57,1.15,32.26,32.26,0,0,0-1.21,8.2c-.06,1-.12,2-.12,3h0c.06.13.12.26.25.26a3,3,0,0,0,1.08-1.09c.57-.82,1-1.71,1.53-2.54.32-.57.63-1.14,1-1.65A35.48,35.48,0,0,0,115,92.32Z"/><path class="cls-4" d="M234.66,109.11c-.83-2.86-2.93-5-5.28-6.68a90.7,90.7,0,0,0-8.65-5.27c-3-1.72-6-3.37-9-5.09-6.74-3.69-13.48-7.44-19.84-11.7L193.39,79a.66.66,0,0,0-.12-1,82.86,82.86,0,0,0-9.67-5.85c-3.37-1.91-6.74-3.88-10.24-5.6A53.72,53.72,0,0,0,163,63c-3.82-.95-7.57-1.91-11.38-2.86-1.08-.25-2.23-.57-3.37-.83a2.06,2.06,0,0,1-1.08-.44,1.59,1.59,0,0,1-.32-1.21c.06-2.29.13-4.58.19-6.87v-.12H147a.07.07,0,0,1-.07-.07h-.63a.07.07,0,0,0-.07.07c-.06,0-.06.06-.12.06l-.07.06-.06.07v.06c-.06.06-.06.13-.13.19v.13l-.19,5.85a4.63,4.63,0,0,0,.19,2.1,2.48,2.48,0,0,0,1.59,1.27c1.85.63,3.82,1,5.66,1.46,1.21.32,2.35.57,3.56.89a24,24,0,0,1-5.59,11.7.06.06,0,0,1-.07.06c-2.48-1-5.15-.82-7.76-.63-.63-.32-1.14.7-.5,1.14,1.46,1.08,2.92,2.16,4.32,3.25a9,9,0,0,1-4.64,1,.69.69,0,0,0-.64.63.64.64,0,0,0,.64.64,9.69,9.69,0,0,0,5.47-1.27c.06-.06.19-.13.19-.19,2.16,1.65,4.38,3.37,6.55,5,1.78,1.4,3.62,2.67,5.27,4.13-7.24-2-14.49-4.07-21.81-6.16a.92.92,0,0,0-.76,1.2,19.34,19.34,0,0,0,9.6,8.27,19.83,19.83,0,0,0,4.39,1,10.06,10.06,0,0,0,1.84,4.77A8.54,8.54,0,0,0,155,99.13c.89.63,1.78,1,2,2.16.38,2.35.57,4.77.83,7.18s.57,5,.82,7.51V116c-1.14,1.72-2.29,3.43-3.43,5.09-1,1.4-2,2.6-3.82,2.8s-3.81,0-5.72,0H133.81c-1.9,0-3.81-.07-5.72.12a8.85,8.85,0,0,1-2.61.19c-.89-.25-.82-1.2-.76-2,.19-2.16.7-4.32,1.08-6.42s1-4.45,1.53-6.68c.19-.76-1-1.14-1.21-.31a129.22,129.22,0,0,0-2.61,12.84c-.19,1.34-.19,3,1.28,3.69a4.86,4.86,0,0,0,2.54.06,27.08,27.08,0,0,1,3.24-.19c4.39-.06,8.78,0,13.16,0,2.23,0,4.45.06,6.68,0a4.44,4.44,0,0,0,.89-.06l-.25.25a13.12,13.12,0,0,0-1.59,1.65c-.77,1,0,1.91.95,2.36,1.84.82,3.75,1.46,5.66,2.22-10.87.77-21.81-.19-32.75.57a9.77,9.77,0,0,0-.7-2.35c-.44-1.14-1-2.35-1.4-3.5-.89-2.22-1.78-4.38-2.67-6.61v-9.41a.64.64,0,0,0-1.27,0v9.22a.58.58,0,0,0,0,.45c0,3.43-.06,6.8-.19,10.23a58.69,58.69,0,0,1-.63,9.48,11.64,11.64,0,0,1-3.12,6.36c-.06.06-.19.12-.25.19s-.32.31-.51.44c-2.29,1.72-5.73,2-8.46,1.46a8.51,8.51,0,0,1-6.23-4.64c-1.4-2.67-1.59-5.72-1.59-8.64,0-3.31.13-6.55.25-9.86.32-7.19.83-14.37,1.66-21.49,2.16.19,4.32.51,6.48.63a38.46,38.46,0,0,0,6.68-.44c-2.48,4.7-4.83,9.54-6.93,14.43-1.46,3.44-2.86,6.87-4.13,10.43-.26.76,1,1.08,1.2.32q3.26-9,7.38-17.55c1.33-2.8,2.8-5.6,4.26-8.39a68.22,68.22,0,0,1,4.26-7.19A13.61,13.61,0,0,1,124,90.48c.77-.25.45-1.46-.32-1.21-5.21,1.65-8.13,6.74-10.61,11.26-.32.57-.64,1.14-1,1.78a4.05,4.05,0,0,1-.82.19c-.26,0-.51.06-.64.06a10.13,10.13,0,0,1-1.34.13c-.89.06-1.78.19-2.73.19a38,38,0,0,1-5.4-.26c-3.12-.31-6.3-.76-9.42-.25,1.28-4.51,2.55-9,4-13.48a81.08,81.08,0,0,1,5.53-13.73c2.29-4.14,7.06-6.11,11.32-7.63,3-1.09,6-1.91,9-2.93A34.42,34.42,0,0,0,130.19,78a.63.63,0,0,0,.89-.89,32,32,0,0,1-8.27-12.91c.89-.32,1.85-.64,2.74-1,1.91-.82,4.64-1.71,5.21-4a15.82,15.82,0,0,0,.19-3.88c0-1.47-.06-3-.12-4.45-.07-.83-1.34-.83-1.28,0a49.49,49.49,0,0,1,.07,7.5,3.11,3.11,0,0,1-1.91,2.42,31.43,31.43,0,0,1-3.24,1.46c-4.26,1.65-8.65,2.73-12.91,4.32-4,1.46-8.46,3.44-10.87,7.12a38,38,0,0,0-3,6.36c-1,2.29-1.78,4.64-2.61,7-1.78,5.27-3.31,10.61-4.83,16a.61.61,0,0,0,.76.76,19.84,19.84,0,0,1,5.79-.38c-.77,6.87-1.34,13.74-1.59,20.67-.13,3.49-.26,7-.26,10.49a21.5,21.5,0,0,0,1.59,9.15,9.91,9.91,0,0,0,5.54,5.22,14.25,14.25,0,0,0,8.9,0l.89-.38a58.52,58.52,0,0,0-4.26,12c0,.11,0,.22,0,.35s0,.05,0,.07a.85.85,0,0,0,0,.17.78.78,0,0,0,0,.14s0,0,0,.05l0,.06,0,0,0,0,0,0c-.08-.05,0,0,0,0h.21l.08,0h.08l.15,0,0,0,.09-.05,0,0,0,0a57.5,57.5,0,0,1,5.34-14.2,10.43,10.43,0,0,0,2.29-3.18l.19-.19c1.46-1.91,2.92-3.82,4.39-5.79a10.29,10.29,0,0,0,2.35-4.38c11.51-.77,23.08.31,34.53-.7a.6.6,0,0,0,.38-.19c.57.31,1.14.57,1.71,1a5.4,5.4,0,0,0,1.53.95c1,.26,1.53-.57,1.65-1.4.07.2.07.45.13.64a13.18,13.18,0,0,0,2.48,4.39c1.81,2.67,3.61,5.33,5.34,8a27.4,27.4,0,0,1,2.54,5.08,56.24,56.24,0,0,1,2.11,8.53c.17.82,1.44.47,1.27-.35a55,55,0,0,0-2.22-8.8,29.46,29.46,0,0,0-4.11-7.23,4.63,4.63,0,0,1-.48-.76l-.83-1.21-1.59-2.35a37.6,37.6,0,0,1-2.79-4.26,9,9,0,0,1-.51-5.21c.38-3.44,1.33-6.74,1.78-10.18s.83-6.67,1.21-10a76.27,76.27,0,0,1,2.22-11.32,2.56,2.56,0,0,0,.64,1.15,2.9,2.9,0,0,0,2.1,1,3.54,3.54,0,0,0,4.38,2.67,3.39,3.39,0,0,0,2.36-1.66,1.42,1.42,0,0,0,.06-1.14c2.67-.57,5.21,1.91,7.25,3.3a13.38,13.38,0,0,0,4.26,1.91,14.74,14.74,0,0,0,2.35.38c1.21.07,2.35-.82,3.5-.31a20.24,20.24,0,0,1,3.37,1.65c.89.63,1.78,1.27,2.67,2,1.84,1.4,3.75,2.73,5.66,4.07.44.32.89.57,1.33.89,3,2,5.92,3.94,9,5.79,2.54,1.52,5.34,2.54,8.26,2a10.08,10.08,0,0,0,6.62-4.52A9.75,9.75,0,0,0,234.66,109.11ZM119.83,137.47c-.7.95-1.47,1.84-2.17,2.8a46.47,46.47,0,0,0,.64-6c.19-3.76.25-7.51.32-11.26l1.33,3.24,1.27,3.06a13.91,13.91,0,0,1,1.09,3.18C122.37,134.42,120.91,136.07,119.83,137.47ZM222.51,99.7a4.15,4.15,0,0,1-1.78-.32c-5-1.14-9.85-2.35-14.81-3.5-2.54-.57-5.15-1.08-7.69-1.78a63.76,63.76,0,0,1-7.51-2.79c-2.54-1.08-5-2.1-7.56-3.18,2.54-2.29,5.15-4.52,7.69-6.81C201,88.13,212,93.47,222.51,99.7ZM157.85,63a4.16,4.16,0,0,0,1.27.38,84.47,84.47,0,0,1,11.26,3.25,94.65,94.65,0,0,1,10.68,5.65,117.74,117.74,0,0,1,10.81,6.36c-3.37,2.93-6.68,5.92-10.05,8.84-.83-.38-1.72-.7-2.54-1.08-1.53-2-4.84-3.5-6.62-1v.07a10.22,10.22,0,0,0-3.75,1.14,7.54,7.54,0,0,0-.95.64,4.37,4.37,0,0,0-.7.89,3.86,3.86,0,0,1-.76.63c-3.69-2.79-5.79-7.18-9.16-10.3A19.21,19.21,0,0,0,152.13,75,25.84,25.84,0,0,0,157.85,63Zm16.53,22.83c0-.07-.06-.13-.13-.19,1.78-1.15,4.9,1.71,4.71,3.62-.06.76-.57,1-1.21,1.4-.19.13-.44.25-.63.38a10.41,10.41,0,0,0-.26-1.33l-.19-.58c-.06-.12-.06-.19-.13-.31s-.12-.19-.19-.32v-.07A7.21,7.21,0,0,0,174.38,85.84ZM167.07,90a9,9,0,0,0,1-.76,6.15,6.15,0,0,0,.64-.76,1.64,1.64,0,0,1,.83-.64,8.79,8.79,0,0,1,4-1.08,6.24,6.24,0,0,1,1.59,1.85c-2.29.31-4.26,1.78-6.1,3a9.55,9.55,0,0,1-1.66,1.08,3,3,0,0,0,.38-1A2.07,2.07,0,0,0,167.07,90Zm-.93.88h0a.05.05,0,0,0,0,0,.31.31,0,0,0,.19.13s0,.07.06.07v.44c0,.06-.06.13-.06.19v.07l-.19.38-.06.06-.07.06-.06.07-.13.12-.06.07-.13.13c-.51-.32-.38-1-.13-1.53.13-.19.32-.38.45-.57C165.93,90.78,166,90.85,166.14,90.91Zm0,4.66.19.19c.06,0,.06.06.13.06l.06.06.06.07v.38c0,.06,0,.06-.06.13s-.06.06-.06.12-.07.13-.13.19l-.06.07-.19.19a3,3,0,0,1-.45.38c-.32.25-.64.51-1,.83l-.06.06a.71.71,0,0,1-.32-.32c-.25-.44.06-.7.32-1C165.1,96.58,165.67,96.08,166.18,95.57ZM155.24,83.1q-5.15-4-10.49-8a14.54,14.54,0,0,1,6.36.89,20,20,0,0,1,6.1,4.14c2.93,3,5,6.74,8.21,9.41a3.76,3.76,0,0,0-1.4,2.22,4.91,4.91,0,0,1-1.08-1.52,8.07,8.07,0,0,0-1.78-2.55C159.18,86.09,157.15,84.63,155.24,83.1Zm-7.76,7.44a16.53,16.53,0,0,1-8.32-6.67Q150.22,87,161.28,90.1c.19.38.38.7.58,1.08a45.23,45.23,0,0,1-7.19.38A24.84,24.84,0,0,1,147.48,90.54ZM162.05,133c-.13.25-.19.19-.45,0-.51-.32-.95-.64-1.4-1a45.62,45.62,0,0,0-6.23-2.67c-.51-.19-3.5-1.08-3.31-1.65a2.59,2.59,0,0,1,.7-.7l.77-.76,1.71-1.72a.43.43,0,0,0,.13-.25,6.84,6.84,0,0,0,1-.83,38.12,38.12,0,0,0,3.69-5.21c1-1.53,2-3.06,3.11-4.65.26,4.84.32,9.67.32,14.5,0,1.34,0,2.61-.06,3.94A1.72,1.72,0,0,1,162.05,133Zm3.24-14.63c-.45,3.5-1.4,6.93-1.85,10.49v-5.72c-.06-3.81-.19-7.56-.38-11.38a.65.65,0,0,0-1.2-.32c-.7,1-1.34,2-2,3.05-.51-4.32-.95-8.71-1.46-13a3.22,3.22,0,0,0-1-2.23c-.7-.57-1.53-1-2.22-1.65a8.22,8.22,0,0,1-2.48-4.83c.57.06,1.2.06,1.78.13a35.56,35.56,0,0,0,4.51-.07l1.91-.19c.32-.06.63-.06.95-.13.13,0,.32-.06.45-.06s.31-.06.44-.06.07.06.13.06c.19.19.32.38.51.57a.65.65,0,0,0,.25.19,5.8,5.8,0,0,0,1.08.64c.19.06.38.19.57.25s.2.07.26.13.19.06.32.06c-.38.39-.83.7-1.21,1.09s-.76.76-1.08,1.14a1.83,1.83,0,0,0,.32,2.86c1.39,1.08,3,.7,4.45-.06C166.56,105.49,166.12,112,165.29,118.39Zm4.45-22c-.25.26-.57.51-.83.83l-.06.06a4.89,4.89,0,0,1-2,1.27c-.19.07-.38.07-.5.13.19-.13.31-.25.5-.38a4,4,0,0,0,1-1.08,2,2,0,0,0,.25-1.46,1.39,1.39,0,0,0-.76-1c.13.06.44-.45.51-.51a10.75,10.75,0,0,1,2.16-1.65c.32-.19.57-.45.89-.64a5.29,5.29,0,0,0,.89-.57,10,10,0,0,1,4-1.59,8.52,8.52,0,0,1,.31,1.78v.13a30.85,30.85,0,0,0-3.24,2.22A20.57,20.57,0,0,0,169.74,96.39Zm63.84,17.68a8.44,8.44,0,0,1-5.15,5.91c-2.8,1.15-5.6.51-8.14-.89-3.18-1.78-6.23-3.94-9.28-5.91s-6.87-4.9-10-7.12a14.43,14.43,0,0,1-1.65-.89c-.76-.32-1.46-.7-2.23-1a1.72,1.72,0,0,0-.82-.25,3.55,3.55,0,0,0-.83.19l-1.33.38a12.84,12.84,0,0,1-4.07-.7,16.05,16.05,0,0,1-4.07-2.42c-2.29-1.71-5-3.37-8-2.1-.57.26-.26,1,.13,1.15s-.89,1-1,1.08a2.75,2.75,0,0,1-1.59.19,2.1,2.1,0,0,1-1.72-1.78,14.4,14.4,0,0,0,2.55-2.29,20,20,0,0,1,3.05-2.22c.7-.45.06-1.53-.64-1.09A21.9,21.9,0,0,0,174.19,98c-.57.57-1.4,1.4-2.23.83a2.06,2.06,0,0,1-.82-1c-.13-.45.19-1,.38-1.34a35,35,0,0,1,5.66-4.13c1.08-.64,2.48-1,2.92-2.29a4,4,0,0,0,.07-1.91A7.81,7.81,0,0,0,182,89c.64.26,1.27.51,2,.83,1.27.51,2.61,1.08,3.88,1.59,2.54,1.08,5,2.16,7.63,3.12a29,29,0,0,0,3.12,1c.95.19,2,.32,3,.51,1.27.19,2.54.57,3.87.89s2.87.64,4.26,1c2.8.63,5.6,1.27,8.33,1.91,1.53.38,3,.7,4.52,1.08a12.81,12.81,0,0,1,4.13,1.21,5.23,5.23,0,0,0,.83.5c.51.32,1.08.7,1.59,1.09s1,.69,1.4,1.14c.19.19.44.38.63.57s.57.51.57.64A9.66,9.66,0,0,1,233.58,114.07Z"/><path class="cls-18" d="M197.78,93.34c-.83-.19-1.14,1.08-.32,1.21,2.8.57,3.44,3.75,3.37,6.17a6.68,6.68,0,0,1-.82,3.68,2.69,2.69,0,0,1-1.28,1.09,2,2,0,0,1-.82.19h-.32c-.19-.07-.32-.19-.25,0-.07-.83-1.34-.83-1.28,0,.07,1.78,2.67,1.33,3.69.76,1.59-.89,2.16-2.67,2.35-4.39C202.36,98.81,201.72,94.1,197.78,93.34Z"/><path class="cls-4" d="M140.17,43.36a.6.6,0,0,0-.76-.44,1.41,1.41,0,0,1-1.34-.07c-.44-.38-.25-1.08-.12-1.52a13.5,13.5,0,0,0,.32-4.77c-.07-.32-.26-.64-.64-.64s-.7.32-.64.64a14.4,14.4,0,0,1,.07,2.86c-.07.89-.45,1.78-.45,2.67a2.07,2.07,0,0,0,1.08,2,2.84,2.84,0,0,0,2.16.13A.76.76,0,0,0,140.17,43.36Z"/><path class="cls-4" d="M148.06,30.2c-.13.51-2.74-.06-3.12-.19a6,6,0,0,0-3,.13c-.7.13-1-.07-.76-.89.06-.32.7-.45.95-.51a12.58,12.58,0,0,1,1.47-.26,3,3,0,0,1,1.27.2C145.26,28.74,148.12,29.69,148.06,30.2Z"/></g></svg>