<svg xmlns="http://www.w3.org/2000/svg" width="50" height="50" viewBox="0 0 50 50"><defs><style>.cls-1,.cls-2{fill:#fff;}.cls-1{opacity:0;}.cls-3{fill:#444;}.cls-4{fill:#fb0;}</style></defs><title>2pt_icons_36x36px</title><g id="Layer_18" data-name="Layer 18"><rect class="cls-1" x="-0.13" y="-0.13" width="50.26" height="50.26"/><path class="cls-2" d="M34.05,23.19a1.61,1.61,0,0,0-1-.31c-.74-.05-1.33.5-2.05.57h0A2.6,2.6,0,0,0,29.45,23a1.72,1.72,0,0,0-1.47.67,1.86,1.86,0,0,0,.23,1.73,5.3,5.3,0,0,0,1.08,1.41,8.06,8.06,0,0,0,1.48,1.11,1,1,0,0,0,.33.15.56.56,0,0,0,.39-.13,9.64,9.64,0,0,0,.84-.58,4.37,4.37,0,0,0,2-3.22A1.21,1.21,0,0,0,34.05,23.19Z"/><path class="cls-3" d="M23.49,13.33c.06,0,0,0,0,0Z"/><path class="cls-2" d="M33.86,25.41a7.56,7.56,0,0,1-1,1,4.94,4.94,0,0,1-.79.66c-.29.19-.55.55-.94.55s-.69-.36-1-.55a7.27,7.27,0,0,1-.79-.66c-.26-.23-.81-.54-1-.87a2,2,0,0,1-.49-1.37,1.6,1.6,0,0,1,1.38-1.09,2.47,2.47,0,0,1,.61,0,4.7,4.7,0,0,1,.45.17c.28.11.34.4.61.51a.48.48,0,0,0,.37,0c.13-.06.23-.15.35-.22a2.69,2.69,0,0,1,.66-.32,3,3,0,0,1,.72-.09A1.1,1.1,0,0,1,34.1,24,2,2,0,0,1,33.86,25.41Z"/><path class="cls-3" d="M19.88,13.88l0-.22s0-.09-.05-.12a.29.29,0,0,0-.06-.11.61.61,0,0,0-.12-.16h0a.67.67,0,0,0-.17-.13.61.61,0,0,0-.3-.09L19,13l-.21,0h0l-.18.07h0l-.14.1-.2,0A5,5,0,0,0,15,17a9.82,9.82,0,0,0,1.46,6c.46.84,1.76.09,1.29-.76A10.93,10.93,0,0,1,16.77,20a6.51,6.51,0,0,1-.36-2.51,3.45,3.45,0,0,1,1.88-2.64s0,0,0,0a.48.48,0,0,0,.21.19.47.47,0,0,0,.28.09.57.57,0,0,0,.29,0l.18-.08a.73.73,0,0,0,.22-.21l0,0,0,0h0a1,1,0,0,0,.13-.16.43.43,0,0,0,0-.07,1.73,1.73,0,0,0,.1-.24.14.14,0,0,0,0-.07s0-.05,0-.08a2.48,2.48,0,0,0,0-.27Z"/><path class="cls-3" d="M21.94,13.88a1.66,1.66,0,0,1,0-.22s0-.09.05-.12a.58.58,0,0,1,.05-.11l.12-.16h0a.92.92,0,0,1,.17-.13.64.64,0,0,1,.3-.09l.13,0,.2,0h0l.19.07h0l.13.1.21,0A5,5,0,0,1,26.84,17a9.74,9.74,0,0,1-1.45,6c-.47.84-1.76.09-1.3-.76a11,11,0,0,0,1-2.26,6.51,6.51,0,0,0,.36-2.51,3.48,3.48,0,0,0-1.88-2.64s0,0,0,0a.48.48,0,0,1-.21.19.49.49,0,0,1-.28.09.61.61,0,0,1-.3,0l-.18-.08a.7.7,0,0,1-.21-.21l0,0,0,0h0l-.12-.16a.16.16,0,0,1,0-.07,1.73,1.73,0,0,1-.1-.24l0-.07s0-.05,0-.08a2.48,2.48,0,0,1,0-.27Z"/><path class="cls-4" d="M35.14,24a2.2,2.2,0,0,0-1.8-1.88,3.24,3.24,0,0,0-2.15.45,2.71,2.71,0,0,0-1.59-.64,2.34,2.34,0,0,0-2.17.88A2.43,2.43,0,0,0,27.16,25a4.65,4.65,0,0,0,1.34,1.88,19.78,19.78,0,0,0,2,1.54c-.09,1.79.42,3.64-.41,5.33a3.3,3.3,0,0,1-1.57,1.62,6.27,6.27,0,0,1-2.95.31c-1.87-.15-2.71-1.83-3.15-3.44a14.79,14.79,0,0,1-.61-5.87,5.65,5.65,0,0,0,3.12-2.49h0l0,0a.21.21,0,0,0,0-.06,2.53,2.53,0,0,0,.13-.22.71.71,0,0,0,.09-.28.61.61,0,0,0,0-.3.58.58,0,0,0-.13-.26.76.76,0,0,0-.21-.19l-.18-.08a.9.9,0,0,0-.4,0l-.18.08a.87.87,0,0,0-.27.27.79.79,0,0,1-.14.23l0,0a.52.52,0,0,0-.14.22,3.25,3.25,0,0,1-2.85,1.69,4.19,4.19,0,0,1-2.73-2.26c-.51-.82-1.81-.07-1.29.75a5.77,5.77,0,0,0,3.67,2.95,15.87,15.87,0,0,0,.37,5,8.81,8.81,0,0,0,1.92,4.39c1.33,1.37,3.19,1.47,5,1.27a4.74,4.74,0,0,0,3.87-2.75,7.43,7.43,0,0,0,.63-2.86c0-1-.17-2-.11-3,.74-.58,1.48-1.16,2.2-1.76a2.81,2.81,0,0,0,.9-1.2A3.17,3.17,0,0,0,35.14,24Zm-1.63,1.25a5.78,5.78,0,0,1-.83.73l-1.4,1.12a17.49,17.49,0,0,1-1.62-1.25,6.82,6.82,0,0,1-.75-.77,2.06,2.06,0,0,1-.36-.76l0,0s0,0,0,0V24a.11.11,0,0,0,0,0s0-.14.05-.18a.63.63,0,0,0,.07-.12.38.38,0,0,0,.09-.09c-.1.09.09,0,.1-.05s.11,0,.13,0,.11,0,.05,0h.38l.2,0,.16,0,.17.06a.6.6,0,0,1,.11.06l0,0,0,0h0l.06.12a.65.65,0,0,0,.34.29.72.72,0,0,0,.89.12,4.6,4.6,0,0,1,.8-.47,1.81,1.81,0,0,1,.47-.13H33l.19,0,.13.05.13.08.07.07.09.14c0-.05.05.13.05.15a1.47,1.47,0,0,1,.07.46A1,1,0,0,1,33.51,25.26Z"/></g></svg>