<svg xmlns="http://www.w3.org/2000/svg" width="50" height="50" viewBox="0 0 50 50"><defs><style>.cls-1{fill:#fff;}.cls-2{fill:#fcb912;}.cls-3{fill:#444;}.cls-4{fill:none;}</style></defs><title>2pt_icons_36x36px</title><g id="Layer_8" data-name="Layer 8"><rect class="cls-1" x="20.89" y="15.48" width="13.03" height="12.58" rx="1.3"/></g><g id="Layer_17" data-name="Layer 17"><path class="cls-2" d="M34.94,16.87a2.88,2.88,0,0,0-.67-1.63,2,2,0,0,0-1.84-.67h-9.9a2.37,2.37,0,0,0-1.71.53,3.3,3.3,0,0,0-.63,2.14c0,1.31.06,2.63.09,3.93s.07,2.67.1,4,0,3.81,1.68,4a19.1,19.1,0,0,0,2.14,0h7.54c.87,0,2,.25,2.67-.44a3.42,3.42,0,0,0,.53-2.47c0-1.6,0-3.2,0-4.81S35,18.39,34.94,16.87ZM33.45,18.3v3.42c0,1.09,0,2.19,0,3.29v1.64a8,8,0,0,1,0,1l-.08.05a.76.76,0,0,0-.16,0h-9c-.84,0-2,.42-2.25-.65a8.68,8.68,0,0,1-.08-2.1c0-1.09-.06-2.17-.08-3.26l-.09-3.25c0-.62-.24-1.93.4-2.35h8.62a7.59,7.59,0,0,1,1.58,0c.32.06.74,0,1,.3C33.67,16.88,33.45,17.74,33.45,18.3Z"/><path class="cls-3" d="M28.38,32.51a2,2,0,0,0,1.3-.36c.37-.31.88-1.07.74-1.58a.75.75,0,0,0-.34-.44.74.74,0,0,0-.58-.08l-.18.08c-.31.13-.33.53-.6.71l-.21.13-.08,0H19.22c-.63,0-1,.07-1.24-.54a6.32,6.32,0,0,1,0-.84c0-.62,0-1.24-.05-1.86,0-1.14,0-2.29,0-3.43s0-2.3.07-3.44c0-.76-.13-2.11.7-2.5s.11-1.72-.76-1.3a2.9,2.9,0,0,0-1.38,2.55c-.13,1.45-.11,2.94-.12,4.4s0,3,0,4.58a9.82,9.82,0,0,0,.18,2.51l0,0c.43,1.47,2,1.33,3.2,1.33h7.55C27.68,32.49,28,32.52,28.38,32.51Z"/><path class="cls-3" d="M26.29,35.52h.17a2.06,2.06,0,0,0,.92-.16,2.4,2.4,0,0,0,1.07-.84.88.88,0,0,0,0-1A.77.77,0,0,0,28,33.2a.74.74,0,0,0-.58.07.85.85,0,0,0-.3.38.78.78,0,0,1-.67.36H19.88c-.56,0-1.12.08-1.68,0a5.72,5.72,0,0,1-2.58-.53c-.77-.44-.55-1.29-.61-2,0-.55-.08-1.11-.11-1.67-.08-1.21-.13-2.43-.16-3.65s0-2.23,0-3.34c0-.47-.24-2.46.4-2.67.91-.31.52-1.76-.4-1.45a2.41,2.41,0,0,0-1.47,2.4c-.11,1.57-.05,3.18,0,4.76s.09,3,.2,4.56c.05.81.1,1.62.18,2.43a2.79,2.79,0,0,0,.56,1.63c1.05,1.13,3.3,1,4.69,1h7.34S26.26,35.53,26.29,35.52Z"/></g><g id="Layer_18" data-name="Layer 18"><rect class="cls-4" x="0.11" y="0.11" width="49.78" height="49.78"/></g></svg>