<svg xmlns="http://www.w3.org/2000/svg" width="50" height="50" viewBox="0 0 50 50"><defs><style>.cls-1{fill:#fb0;}.cls-2{fill:none;}.cls-3{fill:#444;}.cls-4{fill:#fff;}.cls-5{fill:#444445;}</style></defs><title>2pt_icons_36x36px</title><g id="travel"><path class="cls-1" d="M38.94,17.4a.58.58,0,0,0-.06-.29.74.74,0,0,0-.4-.4.72.72,0,0,0-.29-.06.77.77,0,0,0-.53.22l-.12.15a.83.83,0,0,0-.1.38,5.24,5.24,0,0,0,0,1,.59.59,0,0,0,.07.29.63.63,0,0,0,.39.39.59.59,0,0,0,.29.07.73.73,0,0,0,.53-.22l.12-.15a.75.75,0,0,0,.1-.38A5.24,5.24,0,0,1,38.94,17.4Z"/></g><g id="Layer_17" data-name="Layer 17"><rect class="cls-2" x="0.11" y="0.28" width="49.78" height="49.78"/><path class="cls-3" d="M20.67,26c-.05,0,0,0,0,0Z"/><path class="cls-3" d="M21.08,26.14Z"/><path class="cls-4" d="M45.47,24.94a6.7,6.7,0,0,0-3.08-2.16,5.39,5.39,0,0,0-2-.28c-.35,0-2.09.21-1.72.85.42.84.93,1.66,1.41,2.46A7.47,7.47,0,0,1,41.2,28.1c.18.88-.66,1-1.25.59a5.83,5.83,0,0,1-1.08-1.33,20.27,20.27,0,0,1-1.26-2.28c-.09-.17-.65-1.38-1-1.12a6.48,6.48,0,0,0-1.74,2.77,5.68,5.68,0,0,0-.33,3.43,6.5,6.5,0,0,0,2.89,4,6.52,6.52,0,0,0,7.67-1.25,6.08,6.08,0,0,0,1-7.06A7.09,7.09,0,0,0,45.47,24.94Z"/><path class="cls-4" d="M14.36,25.51a6,6,0,0,0-9.23.37,5.6,5.6,0,0,0-1,4.54,6.07,6.07,0,0,0,3.24,4.15A5.91,5.91,0,0,0,15,31.77,5.75,5.75,0,0,0,14.36,25.51Z"/><path class="cls-1" d="M31.64,16.43a2.92,2.92,0,0,1,1.23.28,1.52,1.52,0,0,1,.81,1.42h0s.16,2.81-1.25,3.65a6.23,6.23,0,0,1-2.49.31l-9.59.2h-5.2a20,20,0,0,1-4.46-.41c-.8-.22-2.53-.9-1.63-2a1.84,1.84,0,0,1,.57-.47,4.06,4.06,0,0,1,1.9-.48,17.67,17.67,0,0,1,2.52,0,11.86,11.86,0,0,1,1.95.33c.38.1.76.25,1.15.34a11.87,11.87,0,0,0,2.71.37,8.18,8.18,0,0,0,1.91-.16,5.31,5.31,0,0,0,1.61-.77c.4-.24.8-.46,1.21-.67a19.18,19.18,0,0,1,3-1.36,11.19,11.19,0,0,1,2.63-.55A11.06,11.06,0,0,1,31.64,16.43Z"/><path class="cls-3" d="M41.92,27.09a42.07,42.07,0,0,0-2.14-4.24q-1.12-2.09-2.31-4.11a4.7,4.7,0,0,0-1.21-1.63,1.85,1.85,0,0,0-.8-.29c-.4-.56-.8-1.13-1.22-1.67A3.16,3.16,0,0,0,32.45,14a11.8,11.8,0,0,0-2.3-.22l-2.46-.08c-1,0-1,1.47,0,1.5l2.11.07a14.91,14.91,0,0,1,2,.12,1.86,1.86,0,0,1,1.33.8c.27.34.51.7.76,1.05a.8.8,0,0,0-.13.32,3.42,3.42,0,0,0,.17,2.65,36.46,36.46,0,0,0,2,4.05c.73,1.35,1.46,2.7,2.24,4a10.27,10.27,0,0,0,1,1.56,2.41,2.41,0,0,0,.76.62,1.91,1.91,0,0,0,1.55-.12,1.51,1.51,0,0,0,.63-.89A3.82,3.82,0,0,0,41.92,27.09Zm-3-.6c-.54-1-1.08-1.94-1.61-2.91s-1.07-1.93-1.54-2.92c-.21-.44-1-1.75-.69-2.35.29,0,.46.14.68.49s.55.93.82,1.39c.57,1,1.14,2,1.69,3s1.08,2,1.6,3.06c.23.45.46.9.65,1.37a4.2,4.2,0,0,1,.27.85.86.86,0,0,1,0,.32c0,.16-.3.17-.42.08a1.68,1.68,0,0,1-.28-.4c-.13-.19-.25-.39-.37-.59C39.45,27.43,39.18,27,38.92,26.49Z"/><path class="cls-5" d="M14.47,32.22l-.18-.07A5.07,5.07,0,0,1,9.8,34.88a5.14,5.14,0,1,1,5-6.05l.26,0a5.12,5.12,0,0,1,.54.1,8.1,8.1,0,0,1,.8.24,6.66,6.66,0,1,0-.62,3.36C15.35,32.47,14.91,32.36,14.47,32.22Z"/><path class="cls-5" d="M40.16,22.34a7,7,0,0,0-1.22.12c.25.47.5.93.74,1.4l.48,0A5.5,5.5,0,1,1,36.85,25q-.33-.69-.63-1.38a6.94,6.94,0,1,0,3.94-1.25Z"/><path class="cls-3" d="M27.46,26c-.05,0,0,0,0,0Z"/><path class="cls-3" d="M27.87,26.14Z"/><path class="cls-2" d="M22.42,24.42H21.37c-.43,0-.87.06-1.31.09,0,.14.07.27.11.4a3.58,3.58,0,0,0,.16.56.73.73,0,0,0,.05.12c0,.08.09.16.14.24l.08.09.1.09,0,0,0,0,.11.06a2.44,2.44,0,0,0,1.44,0l.15,0,.05,0,.07-.08.06-.1s.05-.09.08-.14a.28.28,0,0,1,0-.11c.11-.34.2-.68.28-1l0-.12H23Z"/><path class="cls-2" d="M29.22,24.44l-1,0c-.44,0-.87,0-1.31.07l.09.4q.06.28.15.57l.05.12.13.24.08.09.1.09,0,0,0,0,.11.07a2.52,2.52,0,0,0,1.44,0l.15,0,0,0,.07-.07.07-.1c0-.05.05-.1.07-.14a.38.38,0,0,1,.05-.11,9.83,9.83,0,0,0,.3-1l0-.12h0Z"/><path class="cls-2" d="M12,29.23c-.5-.13-1-.27-1.5-.43-.26-.08-.83-.31-1,.06-.08.2.1.41.24.52a4.72,4.72,0,0,0,1.4.56c1,.34,2,.66,3,.95s2,.57,3.06.8c.54.13,2.32.77,2.54-.14C18.16,31,16.57,30.44,15,30,14,29.71,13,29.49,12,29.23Z"/><path class="cls-3" d="M32.58,24.5a2.12,2.12,0,0,0-1.33-.79.26.26,0,0,0,0-.08A1.47,1.47,0,0,0,30.06,23c-.43,0-.87,0-1.3-.06A22.41,22.41,0,0,0,26,23a.85.85,0,0,0-.66.37,1,1,0,0,0-.14.41l-.73,0a1,1,0,0,0-.11-.28A1.49,1.49,0,0,0,23.22,23c-.43,0-.87,0-1.3,0a11,11,0,0,0-2.87.2c-.86.26-.59,1.1-.44,1.74.06.22.1.44.16.66a3.49,3.49,0,0,0,.65,1.34,2.85,2.85,0,0,0,2.62.76.71.71,0,0,0,.2,0,2.25,2.25,0,0,0,1-.27,2.07,2.07,0,0,0,.78-.95,7.31,7.31,0,0,0,.33-1c.39,0,.79,0,1.18-.05a.83.83,0,0,1,0,.15,3.54,3.54,0,0,0,.62,1.35,2.89,2.89,0,0,0,2.6.83l.2,0a2.3,2.3,0,0,0,1-.25,2.1,2.1,0,0,0,.8-.94,8,8,0,0,0,.41-1.19.45.45,0,0,1,.14.1c.15.17,0,.43,0,.64-.16.59-.35,1.18-.57,1.76a17.24,17.24,0,0,1-.78,1.69,4.8,4.8,0,0,1-.49.85c-.21.23-.44.21-.74.22-1.34,0-2.69.05-4,0-1.08,0-2.14-.1-3.21-.11a8.19,8.19,0,0,1-2.65-.7c-1.13-.42-2.29-.79-3.45-1.12-1.65-.46-3.33-.78-4.95-1.34A1.94,1.94,0,0,0,8.26,28a1.87,1.87,0,0,0,.12,2.14,4,4,0,0,0,1.92,1.09q1.29.45,2.58.84a48.68,48.68,0,0,0,5,1.3,3.23,3.23,0,0,0,2.33-.16,2.12,2.12,0,0,0,1-1.39c1.57,0,3.13.16,4.7.18.9,0,1.79,0,2.69,0a2.34,2.34,0,0,0,2.09-.9,14.21,14.21,0,0,0,2-4.43A2.36,2.36,0,0,0,32.58,24.5Zm-9.6.06c-.08.35-.17.69-.28,1a.28.28,0,0,0,0,.11c0,.05-.05.1-.08.14l-.06.1-.07.08-.05,0-.15,0a2.44,2.44,0,0,1-1.44,0L20.7,26l0,0,0,0-.1-.09-.08-.09c-.05-.08-.1-.16-.14-.24a.73.73,0,0,1-.05-.12,3.58,3.58,0,0,1-.16-.56c0-.13-.07-.26-.11-.4.44,0,.88-.08,1.31-.09h1.05l.54,0H23Zm6.8,0a9.83,9.83,0,0,1-.3,1,.38.38,0,0,0-.05.11s0,.09-.07.14l-.07.1-.07.07,0,0-.15,0a2.52,2.52,0,0,1-1.44,0L27.47,26l0,0,0,0-.1-.09-.08-.09-.13-.24-.05-.12q-.09-.29-.15-.57l-.09-.4c.44,0,.87-.06,1.31-.07l1,0,.55,0h0ZM17.2,31.69c-1-.23-2-.5-3.06-.8s-2-.61-3-.95a4.72,4.72,0,0,1-1.4-.56c-.14-.11-.32-.32-.24-.52.16-.37.73-.14,1-.06.49.16,1,.3,1.5.43,1,.26,2,.48,3,.76,1.61.45,3.2,1,4.78,1.56C19.52,32.46,17.74,31.82,17.2,31.69Z"/></g></svg>