<svg id="Layer_1" data-name="Layer 1" xmlns="http://www.w3.org/2000/svg" viewBox="0 0 300 220"><defs><style>.cls-1{fill:#f5f5f5;}.cls-2{fill:#fff;}.cls-3{fill:#eee;}.cls-4{fill:#444;}.cls-5{fill:#fb0;}.cls-6{fill:#ddd;}</style></defs><path class="cls-1" d="M288,172.76c17.79-43.42-9.87-89.66-48.2-112.44-28.27-16.79-61-28.73-93-36.87-34-8.66-114.57-39-135.16,7.47-7,15.8-2.81,35.08,1.7,51,13.11,46.54,42.39,90.12,93.78,114.87A204.35,204.35,0,0,0,187.4,217c26.19,1,56.34-2.31,78.3-17.08A59.61,59.61,0,0,0,288,172.76Z"/><path class="cls-2" d="M128.19,83.78c-9.56,6.87-14.28,19.19-13.84,30.92s5.53,23,12.49,32.48,15.64,17.57,24.31,25.54a165.49,165.49,0,0,1-1.26-50.46c.88-6.73,2.76-14.28,8.71-17.53Z"/><path class="cls-3" d="M137.56,109.54A165.18,165.18,0,0,0,138.83,160c-2.29-2.2-4.6-4.24-6.88-6.41a231.54,231.54,0,0,0,19.2,19.17,165.25,165.25,0,0,1-1.27-50.47c.88-6.72,2.76-14.28,8.71-17.53L143.36,94.23C139.65,98,138.27,104.06,137.56,109.54Z"/><path class="cls-2" d="M162.79,50.35C170,41,182.44,36.67,194.19,37.54s22.77,6.31,32,13.56,17,16.21,24.74,25.15a165.42,165.42,0,0,0-50.36-2.94c-6.76.64-14.35,2.28-17.82,8.13Z"/><path class="cls-3" d="M238.63,63.42a165,165,0,0,0-50.4-2.92c-5.52.53-11.56,1.72-15.45,5.29l10,15.59c3.46-5.84,11-7.47,17.84-8.13A165.58,165.58,0,0,1,251,76.17a234.88,234.88,0,0,0-18.52-19.86C234.55,58.68,236.57,61.05,238.63,63.42Z"/><path class="cls-4" d="M151.15,173.71a.9.9,0,0,1-.64-.26c-8.58-7.91-17.43-16.06-24.43-25.67-7.87-10.79-12.25-22.24-12.67-33-.5-12.91,5-25.08,14.23-31.77a1,1,0,0,1,1.1,0l30.41,21a.93.93,0,0,1,.25,1.3h0a1.1,1.1,0,0,1-.32.29c-5.83,3.19-7.49,11.13-8.23,16.83a163.68,163.68,0,0,0,1.26,50.18.94.94,0,0,1-.74,1.1h0Zm-23-88.78c-8.43,6.41-13.37,17.74-12.92,29.76.41,10.41,4.66,21.47,12.32,32,6.33,8.72,14.29,16.27,22.1,23.53a165.55,165.55,0,0,1-.79-48c.71-5.68,2.36-13.49,7.89-17.45Zm54.57-2.58a1,1,0,0,1-.8-.43L162,50.81a1,1,0,0,1,0-1.11c7-9.05,19.32-14.08,32.21-13.16,10.78.76,22,5.5,32.57,13.74,9.35,7.32,17.28,16.45,24.87,25.26a1,1,0,0,1-.92,1.55,164.07,164.07,0,0,0-50.11-2.9c-5.71.56-13.67,1.94-17.09,7.67a.91.91,0,0,1-.79.46Zm-18.86-32,18.87,29.32c4.14-5.43,12-6.8,17.66-7.34a165,165,0,0,1,48,2.37c-7-8.09-14.28-16.28-22.79-22.92-10.21-8-21.11-12.61-31.52-13.35C182.11,37.56,170.63,42.13,163.91,50.35Z"/><path class="cls-5" d="M220.47,130.65c-4.75-2.88-10.65-5.59-14.36-9.73l-6.86,8.52a26.49,26.49,0,0,0,19.1,23.17A8.05,8.05,0,0,1,214,148.2a22.55,22.55,0,0,0,11.22,4.49c4,.44,9.84,4.51,12.15,7.82-.65-4.15-6.38-12.31-12.34-20.49l5.52,1.37c-3.28-5-5.49-7.95-10.11-10.74Z"/><path class="cls-6" d="M208.38,121.2s1.4,2.88-3.3,7.37-7.48,3-7.48,3L190,127.55l14.81-14.37Z"/><path class="cls-2" d="M206.46,119.21s1.4,2.88-3.3,7.37-7.48,3-7.48,3l-5-2.69-.63.61,7.55,4.06s2.82,1.48,7.49-3,3.3-7.37,3.3-7.37l-3.5-7.94-.72.73Z"/><path class="cls-4" d="M198.89,132.77a3.92,3.92,0,0,1-1.69-.32l-7.58-4.07a.9.9,0,0,1-.47-.73.93.93,0,0,1,.26-.81l14.83-14.36a.94.94,0,0,1,1.33,0,.83.83,0,0,1,.19.27l3.52,8c.16.39,1.45,3.69-3.48,8.42-3,3-5.43,3.61-6.91,3.61Zm-.81-2s2.35,1,6.37-2.89,3.08-6.28,3.07-6.31l.86-.38-.86.37-3-6.74-12.94,12.49,6.43,3.45Z"/><path class="cls-2" d="M113.15,7.74a43.69,43.69,0,0,1-8.1,13.77A43.79,43.79,0,0,1,87.54,33.58c7.84,24.55,31.7,61,99.92,95.14,0,0,6.3,3,13.68-4.14s4.6-13.54,4.6-13.54C173.47,40.9,137.5,16.15,113.15,7.74Z"/><path class="cls-2" d="M113.15,7.74a43.69,43.69,0,0,1-8.1,13.77A43.79,43.79,0,0,1,87.54,33.58c7.84,24.55,31.7,61,99.92,95.14,0,0,6.3,3,13.68-4.14s4.6-13.54,4.6-13.54C173.47,40.9,137.5,16.15,113.15,7.74Z"/><path class="cls-3" d="M181.35,113.27c-5.3-3.84-10.75-7.48-16.16-11q-8.91-5.7-17.34-12.13a188.75,188.75,0,0,1-27.7-25.45,130.49,130.49,0,0,1-14.29-19.5C105,43.85,96.53,29,97.68,28.16a45.15,45.15,0,0,1-10.14,5.42c7.84,24.55,31.7,61,99.92,95.14a4.65,4.65,0,0,0,.52.2c4.1,1.32,4.52-3.57,3.69-6.36C190.28,117.88,185,115.86,181.35,113.27Z"/><path class="cls-4" d="M190.94,130.27a9.43,9.43,0,0,1-3.89-.71c-68.78-34.47-92.55-71-100.4-95.71a.92.92,0,0,1,.56-1.1,43,43,0,0,0,17.14-11.84,42.68,42.68,0,0,0,7.9-13.48,1,1,0,0,1,1.21-.58h0c24.6,8.44,60.75,33.3,93.16,103.71.14.31,3,7.11-4.79,14.63-4.22,4.08-8.13,5.06-10.87,5.06ZM88.71,34.14c8,24.28,31.78,60,99.17,93.76.22.09,5.83,2.59,12.61-4s4.49-12.23,4.41-12.5c-31.77-69.07-67-93.88-91.2-102.49a44.1,44.1,0,0,1-7.94,13.2A44.82,44.82,0,0,1,88.71,34.14Z"/><path class="cls-3" d="M105.05,21.51a43.69,43.69,0,0,0,8.1-13.77,69.49,69.49,0,0,0-21.1-4A7.93,7.93,0,0,0,84,11.46a70.15,70.15,0,0,0,3.56,22.08A43.8,43.8,0,0,0,105.05,21.51Z"/><path class="cls-6" d="M107.79,15.91A42.57,42.57,0,0,1,99.74,23a7.79,7.79,0,0,1-10.82-2.15,7.63,7.63,0,0,1-1.2-3,63.17,63.17,0,0,1-1-12V5.7A7.89,7.89,0,0,0,84,11.54a69.63,69.63,0,0,0,3.56,22.08,43.78,43.78,0,0,0,17.53-12.11A43.14,43.14,0,0,0,112.54,9.2,42,42,0,0,1,107.79,15.91Z"/><path class="cls-4" d="M87.54,34.52a1.15,1.15,0,0,1-.41-.08,1,1,0,0,1-.48-.57A70.73,70.73,0,0,1,83,11.52,8.83,8.83,0,0,1,92,2.79h.09a70.3,70.3,0,0,1,21.42,4.06.94.94,0,0,1,.58,1.2,44.42,44.42,0,0,1-8.3,14.08,44.65,44.65,0,0,1-17.89,12.3A.63.63,0,0,1,87.54,34.52Zm4.4-29.81a7,7,0,0,0-7,6.87A68.62,68.62,0,0,0,88.1,32.34,43,43,0,0,0,104.35,20.9a42.26,42.26,0,0,0,7.57-12.58A67.26,67.26,0,0,0,92.05,4.68Z"/><circle class="cls-5" cx="119.81" cy="40.49" r="9.4"/><circle class="cls-5" cx="140.86" cy="62.25" r="5.64"/><path class="cls-5" d="M175.25,138.2a.94.94,0,0,1-.67-.27L172.72,136a1,1,0,0,1-.29-1.3.94.94,0,0,1,1.29-.29l.11.07a1,1,0,0,1,.2.21l1.85,1.91a1,1,0,0,1,0,1.33.89.89,0,0,1-.66.26Zm32.82,33.92a.9.9,0,0,1-.67-.29l-16.41-17a.95.95,0,0,1,1.16-1.5l.13.12.07.07,16.39,17a.92.92,0,0,1,0,1.31h0a.91.91,0,0,1-.65.27Zm10.06,10.37a1,1,0,0,1-.68-.28l-1.85-1.87a.95.95,0,1,1,1.15-1.51l.14.12.06.07,1.85,1.92a.93.93,0,0,1-.67,1.59Zm-9.34-21a1,1,0,0,1-.67-.29l-1.85-1.92a.94.94,0,1,1,1.22-1.43l.06.06.07.07,1.86,1.91a1,1,0,0,1,0,1.33.93.93,0,0,1-.69.24Zm19.1,19.71a1,1,0,0,1-.68-.28l-9.55-9.87a.93.93,0,0,1,0-1.31h0a.92.92,0,0,1,1.3,0l0,0,.07.06,9.54,9.85a.94.94,0,0,1,0,1.33.88.88,0,0,1-.71.21Zm-14.82-79.59a1,1,0,0,1-.72-.29l-1.84-1.92a.93.93,0,0,1,0-1.32h0a.94.94,0,0,1,1.33,0l1.87,1.89a.94.94,0,0,1,0,1.33h0a1,1,0,0,1-.65.27Zm32.13,33.2a1,1,0,0,1-.67-.29L228.47,118a.94.94,0,0,1,1.29-1.37h0l.06.07,16.07,16.6a1,1,0,0,1,0,1.33.94.94,0,0,1-.69.18Zm9.89,10.25a.94.94,0,0,1-.67-.29l-1.86-1.91a1,1,0,0,1,.16-1.33.94.94,0,0,1,1.2,0l1.85,1.9a1,1,0,0,1,0,1.34.89.89,0,0,1-.68.24Zm-6.61,7.85a.94.94,0,0,1-.69-.29l-1.85-1.89a.94.94,0,0,1,1.34-1.31l1.86,1.91a.93.93,0,0,1-.67,1.6Zm-6.59,43.56a1,1,0,0,1-.68-.27l-1.85-1.88a.95.95,0,1,1,1.15-1.51.86.86,0,0,1,.14.13l.06.07,1.85,1.91a.94.94,0,0,1,0,1.33,1,1,0,0,1-.65.27Zm9.75-1.28a.91.91,0,0,1-.67-.28l-9.55-9.87a.94.94,0,0,1,0-1.32.93.93,0,0,1,1.31,0l0,0a.12.12,0,0,1,.06.08l9.55,9.85a.92.92,0,0,1,0,1.32,1,1,0,0,1-.73.22Z"/><path class="cls-5" d="M242.49,165.7a.94.94,0,1,1,1.28-1.38h0l.07.06,9.4,9.72a.94.94,0,0,1,0,1.33,1,1,0,0,1-.67.33,1,1,0,0,1-.68-.29"/></svg>