<svg xmlns="http://www.w3.org/2000/svg" width="50" height="50" viewBox="0 0 50 50"><defs><style>.cls-1{fill:none;}.cls-2{fill:#fff;}.cls-3{fill:#fcb912;}.cls-4{fill:#444;}.cls-5{fill:#444445;}</style></defs><title>Travel</title><g id="Layer_18" data-name="Layer 18"><rect class="cls-1" x="0.11" y="0.11" width="49.78" height="49.78"/><path class="cls-2" d="M10.41,16.15s-1.07-.23-.65,4.05c0,0,.49,4.18,1,4.65a12.3,12.3,0,0,0,2.58,1.5c.46.13.56,2.1,1,2.32,1,.49,1.07.11,2,.71.18.12,2.95.29,2.44.62-3.43,2.25-2.67,3.63-2.67,3.63l3.39.88s8.72-5.32,8.79-4.89,15-.32,16-1a1.67,1.67,0,0,0-.49-2.79,13.05,13.05,0,0,1-2.46-1L36.88,22s-.59-1.08-5.41-.27L18.8,22.2a2.57,2.57,0,0,1-2.61-1l-4.1-4.31S11.31,15.57,10.41,16.15Z"/><path class="cls-3" d="M28.91,29.37a1.11,1.11,0,0,0,.31.12c1.54-.06,3.07-.23,4.62-.17,1.4.05,2.8.13,4.2.15.31,0,.62,0,.92,0a15,15,0,0,0,3.14-.08c.9-.15,2.37-.54,2.62-1.58a2.09,2.09,0,0,0-.24-1.45,1.15,1.15,0,0,0-.42-.4c-.12-.07-.59-.11-.65-.18s.69.86-2.43,1l-8.34.33s-3.12.43-4.12,1.51l0,.48A.93.93,0,0,0,28.91,29.37Z"/><path class="cls-3" d="M37.25,22c.45-.08,3.93,3.11,3.93,3.11-.35.5-1.62.32-2.09.14a9,9,0,0,1-1.8-1.18,2.24,2.24,0,0,1-.92-1c-.23-.63.29-.95.85-1.06Z"/><path class="cls-4" d="M26.59,24a.63.63,0,0,0-.48,1.16A.63.63,0,0,0,26.59,24Z"/><path class="cls-4" d="M23.55,24a.63.63,0,0,0-.49,1.16A.63.63,0,0,0,23.55,24Z"/><path class="cls-4" d="M29.73,23.87A.63.63,0,0,0,29.24,25,.63.63,0,0,0,29.73,23.87Z"/><path class="cls-4" d="M32.86,23.78a.63.63,0,0,0-.49,1.16A.63.63,0,0,0,32.86,23.78Z"/><path class="cls-4" d="M11.37,27.89a.66.66,0,0,0-.71-.54l-2.95.19a.63.63,0,1,0,.16,1.24l3-.19A.63.63,0,0,0,11.37,27.89Z"/><path class="cls-4" d="M11.6,30.52a.63.63,0,0,0-.61-.65,24.51,24.51,0,0,0-3.91.44.63.63,0,0,0-.46.75.64.64,0,0,0,.75.47,21.92,21.92,0,0,1,3.59-.4A.63.63,0,0,0,11.6,30.52Z"/><path class="cls-5" d="M5.23,30.07a.63.63,0,0,0-.49,1.16A.63.63,0,0,0,5.23,30.07Z"/><rect class="cls-1" x="0.11" y="0.11" width="49.78" height="49.78"/><path class="cls-4" d="M43.29,24.72c-.58-.24-1.2-.41-1.76-.71a35.53,35.53,0,0,1-2.92-2.3c-2-1.36-4.68-1.25-7.12-1.09l-10,.66a7.84,7.84,0,0,1-3.77-.37c-2.14-1-3-3.59-4.74-5.12a2.86,2.86,0,0,0-3.13-.65c-1.17.65-1.28,2.26-1.19,3.6a40.55,40.55,0,0,0,.85,5.8,2.94,2.94,0,0,0,.88,1.77,5,5,0,0,0,2,.56.79.79,0,0,1,.39.19,1.15,1.15,0,0,1,.19.59,2.74,2.74,0,0,0,1.64,1.93,8.07,8.07,0,0,0,2.57.53,11.13,11.13,0,0,0-2.36,2,1.75,1.75,0,0,0-.54,1.09,1.63,1.63,0,0,0,1,1.24,6.66,6.66,0,0,0,4.57.47,15.49,15.49,0,0,0,4.31-1.84c1-.59,2-1.21,3-1.86a4.79,4.79,0,0,1,1.17-.65,4.82,4.82,0,0,1,1.47-.18c2.18,0,4.37-.09,6.55-.18q1.64-.06,3.27-.15c1.57-.09,3.65.17,4.89-1a2.57,2.57,0,0,0-.12-3.69A3.59,3.59,0,0,0,43.29,24.72ZM43,28.21a2.93,2.93,0,0,1-.89.23c-1,.12-2,.11-3,.15l-3.75.15-5,.19c.38-.63-.28-1.58-1-1.07l-.86.62a.83.83,0,0,1-.17.15c-.38.24-.75.5-1.13.75l0,.05a41.83,41.83,0,0,1-6.63,3.7,5.07,5.07,0,0,1-2.51.49,7.87,7.87,0,0,1-1.27-.23,3.66,3.66,0,0,0-.65-.17L16,33.15c-.15.14-.16.15,0,0a3.66,3.66,0,0,1,.8-.77c.32-.29.66-.56,1-.82a14.74,14.74,0,0,1,2.12-1.28A.73.73,0,0,0,19.68,29h0a.61.61,0,0,0-.28-.07,16.36,16.36,0,0,1-2.61-.34c-.42-.09-.84-.2-1.26-.32-.26-.08-.83-.18-1-.45s.09-.74,0-1.06A1.54,1.54,0,0,0,14,26,4.52,4.52,0,0,0,12,25.33c-.86-.19-.95-.59-1.12-1.39s-.32-1.68-.43-2.53-.18-1.75-.26-2.63-.29-1.78.4-2.37c.51-.42,1.53.59,1.83.9A16,16,0,0,1,13.8,19a9.6,9.6,0,0,0,2.88,3.1c1.58.91,3.53.8,5.35.66L31,22.1c2.35-.18,4.89-.32,6.9.92,1.35.84,2.36,2.26,3.87,2.77.78.27,1.81.43,2,1.23A1,1,0,0,1,43,28.21Z"/><path class="cls-4" d="M10.91,29.91A35.69,35.69,0,0,0,7,30.28a.74.74,0,0,0-.52.92.77.77,0,0,0,.92.52l.22,0h.12l.43-.06.9-.09c.59-.06,1.2-.1,1.8-.12a.75.75,0,0,0,0-1.5Z"/><path class="cls-4" d="M10.86,27.13c-1.11.08-2.22.13-3.33.12a.75.75,0,0,0,0,1.5c1.11,0,2.22,0,3.33-.12a.77.77,0,0,0,.75-.75A.75.75,0,0,0,10.86,27.13Z"/><path class="cls-4" d="M5,30a.75.75,0,0,0,0,1.5A.75.75,0,0,0,5,30Z"/><path class="cls-4" d="M23.2,23.84a.75.75,0,0,0,0,1.5A.75.75,0,0,0,23.2,23.84Z"/><path class="cls-4" d="M26.28,23.77a.75.75,0,0,0,0,1.5A.75.75,0,0,0,26.28,23.77Z"/><path class="cls-4" d="M29.44,23.64a.75.75,0,0,0,0,1.5A.75.75,0,0,0,29.44,23.64Z"/><path class="cls-4" d="M32.53,23.57a.75.75,0,0,0,0,1.5A.75.75,0,0,0,32.53,23.57Z"/><path class="cls-4" d="M20.14,23.8a.75.75,0,0,0,0,1.5A.75.75,0,0,0,20.14,23.8Z"/></g></svg>