<svg id="Layer_0_Image" data-name="Layer 0 Image" xmlns="http://www.w3.org/2000/svg" viewBox="0 0 233.79 180"><defs><style>.cls-1{fill:#f4f4f4;}.cls-2{fill:#414141;}.cls-3{fill:#fff;}.cls-4{fill:#424242;}.cls-5{fill:#f5be41;}.cls-6{fill:#999;}.cls-7{fill:#ddd;}.cls-8{fill:#dedede;}.cls-9{fill:#fefefe;}.cls-10{fill:#dcdcdc;}.cls-11{fill:#989898;}.cls-12{fill:#434343;}</style></defs><path class="cls-1" d="M231,105.08A31.89,31.89,0,0,0,225.58,94c-10-13.18-26.3-17-42.32-19.62-13.73-2.26-27.65-4.06-40.38-9.69A78.25,78.25,0,0,1,112.37,40.4c-4.23-5.62-7.68-11.76-12.29-17.11C90.4,12.06,73.34,7.55,58.43,6.6c-17.32-1.1-33,5.53-43.24,19C8.77,34,5.33,44.66,3.74,55.47A116.24,116.24,0,0,0,4,91.57a89.29,89.29,0,0,0,10.34,28.91c9.19,16.2,20.5,30.82,37.28,40.53,17.85,10.33,37.27,13.83,57.69,15.1,42.66,2.67,90.54-4.31,114.59-37C231,129.44,234,116.52,231,105.08Z"/><path class="cls-2" d="M114.35,177.28h13a.46.46,0,0,0,.21-.36,1.67,1.67,0,0,1,1-1.18,6.2,6.2,0,0,1,1.2-.46,77.68,77.68,0,0,0,8.55-2.68,19.78,19.78,0,0,0,5.63-3.34,23,23,0,0,0,2.83-2.84,12.15,12.15,0,0,0,2-2.56,1.82,1.82,0,0,0,.16-.31.57.57,0,0,0-.15-.63.5.5,0,0,0-.59-.14c-.34.17-.36,0-.36-.28,0-2.05-.1-4.1-.16-6.15a31.88,31.88,0,0,1,.06-4.26c.06-.59.06-.62.66-.63h.22a1,1,0,0,1,.17,0c.86,0,1,.18,1,1,.05,1.92.19,3.84.37,5.75a6.48,6.48,0,0,0,.53,2.12,24.51,24.51,0,0,0,2.14,3.68,8.45,8.45,0,0,1,1.57,3.33,18.88,18.88,0,0,1,0,4.63,2.69,2.69,0,0,0,.1,1c.18.51.41,1,.54,1.54,0,.16.06.3.08.45l.5-.07a6.45,6.45,0,0,1,.79-.16c-.2-.59-.35-1.2-.56-1.79a1.06,1.06,0,0,1-.1-.55,16.38,16.38,0,0,0,.05-2.62,19.82,19.82,0,0,0-.33-3,10,10,0,0,0-1.12-2.83c-.57-1.09-1.3-2.08-1.91-3.13a4.23,4.23,0,0,1-.85-2.61c-.19-2.3-.46-4.6-.43-6.91a.89.89,0,0,0-.58-.91,4.14,4.14,0,0,0-.82-.27,6,6,0,0,0-1.46-.1c-.51,0-.53,0-.46-.54,0-.21,0-.42.05-.64a25.89,25.89,0,0,1,.2-3c.42-3.32.67-6.65,1.08-10,.33-2.68.61-5.36,1.05-8,0-.1,0-.22.12-.29a1.57,1.57,0,0,1,.15.51,34.93,34.93,0,0,0,1.42,4.78,39,39,0,0,0,2.63,4.89,5.8,5.8,0,0,0,.82,1.26.81.81,0,0,1,.16,1,22.44,22.44,0,0,0-2,6.36c-.54,3.71-1.09,7.42-1.88,11.09a.61.61,0,0,0,0,.46c.46-.07.89-.23,1.34-.32a1.15,1.15,0,0,0,.17-.48q1-4.89,1.64-9.81a26,26,0,0,1,2-7.09.6.6,0,0,1,.6-.45,6.83,6.83,0,0,1,1.11,0,.65.65,0,0,0,.23-1.28,1.18,1.18,0,0,0-.67-.08c-.3.05-.6,0-.9.1a.54.54,0,0,1-.62-.27c-.64-1.06-1.39-2-2-3.11a22.61,22.61,0,0,1-2.38-5.88c-.44-1.75-.83-3.52-1.11-5.31a1.08,1.08,0,0,1-.06-.71c.15-.72.31-1.43.42-2.16.05-.31.22-.4.5-.39a7,7,0,0,0,1-.05,24.34,24.34,0,0,0,6.41-2.1,29.62,29.62,0,0,0,5.87-3.51,8.25,8.25,0,0,1,1-.6c.24-.14.29,0,.32.18a16.23,16.23,0,0,0,.32,1.69c.63,2.11,1.31,4.19,1.94,6.3a50.9,50.9,0,0,1,2.13,8,2.66,2.66,0,0,0,.1.38,20.27,20.27,0,0,1,.81,5.69,30.88,30.88,0,0,1-1.14,8.33c-.81,3.14-1.69,6.27-2.8,9.32a74.36,74.36,0,0,1-4.49,9.77c-.63,1.19-1.31,2.36-1.89,3.58,0,.61.24,1.19.25,1.79,0,0,0,0,.06.06.18-.29.38-.58.55-.88,1.5-2.71,3-5.42,4.33-8.22a59.81,59.81,0,0,0,2.36-5.54A108,108,0,0,0,172.33,144a32.33,32.33,0,0,0,.82-5.35c.06-1.09,0-2.19,0-3.28a12,12,0,0,0-.31-2.6c-.22-1-.48-2-.67-3a21,21,0,0,0-.48-2.36c-.35-1.09-.62-2.21-.87-3.32a6,6,0,0,0-.51-1.55,6,6,0,0,1-.46-1.19c-.31-1.15-.71-2.27-1.07-3.4a22.58,22.58,0,0,1-1.1-4.2.64.64,0,0,1,.07-.54.53.53,0,0,0,.05-.41,14,14,0,0,0-.46-2.14c-.58-2-1.28-3.87-1.8-5.84a18.08,18.08,0,0,1-.66-2.58,17.86,17.86,0,0,0-.58-2.82c-.35-1.3-.81-2.57-1.12-3.89-.52-2.28-1.26-4.5-1.81-6.77a12.6,12.6,0,0,0-1-2.81,16.69,16.69,0,0,0-4-5.1,8.66,8.66,0,0,0-1.39-1,19.4,19.4,0,0,0-2-1,22.85,22.85,0,0,1-2.61-1.21,17.9,17.9,0,0,0-1.72-.8c-1.55-.64-3.17-1.11-4.73-1.71a20.53,20.53,0,0,1-4.14-2c-1.31-.87-2.6-1.79-4-2.54-.34-.18-.66-.4-1-.6a44.08,44.08,0,0,0-6.06-3.24.38.38,0,0,1-.28-.43,3.52,3.52,0,0,0,0-.86c0-.32,0-.33.28-.36a13.06,13.06,0,0,0,2.49-.49,3.3,3.3,0,0,0,2.14-2,5.92,5.92,0,0,0,.41-1.36c.22-1.4.62-2.77.95-4.15a34.12,34.12,0,0,1,2.49-7,11.51,11.51,0,0,0,1.1-3.21,8.47,8.47,0,0,0,0-3.29c-.21-.93-.55-1.81-.83-2.72a4.05,4.05,0,0,1,0-2.53,17.17,17.17,0,0,0,.5-1.87,4.75,4.75,0,0,0,0-1.84c-.08-.46-.27-.88-.35-1.33a13.54,13.54,0,0,1-.28-2.91,6.27,6.27,0,0,0-.06-1.37,1.9,1.9,0,0,1,.26-1.22c.1.24.2.43.47.38a.42.42,0,0,0,.35-.39,2.91,2.91,0,0,0-.15-1.57,6.07,6.07,0,0,1-.24-.59,5.64,5.64,0,0,0-2.39-2.86c-.07,0-.16-.07-.18-.16s.09-.14.15-.2a3.32,3.32,0,0,0,.71-3.71,6,6,0,0,0-1.54-2.36,9.4,9.4,0,0,0-2-1.48c-.85-.48-1.7-1-2.51-1.5a22.16,22.16,0,0,0-3.33-1.69.54.54,0,0,0-.61,0,.57.57,0,0,0-.19.62,4.13,4.13,0,0,0,.14.42.91.91,0,0,1-.52,0,23.26,23.26,0,0,0-3.52-.57c-1.58-.11-3.14-.33-4.7-.55a22.3,22.3,0,0,0-3.65-.32,10.3,10.3,0,0,0-2.92.46,5.62,5.62,0,0,0-2.38,1.5.76.76,0,0,0-.25.89c.07.14,0,.21-.1.28l-.26.16a10.51,10.51,0,0,0-3.53,3.7,4.28,4.28,0,0,0-.64,2.34.86.86,0,0,0,.24.67c.13.1.07.19,0,.3a5.88,5.88,0,0,0-.41,2.78,5.31,5.31,0,0,1,0,.69c-.07,1.18,0,2.35,0,3.53,0,.67,0,1.35.06,2,.08,1.36.13,2.73.11,4.09a.65.65,0,0,1-.36.62,3.26,3.26,0,0,0-1.56,2.17,7.05,7.05,0,0,0,0,3.62c.16.56.36,1.12.52,1.68a10.79,10.79,0,0,0,1.46,3.2A6.57,6.57,0,0,0,108,48.78c.21,0,.3.13.27.34a5,5,0,0,0,.08,1.5,18.72,18.72,0,0,1,.24,2c0,.88.13,1.75.11,2.63,0,.31,0,.63,0,.94,0,1,.08,2,.09,3a14.85,14.85,0,0,0,0,2.31,1.72,1.72,0,0,1-.06.55,14.48,14.48,0,0,0-.29,2.7.43.43,0,0,1-.3.45c-1,.39-1.87.87-2.84,1.24s-2.14.92-3.21,1.35q-2.18.89-4.3,1.89c-.93.44-1.86.9-2.82,1.26a13.3,13.3,0,0,1-2.21.73c-1.05.2-2.11.42-3.14.71-1.55.43-3.13.75-4.65,1.27a16.56,16.56,0,0,1-1.94.57,11.43,11.43,0,0,0-5.74,3.12c-.23.23-.45.45-.69.66a11.56,11.56,0,0,0-2.82,3.66,15.77,15.77,0,0,0-1.64,6.77c-.06,2.22,0,4.45.18,6.67a17.61,17.61,0,0,0,.23,2c.19,1,.41,2,.54,3,.26,2.17.74,4.3,1,6.47a2.8,2.8,0,0,0,1.12-1.19c-.25-2-.57-4.1-.94-6.12a39.14,39.14,0,0,1-.75-8,3.85,3.85,0,0,0,0-.48,16,16,0,0,1,.19-4.58,12.74,12.74,0,0,1,2.51-5.93c.68-.85,1.56-1.48,2.28-2.28a2.94,2.94,0,0,1,.86-.63,5.06,5.06,0,0,0,.92-.57,6.73,6.73,0,0,1,2.67-1.24c.6-.15,1.2-.29,1.79-.48,2.64-.88,5.34-1.47,8-2.19.35-.1.72,0,1.06-.14a50.85,50.85,0,0,0,6-2.54c.31-.17.62-.3.94-.45,2.41-1.07,4.91-2,7.25-3.17.09,0,.2-.14.33,0a1.1,1.1,0,0,1-.68.85A20.76,20.76,0,0,0,104.06,69a14.54,14.54,0,0,1-1.42.72,17.51,17.51,0,0,0-2.1,1A14,14,0,0,1,97,72.31a42.61,42.61,0,0,1-5.54,1.46A32,32,0,0,0,86,75.13c-1.09.38-2.11.92-3.22,1.25a6.12,6.12,0,0,0-1.88.93,12.67,12.67,0,0,1-1.68,1,5.9,5.9,0,0,0-2.58,2.34,6.78,6.78,0,0,1-.54.78,7.59,7.59,0,0,0-1.2,2.13,21.86,21.86,0,0,0-.75,5.14c-.09,1.85.26,3.7.16,5.55A17.48,17.48,0,0,0,74.66,98a21.94,21.94,0,0,1,.38,2.56c.06,1.23.12,2.46.19,3.69a1,1,0,0,0,.26.76c.29,0,.42-.22.59-.39a13.58,13.58,0,0,1,4.16-3.21c.39-.16.77-.33,1.14-.52a20.13,20.13,0,0,1,7.06-2.21,38.87,38.87,0,0,1,4.94-.29,7.72,7.72,0,0,1,2.42.53.79.79,0,0,1,.29.18.41.41,0,0,1,.09.48.36.36,0,0,1-.39.22,2,2,0,0,1-.58-.13,8,8,0,0,0-2.54-.41c-1.15,0-2.28.17-3.43.25a17.71,17.71,0,0,0-5.38,1.24c-1.12.45-2.17,1-3.28,1.52a8.67,8.67,0,0,0-2.77,1.94c-.57.56-1.17,1.1-1.78,1.62a.93.93,0,0,0-.34.44,6.34,6.34,0,0,0,.32,1.42c.17.59.09.84-.46,1.21a7.32,7.32,0,0,0-.12-.94c-.06-.37,0-.78-.23-1.11-.37.12-.64.49-1.08.43,0,.19,0,.37,0,.56.12,1.44.45,2.86.56,4.31A18,18,0,0,0,75,114a24,24,0,0,0,.6,3c.41,1.28.78,2.58,1.25,3.84a11.83,11.83,0,0,0,2.75,4.38,19.65,19.65,0,0,1,1.71,1.93,11.56,11.56,0,0,0,2.12,2.13,1.16,1.16,0,0,1,.48.72,1.1,1.1,0,0,1,.67,1,20.24,20.24,0,0,0,1.29,4.84,40.87,40.87,0,0,1,1.53,4.94c.36,1.57.62,3.16.89,4.74s.59,3.21.9,4.81c.63,3.2,1.16,6.41,1.5,9.65a78.36,78.36,0,0,1,.07,13.7C98.61,174.83,106.47,176.24,114.35,177.28Z"/><path class="cls-3" d="M141.33,177.13a31.87,31.87,0,0,0,6.28-2.74,1.36,1.36,0,0,0,.77-.77c.06-.21.15-.43.42-.42s.36.25.41.48a2.67,2.67,0,0,0,.5,1.13c.15.17.26.35.1.57a.45.45,0,0,1-.65.1.68.68,0,0,0-.2-.07.37.37,0,0,0-.3.22c-.07.11-.15.21-.22.31,2.26-.33,4.52-.6,6.78-.93a1.22,1.22,0,0,0,0-.17,6.81,6.81,0,0,0-.44-1.39,2,2,0,0,1-.22-1.57s0-.06,0-.08a34.73,34.73,0,0,0,.08-3.53,5.85,5.85,0,0,0-.43-2,14.75,14.75,0,0,0-1.6-2.74,20.38,20.38,0,0,1-1.65-2.82,5.94,5.94,0,0,1-.62-2.09,62.3,62.3,0,0,1-.41-6.4.76.76,0,0,0-.71-.84,1.71,1.71,0,0,0-.6,0,.4.4,0,0,0-.1.31c.07.43,0,.86.07,1.29.2,2.37.34,4.75.33,7.13a21.71,21.71,0,0,0,.07,2.28,1.68,1.68,0,0,1-.37,1.56,7.4,7.4,0,0,1-1,1.36c-.33.33-.64.69-.95,1a38.21,38.21,0,0,1-3,3,9.08,9.08,0,0,1-.85.65c-.48.34-1,.66-1.46,1a8.94,8.94,0,0,1-1.77,1,62.35,62.35,0,0,1-9.05,3,15.7,15.7,0,0,0-1.77.54,2,2,0,0,0-1.43,1.67.38.38,0,0,1,0,.13h13Z"/><path class="cls-4" d="M144.9,176.53c.55-.11,1.1-.2,1.65-.29l1.53-.81c.33-.17.59-.32.88,0a2.75,2.75,0,0,0,.28.19.51.51,0,0,0,.66-.13.46.46,0,0,0,0-.66,2.3,2.3,0,0,1-.61-1.35.49.49,0,0,0-.49-.45.48.48,0,0,0-.5.44.78.78,0,0,1-.36.54,4,4,0,0,1-.81.49c-.46.24-.93.46-1.37.72a15.07,15.07,0,0,1-2.64,1.15c-.79.27-1.59.51-2.37.82C142.14,177,143.52,176.79,144.9,176.53Z"/><path class="cls-5" d="M152.48,161.24a26.74,26.74,0,0,1,2.27,3.95,6.38,6.38,0,0,1,.67,2.52,6.32,6.32,0,0,0,.11.86,16.39,16.39,0,0,1,.08,3.77,1.35,1.35,0,0,0,.07.63l.59,1.85,2.08-.39c.35-.07.69-.16,1-.24l.54-.72a6.48,6.48,0,0,0,1-1.81c.29-.75.67-1.46,1-2.18a3.79,3.79,0,0,0-.1-1.21,1.87,1.87,0,0,1-.14-.62,1.17,1.17,0,0,0-.13-.4,27,27,0,0,0-1.71-3.18,10.44,10.44,0,0,0-1.15-1.71,24,24,0,0,0-3.74-3.66,5,5,0,0,0-2-1.06,1.17,1.17,0,0,0-1.13.27.26.26,0,0,1-.12.05c-.2,0-.2.21-.26.34a2.2,2.2,0,0,0,.15,1.27A17.72,17.72,0,0,0,152.48,161.24Z"/><path class="cls-5" d="M75.5,104.94a14.19,14.19,0,0,0,1.44-1.35,11,11,0,0,1,3.72-2.52c.81-.33,1.56-.8,2.38-1.12a25.47,25.47,0,0,1,3.8-1.22,16.25,16.25,0,0,1,2-.21c.37,0,.74-.1,1.11-.15a12.12,12.12,0,0,1,5.86.38,1.27,1.27,0,0,1,.39.18.56.56,0,0,1,.17.66.52.52,0,0,1-.59.32,2.42,2.42,0,0,1-.46-.13,8,8,0,0,0-2.61-.44,18.26,18.26,0,0,0-3.13.24c-.65.12-1.31.14-2,.2a6.27,6.27,0,0,0-1.22.24,32.9,32.9,0,0,0-5,1.94,12.66,12.66,0,0,0-4.1,2.87c-.34.36-.74.67-1.12,1a2.09,2.09,0,0,0-.42.42,1.1,1.1,0,0,1-.59.59s-.11.09-.16.15a.55.55,0,1,1-1-.48l1-1.14C75.2,105.21,75.28,105,75.5,104.94Z"/><path class="cls-3" d="M106.15,125c.78,0,1.55,0,2.33,0,2.27,0,4.53,0,6.8-.14,1.43-.08,2.87-.08,4.3-.25a8,8,0,0,0,3.89-1.37,3.77,3.77,0,0,0,1.17-1.34,11.08,11.08,0,0,0,1-3,3.91,3.91,0,0,0-.27-2.52c-.14-.31-.35-.57-.5-.86a2.12,2.12,0,0,0-1-.89l-.51-.23a47.9,47.9,0,0,0-4.63-1.62c-1.85-.52-3.74-.91-5.58-1.48-1.65-.5-3.36-.87-5-1.47a5.45,5.45,0,0,1-1-.45.49.49,0,0,1-.28-.53.48.48,0,0,1,.38-.42.86.86,0,0,1,.17,0c.57-.2,1.06-.58,1.65-.76a.17.17,0,0,0,.08-.28,6.88,6.88,0,0,0-.7-1.13.49.49,0,0,1,0-.73.54.54,0,0,1,.77,0,2.81,2.81,0,0,1,.48.61l.64,1a2.2,2.2,0,0,0,1.23.47,3,3,0,0,1,1.26.41,10.48,10.48,0,0,0,2.2,1c1.05.35,2.07.77,3.14,1,.21,0,.51.2.4-.25a6.65,6.65,0,0,0-.32-1.47c-.5-1.6-1.22-3.12-1.68-4.74a1.76,1.76,0,0,0-.09-.2,12.9,12.9,0,0,1-.91-4.79,18.92,18.92,0,0,1,.36-3,33.45,33.45,0,0,0,.3-4.8c0-1-.1-2.1-.19-3.14a10.6,10.6,0,0,0-.53-2.91c-.39-1-.76-2-1.15-3.06a16.81,16.81,0,0,0-2.65-4.61,4.7,4.7,0,0,0-2.68-1.76,15.7,15.7,0,0,0-2.81-.31,3.59,3.59,0,0,0-2.3.57l-.19.1a.41.41,0,0,0-.26.36,6,6,0,0,0-.08,1,22.82,22.82,0,0,0,.25,2.61c.15,1.27.32,2.54.58,3.79a21.3,21.3,0,0,1,.54,4.43c0,1,.08,1.89.12,2.84a33.46,33.46,0,0,1,.07,4.13,11.19,11.19,0,0,1-3,6.9c-1,1.06-2.07,2.08-3,3.19s-2.1,2.24-3.2,3.3A18.21,18.21,0,0,0,93,111.47a12.27,12.27,0,0,0-1.52,3.26,7.41,7.41,0,0,0-.15,4.07,30.27,30.27,0,0,1,.59,3.13,1.83,1.83,0,0,1-.34,1.42c-.09.12-.2.24-.29.37a5.23,5.23,0,0,0-1.06,3.3,7.12,7.12,0,0,0,.5,2.12,7.66,7.66,0,0,0,1.06,2.19,1.64,1.64,0,0,1,.16,1.72,7.18,7.18,0,0,1-.56,1c-.3.46-.63.92-.9,1.41a3,3,0,0,0-.26,2.61,8.65,8.65,0,0,1,.25.87,3.87,3.87,0,0,0,.53,1.17,6.69,6.69,0,0,1,.55,1,1.29,1.29,0,0,1,.1.84,7.84,7.84,0,0,1-.3,1.25,1.31,1.31,0,0,0-.08.68c0,.24.06.48.1.72a3.75,3.75,0,0,0,2.36,3,44,44,0,0,0,4.87,1.6,13,13,0,0,0,3.83.44c1.55-.06,3.1-.07,4.65-.21,1-.1,2.11-.18,3.16-.37a14.46,14.46,0,0,0,2.34-.55,12.7,12.7,0,0,0,2.56-1.4,15.72,15.72,0,0,0,2.87-2.59,3.76,3.76,0,0,0,.32-.46c-.13-.33-.4-.17-.58-.11-1,.31-2.06.5-3.07.82a31.39,31.39,0,0,1-5.48,1.29,20.38,20.38,0,0,1-3.9.22,10.31,10.31,0,0,1-1.66-.2.52.52,0,0,0-.42,0,5.56,5.56,0,0,1-.5.47.55.55,0,0,1-.76-.8,2.83,2.83,0,0,1,.24-.25,1.49,1.49,0,0,0,.53-1.5,1,1,0,0,1,0-.3.46.46,0,0,1,.34-.45.5.5,0,0,1,.64.35,5.82,5.82,0,0,1,.18.85c1.29-.22,2.58-.28,3.86-.46.8-.11,1.62-.17,2.43-.29,1.18-.18,2.35-.37,3.51-.63a14.68,14.68,0,0,0,6.29-2.87,6,6,0,0,0,2.1-3.07c-.25-.09-.39.12-.56.22a10.59,10.59,0,0,1-3.76,1.55,30.22,30.22,0,0,1-3.29.29,17.38,17.38,0,0,1-3.06,0,21,21,0,0,1-6.05-1.23,3.68,3.68,0,0,0-1-.25,1.58,1.58,0,0,0-.89,0,2.29,2.29,0,0,1-1,.88.57.57,0,0,1-.81-.54.63.63,0,0,1,.35-.51,1.26,1.26,0,0,0,.65-1.18,3.19,3.19,0,0,0,0-.69,1,1,0,0,1,0-.42.5.5,0,0,1,.5-.34.48.48,0,0,1,.45.34c0,.11.05.23.07.34.06.48.06.48.53.47h.17c.92,0,1.84-.13,2.75-.13,1.76,0,3.5-.08,5.25-.19l3.18-.24a26.46,26.46,0,0,0,2.65-.28,6.82,6.82,0,0,0,3.76-1.93,10.2,10.2,0,0,0,1.24-1.6,6,6,0,0,0,.67-1.34,14.57,14.57,0,0,0,.77-4.13,1.8,1.8,0,0,0,0-.73,7.27,7.27,0,0,1-.33-1.43,1.64,1.64,0,0,0-.5.31c-.11.17,0,.27.14.36a.59.59,0,0,1,.11.74,2.59,2.59,0,0,1-.42.65,4,4,0,0,1-1.86,1.11,19.86,19.86,0,0,1-3.23.73c-.91.12-1.82.2-2.74.27a22.62,22.62,0,0,1-3.86,0,26.31,26.31,0,0,1-6.12-1.37c-.14,0-.29-.13-.45,0a3,3,0,0,1-.7,1.07.59.59,0,0,1-.85,0,.56.56,0,0,1,0-.81,3.88,3.88,0,0,0,.9-2.41,1,1,0,0,1,.09-.46.59.59,0,0,1,.58-.29.53.53,0,0,1,.41.54s0,.06,0,.09C105.8,125,105.8,125,106.15,125Z"/><path class="cls-3" d="M161.67,167.65a.84.84,0,0,1-.22-.36,39.16,39.16,0,0,0-2.25-4.06,7.22,7.22,0,0,0-.87-1.11c-.38-.42-.76-.83-1.12-1.26a20.74,20.74,0,0,0-1.91-1.72,8.89,8.89,0,0,0-2.34-1.5c.36-1.85.71-3.7,1-5.55s.62-3.91.9-5.87a21.37,21.37,0,0,1,.93-3.62,25,25,0,0,1,1-2.53.54.54,0,0,1,.54-.39,6.94,6.94,0,0,1,1.29,0,.53.53,0,0,0,.58-.41.55.55,0,0,0-.37-.65,1.74,1.74,0,0,0-.72-.07l-1.16.13c-.14,0-.25,0-.32-.13-.55-1.06-1.4-1.92-1.94-3-.33-.66-.74-1.29-1.08-1.95a17.49,17.49,0,0,1-1.26-3.34c-.44-1.58-.83-3.17-1.11-4.78-.1-.51-.16-1-.23-1.53.13-.28.38-.13.54-.11a8.41,8.41,0,0,0,3.7-.35,31.3,31.3,0,0,0,8.39-3.59,8.61,8.61,0,0,0,2.82-3.23,2.92,2.92,0,0,1,.29-.48c.15-.16.24-.1.29.08.51,1.59,1.07,3.16,1.51,4.76.39,1.41.92,2.78,1.32,4.18a26.58,26.58,0,0,1,1,3.7c.22,1.55.69,3.05,1,4.59a8.81,8.81,0,0,1,.16,1.45c0,.56,0,1.12.05,1.68a26.59,26.59,0,0,1-.72,6.65A97.67,97.67,0,0,1,168,154.54a68.54,68.54,0,0,1-3.21,7.23c-1,1.92-2,3.8-3,5.7A1.74,1.74,0,0,1,161.67,167.65Z"/><path class="cls-3" d="M134.63,23.94a11.63,11.63,0,0,1,1.11,2.37,10,10,0,0,1,.51,2.48c.07.68.1,1.35.11,2a13.86,13.86,0,0,0,.28,2.65c.05.21,0,.28-.2.3a9.47,9.47,0,0,0-3.35.9,3.16,3.16,0,0,0-.59.35.47.47,0,0,0-.17.6.5.5,0,0,0,.55.24l.13,0a10.89,10.89,0,0,1,2.35-.81,7.26,7.26,0,0,1,1.32-.21c.19,0,.28.05.31.26a2.7,2.7,0,0,1-.05.94,14.18,14.18,0,0,1-.48,1.92,4.84,4.84,0,0,0,0,3.25c.17.47.28,1,.46,1.44a7.73,7.73,0,0,1,.11,5.07,19,19,0,0,1-.93,2.41c-.18.39-.34.78-.54,1.25a1.88,1.88,0,0,1,.11-.75,7.27,7.27,0,0,0,.38-2.11,5.82,5.82,0,0,0-.08-.73,1.54,1.54,0,0,0-1.61-1.37,2.73,2.73,0,0,1-.74-.07L134,46a3,3,0,0,0,.91-.89,1.47,1.47,0,0,0,.25-.95,6.16,6.16,0,0,0-.28-1.47,10,10,0,0,0-1.45-2.92.25.25,0,0,1,0-.07c.06-.27.29-.17.45-.2a1.41,1.41,0,0,0,1.16-2,1.11,1.11,0,0,0-1.51-.57c-.51.22-1,.45-1.07,1.1,0,.08-.06.17-.18.13a.81.81,0,0,1-.16-.87.36.36,0,0,0-.21-.5c-.19-.09-.35,0-.51.19a1,1,0,0,0-.19.89,2.75,2.75,0,0,0,.56,1.15A18,18,0,0,1,133,40.78a8.48,8.48,0,0,1,1.22,3.06,1.2,1.2,0,0,1-.51,1.27,2.37,2.37,0,0,1-1.3.5c-.51,0-.63.33-.38.77,0,0,0,.06,0,.09a.47.47,0,0,1-.32.07c-1.41,0-2.81.16-4.22.06-.94-.07-1.89-.11-2.83-.19a18,18,0,0,0-3.44.05,5,5,0,0,0-1.13.27,1.52,1.52,0,0,0-1,2,13.72,13.72,0,0,0,.9,2.09c-.11.24-.26.07-.36,0a5.28,5.28,0,0,1-1.52-1.26c-.68-.79-1.46-1.5-2.1-2.33a27,27,0,0,1-3.28-4.47,9.07,9.07,0,0,1-1-3.64c0-.7-.17-1.4-.14-2.1.06-1.22-.11-2.44,0-3.65a3.08,3.08,0,0,1,1.51-2.3,11.08,11.08,0,0,1,1.56-.83,1.24,1.24,0,0,0,.77-1.15c0-.66.1-1.31.17-2,0-.17,0-.34,0-.51a.48.48,0,0,1,.25-.54.76.76,0,0,0,.31-.45,3.16,3.16,0,0,1,2.19-1.95,16,16,0,0,1,5.63-.42c.94.06,1.87,0,2.8,0,1.17,0,2.32.12,3.48.2s2.09.14,3.13.24A2.91,2.91,0,0,1,134.63,23.94Z"/><path class="cls-3" d="M96,102.7c0-.21-.14-.27-.31-.29a12.45,12.45,0,0,0-2.36-.18c-.71,0-1.43.09-2.14.18a29.18,29.18,0,0,0-5.61,1.26,15.77,15.77,0,0,0-4.26,2l-.89.6a19.9,19.9,0,0,0-4.5,4,.71.71,0,0,0-.21.62c.24,1.47.38,3,.76,4.4.45,1.69.77,3.41,1.38,5.06a10.84,10.84,0,0,0,2.46,4,22.48,22.48,0,0,1,1.94,2.19,10.89,10.89,0,0,0,1.37,1.43c.59.52,1.22,1,1.77,1.57a10.74,10.74,0,0,0,1.3,1.13l2.07,1.55a8.41,8.41,0,0,0,1.47.88c.09,0,.17.1.28,0a1.07,1.07,0,0,0,.14-1.39,6.59,6.59,0,0,1-.94-1.92,6.44,6.44,0,0,0-.25-.74,5.83,5.83,0,0,1-.39-3,6,6,0,0,1,1.3-3.14,1.4,1.4,0,0,0,.31-1.23c-.19-1-.39-2.09-.62-3.13a6.2,6.2,0,0,1-.17-1.92,11.21,11.21,0,0,1,1-3.73,16,16,0,0,1,3.89-5.42,1.28,1.28,0,0,0,.37-.4.58.58,0,0,0-.3-.09,13.89,13.89,0,0,0-3.35-.1,7,7,0,0,0-1.43.24c-1,.29-2.07.57-3.08,1a7.22,7.22,0,0,0-2.15,1.16c-1,.88-2.27,1.57-2.92,2.86-.18.36-.72.24-.86-.13a.8.8,0,0,1,0-.34,5.68,5.68,0,0,1,.18-.71A7.46,7.46,0,0,1,83,108.28a15.75,15.75,0,0,1,7.31-4.57,10.4,10.4,0,0,1,5.48-.19c.13,0,.28.1.4,0C96.14,103.23,96.07,103,96,102.7Z"/><path class="cls-3" d="M127.47,67.12a9.76,9.76,0,0,1-.2,2.53,1.6,1.6,0,0,0,0,.29,1.69,1.69,0,0,1-.9,1.43,12,12,0,0,1-2.72,1.37,5.44,5.44,0,0,1-.52.19,2.78,2.78,0,0,1-1.64.08,23.18,23.18,0,0,1-3.07-.83,19.72,19.72,0,0,1-3.19-1.58c-1.15-.72-2.33-1.38-3.45-2.13a8.26,8.26,0,0,1-.94-.74,5.55,5.55,0,0,0-1-.71.53.53,0,0,1-.29-.52,25.2,25.2,0,0,1,.37-4.58,4.43,4.43,0,0,0,.07-1.41,1.51,1.51,0,0,1,0-.3c0-2.32-.1-4.64-.19-7,0-.05,0-.11,0-.17.25,0,.27.18.34.32a23.32,23.32,0,0,0,2.83,4.14,22,22,0,0,0,3.18,2.69c.92.77,2,1.34,2.91,2.13.37.32.77.59,1.15.9a11.11,11.11,0,0,0,3.49,1.91l1.31.43a5.34,5.34,0,0,0,1.86.31.89.89,0,0,1,.62.09h0C127.49,66.37,127.37,66.75,127.47,67.12Z"/><path class="cls-3" d="M151.71,158l-.26.34c-.1-.61-.14-1.22-.18-1.84-.09-1.17-.18-2.34-.26-3.51a7.68,7.68,0,0,1,0-1.59.7.7,0,0,0-.48-.78,4.29,4.29,0,0,0-1.45-.36,7.65,7.65,0,0,0-1.43.06,8.47,8.47,0,0,1,.06-1.43c.08-2.07.32-4.11.57-6.16.13-1,.19-2,.29-3,.12-1.16.24-2.31.38-3.46s.26-2.28.4-3.42c.21-1.72.44-3.44.73-5.15,0-.1-.06-.3.17-.31s.18.18.21.3c.27,1.1.53,2.21.86,3.29a19.82,19.82,0,0,0,1.95,4.48c.63,1.05,1.22,2.12,1.86,3.15a2.4,2.4,0,0,0,.37.47c.35.31.37.47.16.89a21.6,21.6,0,0,0-1.78,5.1c-.2,1-.32,2-.47,3-.37,2.37-.72,4.74-1.18,7.09Z"/><path class="cls-6" d="M115.74,27.23a15.09,15.09,0,0,1-.13,2.23,1,1,0,0,1-.62.82,13.37,13.37,0,0,0-1.64.85,3,3,0,0,0-1.55,2.71c0,.54.09,1.09,0,1.63a25.35,25.35,0,0,0,.13,3.9A7.9,7.9,0,0,0,113.06,43a13.32,13.32,0,0,0,1.23,1.92c1.22,1.38,2.28,2.9,3.61,4.2a13.5,13.5,0,0,0,1.32,1.3c.21.16.45.31.67.46.06,0,.13.08.18,0a1.79,1.79,0,0,1,.32.63.58.58,0,0,1-.43.08c-1.3,0-2.59.06-3.88.07-.8,0-1.59.19-2.39.22-.62,0-1.23.08-1.84.13-.21,0-.28-.07-.34-.28a14,14,0,0,1-.18-4.37c0-.13,0-.25,0-.38V44.18a16.76,16.76,0,0,0-.81-5.12,4.29,4.29,0,0,0-.86-1.67,2,2,0,0,0-.55-.46c-.27-.14-.41-.44-.61-.66a4.43,4.43,0,0,0-2.17-1.4,4.2,4.2,0,0,0-1.12-.07c-.32,0-.33,0-.28-.3a8.28,8.28,0,0,0-.06-1.41c0-.27,0-.52.23-.7a.29.29,0,0,0,.09-.15,1.88,1.88,0,0,1,.62-1,10.15,10.15,0,0,1,3.36-2.45,16.67,16.67,0,0,1,3.39-1.06,21.79,21.79,0,0,1,2.77-.33c.14,0,.31,0,.33-.19C115.71,27.18,115.73,27.19,115.74,27.23Z"/><path class="cls-3" d="M109.9,48.07a1.52,1.52,0,0,0-.06-.2.48.48,0,0,0-.74-.26,1.25,1.25,0,0,1-1,.09,5.49,5.49,0,0,1-3.17-2.23,9.79,9.79,0,0,1-1.38-2.9,22,22,0,0,1-.69-2.4,5.78,5.78,0,0,1,.18-2.68,2.2,2.2,0,0,1,1.89-1.59,2.86,2.86,0,0,1,2.64.91A12.65,12.65,0,0,0,108.84,38a1.65,1.65,0,0,1,.49.65,9.22,9.22,0,0,1,.92,4c0,1.41,0,2.82,0,4.22,0,.29,0,.57,0,.86C110.12,47.85,110.32,48.26,109.9,48.07Z"/><path class="cls-7" d="M167,116.25c-.07,0-.11-.2-.21,0-.19.35-.39.69-.6,1a11,11,0,0,1-1.31,1.74,8.24,8.24,0,0,1-1.79,1.31q-1.19.7-2.43,1.29a22.45,22.45,0,0,1-2.09.87,36.45,36.45,0,0,1-3.8,1.21,9,9,0,0,1-2.53.31c-.39,0-.77-.08-1.15-.11,0,0-.08,0-.12,0a.5.5,0,0,1-.14-.51c.19-.85.38-1.7.51-2.57,0-.2.11-.29.33-.29a12.28,12.28,0,0,0,4.81-1c1-.37,1.94-.68,2.89-1.11.61-.28,1.2-.61,1.78-1,.93-.54,1.85-1.09,2.77-1.65a4.28,4.28,0,0,0,.74-.52,8.78,8.78,0,0,1,1.82-1.13l.14,0Z"/><path class="cls-6" d="M75.5,104.94a1.18,1.18,0,0,1-.43.43c-.15-1.18-.4-2.34-.57-3.51s-.26-2.08-.46-3.1c-.12-.64-.22-1.27-.36-1.9a16.94,16.94,0,0,1-.23-2c-.06-.72-.09-1.46-.09-2.19,0-1.2-.09-2.41-.1-3.61a19.08,19.08,0,0,1,.65-4.63,12.07,12.07,0,0,1,2.45-4.64,4.89,4.89,0,0,1,.44-.47c.58-.56,1.17-1.11,1.76-1.65a2.07,2.07,0,0,1,.44-.34,11.06,11.06,0,0,0,1.6-1,5.78,5.78,0,0,1,2.09-.89c1-.23,1.94-.5,2.89-.82,1.16-.39,2.35-.66,3.52-1s2.4-.68,3.62-1c0,0,.08,0,.13,0a7,7,0,0,0,2.65-.77c1-.34,1.9-.81,2.87-1.17a9.63,9.63,0,0,0,1.1-.58c.94-.5,1.93-.88,2.91-1.3,1.5-.64,3-1.26,4.51-1.91.36-.15.68-.37,1-.54a1.27,1.27,0,0,1,.46-.18.54.54,0,0,1-.09.56s-.07.07-.07.1c0,.39-.31.47-.59.58A21.34,21.34,0,0,0,104.19,69a19,19,0,0,1-2.4,1.16,8.43,8.43,0,0,0-1.35.66,18.71,18.71,0,0,1-5.61,2.21c-.73.22-1.47.4-2.2.61-.9.25-1.83.31-2.75.49s-1.72.44-2.57.67a35.14,35.14,0,0,0-3.46,1.31c-.43.17-.86.31-1.3.46a5.37,5.37,0,0,0-1.41.72,17.65,17.65,0,0,1-2.24,1.37,5.28,5.28,0,0,0-2,1.86c-.27.44-.57.86-.88,1.28A7.17,7.17,0,0,0,74.73,85c-.17.93-.24,1.88-.36,2.81a10.36,10.36,0,0,0-.07,1.12,9.86,9.86,0,0,0,.09,2.1,8.47,8.47,0,0,1,.07,1.59c0,.83,0,1.66,0,2.5a20.45,20.45,0,0,0,.3,2.81,24.74,24.74,0,0,1,.42,3.11c0,1,.08,2,.13,3A4.49,4.49,0,0,0,75.5,104.94Z"/><path class="cls-7" d="M122.07,137.2a11.49,11.49,0,0,1-1.42.87,12.29,12.29,0,0,1-2.55,1c-.58.1-1.16.15-1.74.24s-1.42,0-2.13.13a14.25,14.25,0,0,1-1.85,0,14.94,14.94,0,0,1-2.59-.24l-1.82-.26a12.19,12.19,0,0,1-2.38-.67,5.29,5.29,0,0,0-1.75-.39,2.07,2.07,0,0,1-.42-.08,1.13,1.13,0,0,0,.08-.24c0-.24.2-.27.41-.27,2.07-.09,4.13-.1,6.2-.19,1.53-.07,3.06-.16,4.59-.31.83-.08,1.66-.1,2.49-.19a11.14,11.14,0,0,0,2.37-.44,8.45,8.45,0,0,0,2.89-1.66l.29-.26h.1A13,13,0,0,1,122.07,137.2Z"/><path class="cls-7" d="M123.77,124.45c0,.14.13.17.21.25a.58.58,0,0,1,.19.83,2.91,2.91,0,0,1-1.38,1.47,9.46,9.46,0,0,1-2.35.8,19.22,19.22,0,0,1-2.61.44l-1.92.18a33.32,33.32,0,0,1-3.87.06,11.71,11.71,0,0,1-2.19-.33,34.67,34.67,0,0,1-3.74-.94,5,5,0,0,0-.77-.26c.22-.78.22-.78,1-.78H112c1.92,0,3.84-.17,5.76-.23a20.61,20.61,0,0,0,2.48-.24A8,8,0,0,0,123.77,124.45Z"/><path class="cls-6" d="M159.78,87.67l-.57-.91a13.23,13.23,0,0,0-2.57-2.82c-1.39-1.24-2.95-2.28-4.44-3.4a6.92,6.92,0,0,0-1.58-.87c-.7-.28-1.4-.58-2.1-.89a25.85,25.85,0,0,0-3.09-.88,33.79,33.79,0,0,1-4.51-1.55,19.48,19.48,0,0,1-2.78-1.81c-1.45-1-2.95-2-4.48-2.89-.66-.4-1.33-.8-2-1.24a22,22,0,0,0-2.15-1.26,1.53,1.53,0,0,0-.69-.23.28.28,0,0,1-.33-.26c0-.21-.08-.45.09-.62a.4.4,0,0,1,.51-.09l1.08.63c1.19.67,2.39,1.32,3.55,2,.93.56,1.88,1.09,2.81,1.67s1.87,1.23,2.81,1.84a16.64,16.64,0,0,0,3.8,1.89c1.68.58,3.37,1.12,5,1.79a19.41,19.41,0,0,1,2.06,1A26.26,26.26,0,0,0,152.84,80a12.2,12.2,0,0,1,3.36,2.2,15.15,15.15,0,0,1,3.37,4.69,3.22,3.22,0,0,1,.21.51,2.45,2.45,0,0,1,.08.29Z"/><path class="cls-7" d="M81,111.7a2.85,2.85,0,0,1,.48-1.66,7.46,7.46,0,0,1,1.29-1.71,13.45,13.45,0,0,1,2.11-2c.34-.24.66-.5,1-.74a14.57,14.57,0,0,1,4.82-2.17,10.35,10.35,0,0,1,2.54-.33,7.52,7.52,0,0,1,2.79.35h.13a15.93,15.93,0,0,1,.55,1.94.24.24,0,0,1,0,.23l-.42.38c-.11.1-.24,0-.36,0a14.64,14.64,0,0,0-5.48-.13,20.94,20.94,0,0,0-3,.83c-.54.18-1.08.4-1.61.61a5.29,5.29,0,0,0-1.27.71c-.71.52-1.39,1.06-2,1.65A5.45,5.45,0,0,0,81,111.7Z"/><path class="cls-8" d="M109.9,48.07c.15,0,.24,0,.26-.19a.34.34,0,0,1,.07-.15c0,.57,0,1.15,0,1.72a10.68,10.68,0,0,0,.94,4.38,9,9,0,0,0,1.24,1.86A10.35,10.35,0,0,0,115,58.05a21.19,21.19,0,0,1,2.17,1.47c1,.74,2,1.38,2.94,2.1a8.39,8.39,0,0,0,.81.5,9.34,9.34,0,0,1,1.27.8,10.59,10.59,0,0,0,2.92,1.53l1.26.46.41.11c.6.12.6.11.62.72a1.06,1.06,0,0,1,0,.25,6.41,6.41,0,0,1-2.94-.43,12.29,12.29,0,0,1-2-.76,14.3,14.3,0,0,1-2.06-1.22c-.46-.39-.95-.74-1.41-1.11-.77-.63-1.62-1.13-2.4-1.73s-1.67-1.25-2.51-1.86a3.88,3.88,0,0,1-.64-.64,15.66,15.66,0,0,1-1.74-2.06,13.58,13.58,0,0,0-.87-1.27,7.3,7.3,0,0,1-.87-1.57c0-.11-.08-.22-.2-.27-.1-1-.21-2.07-.38-3.1a9.75,9.75,0,0,1,0-1.08c0-.16.08-.22.2-.29A.82.82,0,0,0,109.9,48.07Z"/><path class="cls-3" d="M133.8,50.37a16.39,16.39,0,0,1-.71,2.15c-.14.31-.31.61-.47.91a1.58,1.58,0,0,1-.68.65c-.37.18-.6.1-.87-.29a1.94,1.94,0,0,1,.65-.19c.34-.1.49-.26.44-.48s-.25-.29-.6-.23a9.33,9.33,0,0,1-4.3-.07,7,7,0,0,1-1.89-.7.66.66,0,0,0-.19-.09.33.33,0,0,0-.4.17.29.29,0,0,0,.13.4,5.61,5.61,0,0,0,2,.88l1,.22c0,.16-.07.19-.16.23a4.65,4.65,0,0,1-1.28.34,1.58,1.58,0,0,1-.68-.09,5.29,5.29,0,0,1-2.21-1.52c-.31-.39-.66-.75-1-1.12A11.12,11.12,0,0,1,121,49.29c.13-.06.2.05.28.08a19.76,19.76,0,0,0,6.76,2,11.48,11.48,0,0,0,2.62,0,6.62,6.62,0,0,0,2.45-.77l.59-.34Z"/><path class="cls-6" d="M97.69,104.5c0-.17-.08-.31-.13-.44a4.85,4.85,0,0,1-.26-1.73A12.86,12.86,0,0,0,97,99.77c-.08-.45-.15-.9-.22-1.36a5.82,5.82,0,0,0-.3-1.16,15.14,15.14,0,0,1-.76-3.82c-.09-1-.23-2.05-.31-3.08A23.76,23.76,0,0,0,95.16,88c0-.2-.11-.39-.16-.58a.69.69,0,0,0-.36-.5.47.47,0,0,1-.24-.59c.06-.27.15-.53.46-.62s.59.07.78.46a8.57,8.57,0,0,1,.62,1.69,14.45,14.45,0,0,1,.28,2c.09,1.07.22,2.13.31,3.2.07.73.15,1.45.27,2.17a11.61,11.61,0,0,0,.45,1.66,11.57,11.57,0,0,1,.53,2.47c.05.56.2,1.1.26,1.65s.07,1.21.08,1.81a.74.74,0,0,0,0,.21C98.63,103.66,98.2,104.08,97.69,104.5Z"/><path class="cls-6" d="M152.21,116.67c.24-1.18.58-2.34.86-3.51.67-2.84,1.32-5.69,2-8.53.39-1.63.84-3.25,1.22-4.88.24-1,.52-2,.78-3a1,1,0,0,0,0-.63c-.07-.22-.09-.46-.17-.68s.13-.61.49-.68a.61.61,0,0,1,.7.54,3.28,3.28,0,0,1-.15,1.32c-.66,2.19-1.23,4.42-1.78,6.64-.21.86-.31,1.75-.45,2.62-.18,1-.4,2.06-.63,3.08-.28,1.23-.56,2.46-.87,3.68-.24,1-.58,1.89-.8,2.85-.08.32-.15.64-.22,1A.8.8,0,0,1,152.21,116.67Z"/><path class="cls-5" d="M152.21,116.67a3.17,3.17,0,0,0,1-.16,5,5,0,0,0,1.2-.32c1.08-.38,2.18-.72,3.29-1a18.47,18.47,0,0,0,3-1.2l1-.43a13.08,13.08,0,0,0,3.54-2.28,4,4,0,0,1,.4-.32.56.56,0,0,1,.71.87c-.45.39-.9.76-1.36,1.13a21.07,21.07,0,0,1-4.4,2.33,22.26,22.26,0,0,1-3.86,1.32c-.89.22-1.74.6-2.64.8-.4.1-.81.19-1.22.25a1,1,0,0,1-1,.14,1.45,1.45,0,0,1-.23-.19.48.48,0,0,1,0-.69A1.18,1.18,0,0,1,152.21,116.67Z"/><path class="cls-8" d="M148.59,151.34a16,16,0,0,1,.15,2,12.29,12.29,0,0,1,.11,1.49c0,.79.05,1.58.11,2.36.1,1.39,0,2.78.06,4.17,0,.53.12,1.05.1,1.59a1.08,1.08,0,0,1-.53,1c0-.13.12-.22.17-.34a.53.53,0,0,0-.16-.65.51.51,0,0,0-.64.07c-.07.06-.1.17-.23.19a8.47,8.47,0,0,1-.08-1.23c0-.68,0-1.35,0-2-.06-1.52-.14-3-.17-4.55,0-1.23,0-2.44.1-3.66,0-.31,0-.33.35-.37A1.94,1.94,0,0,1,148.59,151.34Z"/><path class="cls-7" d="M118.34,144.09c-.1-.12-.23-.07-.35,0-.75.15-1.45.45-2.2.59-1.14.21-2.21.67-3.33.94s-2,.46-3,.6-1.79.17-2.68.26c-.71.08-1.4-.05-2.1,0a7.17,7.17,0,0,1-1.43-.26.74.74,0,0,1,.65-.45c2-.31,4.1-.47,6.14-.75a26.38,26.38,0,0,0,8.31-2.22l.71-.36A4.46,4.46,0,0,1,118.34,144.09Z"/><path class="cls-7" d="M110.38,107.13a.33.33,0,0,1,.33.08,1.06,1.06,0,0,0,.7.25,4.24,4.24,0,0,1,2,.69,4.54,4.54,0,0,0,.77.37c1.1.37,2.18.77,3.28,1.15.32.11.66.18,1,.3s.18-.09.21-.2c.18.6.23,1.23.46,1.9l-1.15-.27c-2-.5-4-1.07-6-1.65a.62.62,0,0,1-.41-.33A17.11,17.11,0,0,1,110.38,107.13Z"/><path class="cls-8" d="M115.74,27.23l-.06,0a4.72,4.72,0,0,1,.68-3,3.4,3.4,0,0,1,2.76-1.67c1.36.15,2.72,0,4.08.13,1.82.16,3.63.35,5.46.34.92,0,1.83.09,2.75.14a16.89,16.89,0,0,0,2.36-.12.42.42,0,0,1,.49.24c.11.23.25.45.37.67q-.91,0-1.83-.15a8.89,8.89,0,0,0-1.15-.08c-1.05,0-2.08-.15-3.12-.22-1.25-.09-2.49,0-3.74-.08-1.08-.06-2.17-.08-3.26-.07a9.2,9.2,0,0,0-2.7.4l-.49.13a2.71,2.71,0,0,0-1.93,1.78c-.12.28-.17.59-.55.64-.1,0-.1.13-.1.21C115.75,26.75,115.75,27,115.74,27.23Z"/><path class="cls-6" d="M124.18,77.47a13.23,13.23,0,0,1-3.65-.55c-.76-.24-1.52-.45-2.25-.75a2.25,2.25,0,0,1-.53-.28.49.49,0,0,1-.18-.68.47.47,0,0,1,.67-.19,22.54,22.54,0,0,0,3.79,1.1,5.82,5.82,0,0,0,1,.14,8.28,8.28,0,0,1,.86.06,2.19,2.19,0,0,0,1.3-.21,9.37,9.37,0,0,1,.87-.36.51.51,0,0,1,.71.18.59.59,0,0,1-.15.77.3.3,0,0,1-.1.07A4.82,4.82,0,0,1,124.18,77.47Z"/><path class="cls-9" d="M131.92,49.9a.92.92,0,0,1-.77.66,8.36,8.36,0,0,1-3,.12,14.78,14.78,0,0,1-1.87-.27c-.85-.2-1.68-.47-2.51-.75a3.43,3.43,0,0,1-.9-.64C126,49.29,128.91,49.88,131.92,49.9Z"/><path class="cls-7" d="M132.28,38.18a.22.22,0,0,0,.1-.22.81.81,0,0,1,.36-.7,2.92,2.92,0,0,1,1.15-.55,1,1,0,0,1,.77.21,1.36,1.36,0,0,1,.24,2.14,1.53,1.53,0,0,1-1.28.57.24.24,0,0,0-.19.08Z"/><path class="cls-10" d="M107.47,108.42a3.62,3.62,0,0,1,1.5-.79.25.25,0,0,0,.23-.25,1.48,1.48,0,0,1,.34.58,5.28,5.28,0,0,0,.52,1.23A9.29,9.29,0,0,1,107.47,108.42Z"/><path class="cls-11" d="M75.17,106.84a2.75,2.75,0,0,1,.59-.59,18,18,0,0,0,.48,1.74.32.32,0,0,1,0,.36l-.69.85a5.59,5.59,0,0,1-.2-1.14A8.31,8.31,0,0,0,75.17,106.84Z"/><path class="cls-11" d="M152,117.8a7.5,7.5,0,0,1,1-.14c-.11.48-.23,1-.34,1.45-.07.31-.07.31-.38.33h-.13c-.36,0-.41,0-.34-.39A12.55,12.55,0,0,1,152,117.8Z"/><path class="cls-8" d="M127.47,67.12A2.53,2.53,0,0,1,127.4,66,5.41,5.41,0,0,1,127.47,67.12Z"/><path class="cls-4" d="M121.76,33.22l.82,0a36,36,0,0,1,5.66.79,2.32,2.32,0,0,1,.37.13.5.5,0,0,1,.27.61.47.47,0,0,1-.58.38c-.46-.08-.9-.18-1.35-.28a22.66,22.66,0,0,0-3.07-.42c-.6,0-1.2-.12-1.8-.16a10.83,10.83,0,0,0-1.71.1,11,11,0,0,0-1.14.24,1,1,0,0,0-.36.13c-.49.32-1.06.46-1.56.73a.61.61,0,0,1-.54,0,.44.44,0,0,1-.17-.73,1.32,1.32,0,0,1,.46-.32,10,10,0,0,0,1.25-.67,1.67,1.67,0,0,1,.52-.21A12.1,12.1,0,0,1,121.76,33.22Z"/><path class="cls-8" d="M123.11,35.66a1.67,1.67,0,0,1,1.76,1.54,1.47,1.47,0,0,1-.45,1.21,2,2,0,0,1-3.31-.31,1.3,1.3,0,0,1,.93-2,.86.86,0,0,0,.41-.22A.94.94,0,0,1,123.11,35.66Z"/><path class="cls-12" d="M125.64,44.31a2.22,2.22,0,0,1,.78-1.22.34.34,0,0,1,.48,0,.36.36,0,0,1,.12.46,4.71,4.71,0,0,1-.29.48.65.65,0,0,0,.33,1,2.31,2.31,0,0,1,.28.1.42.42,0,0,1,.21.48.44.44,0,0,1-.37.36,1,1,0,0,1-.17,0A1.74,1.74,0,0,1,125.64,44.31Z"/><path class="cls-12" d="M130,44.29a4.24,4.24,0,0,1,1.23.16.76.76,0,0,1,.45.31.37.37,0,0,1-.28.58,1.86,1.86,0,0,1-.47,0,7.86,7.86,0,0,0-2-.24,2.42,2.42,0,0,0-.76.12c-.14,0-.25,0-.33-.1a.26.26,0,0,1,.13-.36,1.69,1.69,0,0,1,.38-.19A4.17,4.17,0,0,1,130,44.29Z"/><path class="cls-12" d="M105.32,38.68a1,1,0,0,1,.42.14,3,3,0,0,1,.91.89c.52.75.89,1.57,1.34,2.35l.78,1.29a2.75,2.75,0,0,1,.2.38.39.39,0,0,1-.15.49.35.35,0,0,1-.48-.15c-.27-.42-.53-.85-.79-1.28-.11-.19-.2-.38-.31-.56s-.21-.32-.51-.07c-.11.09-.2.2-.32.29a.31.31,0,0,1-.46,0,.32.32,0,0,1,0-.43,1.75,1.75,0,0,1,.57-.51c.29-.2.29-.2.11-.5s-.45-.69-.67-1a1.82,1.82,0,0,0-.7-.62.33.33,0,0,1-.22-.41A.31.31,0,0,1,105.32,38.68Z"/><path class="cls-12" d="M134.75,38.13a.88.88,0,0,1-.87,1,.95.95,0,1,1,0-1.89A.87.87,0,0,1,134.75,38.13Z"/><path class="cls-4" d="M123.06,36.28a1.16,1.16,0,1,1-.12,2.31,1.8,1.8,0,0,1-.83-.32.88.88,0,0,1-.3-1A1.33,1.33,0,0,1,123.06,36.28Z"/><rect class="cls-3" x="141.26" y="97.72" width="5.2" height="0.81"/><rect class="cls-3" x="147.47" y="99.71" width="1.04" height="3.87"/><path class="cls-3" d="M146.43,99.71h-1V100a1.61,1.61,0,0,0-1-.35h-.06a1.86,1.86,0,0,0-1.76,1.93v.09a1.87,1.87,0,0,0,1.85,1.85,1.4,1.4,0,0,0,1-.32v.41a.82.82,0,0,1-.87.75.84.84,0,0,1-.83-.61l-1,.35a1.78,1.78,0,0,0,1.79,1.24,1.8,1.8,0,0,0,1.91-1.82Zm-1.91,2.74a.9.9,0,1,1,.9-.9A.89.89,0,0,1,144.52,102.45Z"/><path class="cls-3" d="M152,102.59h-.84a.44.44,0,0,1-.4-.46v-1.44H152v-1h-1.21l0-.84h-.58l-1,1.27v.52h.55v1.79a1.21,1.21,0,0,0,1.27,1.13h1Z"/><rect class="cls-3" x="140.71" y="99.71" width="1.04" height="3.87"/><path class="cls-3" d="M139.67,97.72h-1.09V100a1.69,1.69,0,0,0-1-.35,1.92,1.92,0,0,0-1.91,2v.09a1.93,1.93,0,0,0,1.94,1.93,1.51,1.51,0,0,0,1.06-.34v.26h1Zm-2,4.93h-.06a.94.94,0,0,1-.89-1v-.06a1,1,0,0,1,1-1h.06a1,1,0,0,1,.92,1v.09A1,1,0,0,1,137.68,102.65Z"/><polygon class="cls-5" points="147.5 97.25 147.5 99.01 147.76 99.01 148.54 98.12 147.76 97.25 147.5 97.25"/></svg>